<?xml version="1.0" encoding="UTF-8"?>
<svg id="Layer_2" data-name="Layer 2" xmlns="http://www.w3.org/2000/svg" width="1285" height="487.2" version="1.1" viewBox="0 0 1285 487.2">
  <defs>
    <style>
      .cls-1 {
        fill: #33ad61;
      }

      .cls-1, .cls-2, .cls-3 {
        stroke-width: 0px;
      }

      .cls-2 {
        fill: #000;
      }

      .cls-3 {
        fill: #66c189;
      }
    </style>
  </defs>
  <g>
    <g>
      <path class="cls-3" d="M716.4,29.7s-.7-.8-1.4-1.9c-.5-.7-1-1.5-1.5-2.3l.5-.3c.9,1.5,2.1,2.9,3.5,3.9.6.4,1.5-.4,1-1-3.8-5.2-5.6-11.7-2-17.7,3.7-6,6.8,1.3,7.8,4.6.9,3,1.3,6.1,1.2,9.2,0,.5-.1.9-.2,1.3,0,.2,0,.3,0,.5,0,.6,0,1.1-.2,1.7-.3,1.9,2.7,2.8,3,.8.3-1.9.4-3.8.4-5.7,2-4.5,5.4-8.3,10-10.4,2.6-1.1,4.5.2,4,3.1-.3,1.5-.6,3-1,4.4-.9,3.1-2.2,6-3.5,9-.5,1.3,1.5,2.1,2.2.9.2-.3.5-.8.7-1.4.3,0,.6,0,.9-.2,7.6-4.9,15.2-7.6,24.1-5.8-1,3.7-4.1,6-7.9,6.5-2.1.3-1.2,3.4.9,3.1.9-.1,1.8-.4,2.6-.7,19.3.9,38.7-.2,57.9-.8,2,0,2.5-2.5,1-3.6-1.7-1.7-3.4-3.5-5-5.2,1.4-3.7,3.1-4.4,5.2-1.9,2.9,1.3,4.9,5,6.2,7.7.8,1.6,3,.7,3.1-.8.6-.4,1-1,.8-2-1-4.4-.2-9.1,2.7-12.7.5-.6,1.3-1.9,2.3-1.5.6.3,1.3,3.6,1.5,4.2.7,2.7.8,5.4,1.1,8.1,0,.2,0,.4.2.6-.7,1.9,1.6,3.2,2.8,1.5,2.9-3.8,6.3-9.6,11.8-9.1,2.5.2,5,1.8,4.6,4.7-.4,2.8-3.3,5-5.5,6.5-1.8,1.3-.3,4.2,1.7,3.3.1.5.6,1,1.3,1,44,2.3,88.3,1.1,132.3,1.4,44.1.2,88.2.7,132.3.4,3.8,0,4-5.7.5-6.2-2.1-1.6-4.4-2.9-6.1-4.9-1.7-1.9-3.2-7.6.8-8.2,2.9-.5,5.6,5.4,6.9,7.3,2,2.8,3.8,6.1,6.3,8.5,1.7,1.6,3.9-.4,3-2.3-.4-.9-.9-1.8-1.4-2.6-.3-2.9-.7-5.9-.7-8.9,0-1.5-.4-4.1.5-5.5,2.5-4.1,5.5-.3,6.4,2.2,1.7,5.2,0,12.7,5.9,15.6,1.3.6,3.1-.7,2.1-2.1-.3-.4-.5-.7-.7-1.1.5-.5,1-1,1.5-1.4,3.6-3.3,7-6.1,12-7.6,2-.6,4.9-.2,4.1,2.8-.3,1.3-1.9,2.4-2.8,3.3-2.4,2.3-5,4.5-7.4,6.8-1.8,1.6.5,4.6,2.5,3.3,1.1-.7,2.2-1.4,3.2-2.2.5-.4.8-.9.8-1.4.5-.5,1.1-1,1.6-1.5,5.5-2.6,11.1-4.8,17.1-6.2,2.8-.7,8.4-2.3,11-1.9,4.3-.9,5.4,1.8,3.6,8.1-2.8.2-5.7.5-8.5.7-1,0-1.4.9-1.3,1.6-.8,1-.3,3,1.4,3,3.7.2,8,.2,11.5-1.3,34,1.3,68.5-.9,102.4-1.4,35-.5,70-.7,105-1.6,11.5,77.5,19.1,155.5,22,233.8,1.5,38.6,1.7,77.3.9,116-.4,20-1.1,39.9-2.1,59.8-.4,8.7-.9,17.4-1.5,26.2-.6,9.4,1.4,26.5-9.1,31.1-7.3,3.2-19.3,1-27.1,1s-21.5,0-32.3,0c-19,0-38,0-57,0h-117.9c-79.2,0-158.5-.1-237.7-.1-157.5,0-315.1,0-472.6,0s-314,.5-470.9-1.5c-9.5-.1-18.9-.2-28.4-.4-8.3-.1-22.1,1.8-28.6-4.8-6.2-6.4-4.9-20-5.4-28.2-.6-9.9-1.2-19.9-1.6-29.8-1.8-38.5-2.4-77.1-1.9-115.6,1.2-83.9,8.7-152,17.5-231.9,2.6-24,5-43.6,6.6-56,56.1,2.1,89.6,1.2,110.1,0,19.3-1.2,29.2-2.8,46.7-1,12.7,1.3,24.2,3.9,37.9,2.1.2,0,6.2-.8,14.4-.9,10.4-.2,14.1,1,16.2,1.7,3.1,1.1,5.6,2.6,5.9,2.1.5-.7-4.3-3.4-7.3-9.3-1.6-3.1-5.4-12.4,1.8-10.4,5.9,1.6,10.2,8.2,12.5,14.4.1,1.1.2,2.2.4,3.3,0,.6.5,1,1,1,.1.5.2,1,.3,1.5.3,1.4,2.3.8,2.1-.6-.2-.8-.3-1.5-.6-2.3,0-1.7.1-3.4.1-5.2,0-2.7,0-5.4-.2-8.1,0-3.6-1.1-8.7,3.7-9.2,10.5-1,7.7,12.8,6.2,18.7-.5,1.7,2.2,2.4,2.7.7,0,0,0-.1,0-.2,0,0,.2-.2.3-.3,3.7-5.5,9.3-12.2,16.6-12.8,8.1-.7,4.7,6.5,1.6,9.3-2.3,2.2-5.4,3.6-6.8,6.6-.8,1.7,1.2,3.3,2.7,2,1.5-1.3,3.2-2.7,4.8-4.3,4.2-1.9,8.5-3.2,13.3-3.5,1.1,0,2.3,0,3.5,0,.8,0,1.7.2,2.5.3-.2,1.5-.3,2.9-.5,4.3-.7,1.2-3.4,2.3-5.7,3.1-.2,0-.4,0-.6,0-.3,0-.6.2-.7.4-.5.2-.9.3-1.3.5-1.8.8-.5,4,1.4,3.2,1-.4,3-1.2,5-2.4,26.5.3,53.1-.9,79.6-.8,28,0,56,1.2,84,2,1.6,0,2.3-1.2,2.2-2.4.9-.7,1-2.5-.5-2.8-3.3-.6-5.4-3-7-5.8-.5-.9-1.5-2-1.6-3.1-.9-5.1,3.3-5.2,6.5-4.5,6.9,1.4,10.2,7.7,14.4,12.5,1,1.2,2.7-.3,2.1-1.6-.2-.3-.3-.7-.5-1,0,0,0-.2,0-.3-.7-2-1.5-4.4-1.1-6.5.3-1.6,2.5-4.2,4.1-2.2,1,1.3,1.2,3.6,1.6,5.2.6,2.3,1.1,4.6,2,6.9.7,1.9,3.3,1.1,3-.8-.2-1.1-.3-2.2-.6-3.4,1.4-3.1,2.9-5.7,6-7.9.7-.5,1.9-1.4,2.8-1.5,1.1-.6,1.5-.2,1.2,1.2,0,.7,0,1.3.1,2,0,1.2,0,2.5-.2,3.7-.3.8-.4,1.7-.4,2.7-.2.8-.3,1.5-.5,2.3-.4,1.5,1.9,2.1,2.3.6,0-.2.1-.5.2-.7.2-.2.3-.4.3-.6.4-4.9,5.2-7.4,9.3-8.7,2.8-.9,6.7-1.9,7.3,2.1.1.8,0,1.6-.4,2.3-1.2,1.1-2.2,2.4-3.1,3.7-.4.4-.7.7-1.1,1-.7.6-.6,1.4-.2,1.9.1.7,1,1.4,1.6.7.3,0,.6-.2.9-.4,1.6-1.5,3.3-3.1,4.4-5,2.3-1.8,5-2.9,7.8-2.2,4.4,1.2,5.8,6.3,3.3,9.7-.9,1.2.8,2.6,2,2,.6-.3,1-.7,1.4-1.1,5.7.6,11.3.6,17,.5,1.4,0,2.2-1.5,1.6-2.8-2.1-3.8-4.1-7.6-6.2-11.4,6.5-5.4,12.3,5.7,14.7,10.7.5,1,1.7.8,2.3.1.7,0,1.3-.4,1.2-1.3-.5-3.8-1.3-10.5,4.5-10.2,4.2.2,4.4,4.8,2.5,7.5-1,1.5,1.1,3.7,2.6,2.6.4-.3.7-.6,1-.9h.1c-.9,1.2-.4,3.2,1.4,3.2,7.1.2,14.4.5,21.7.4,24.1,1,48.4.9,72.5,1.5,30.1.7,60.2,1,90.3,1.2,3.3,0,3.3-5,0-5.1-.9,0-1.7,0-2.6,0-1.7-1.5-3.1-3.4-3.2-5.7,0-1.4.3-2.3.9-2.9,1.7-1.7,6,.6,7.3,1.3,6.4,3.3,9.9,9.2,10,9.1Z"/>
      <path class="cls-2" d="M716.6,10.3c-3.6,5.9-1.9,12.4,2,17.7.5.6-.4,1.5-1,1-1.4-1-2.6-2.3-3.5-3.9-3.7-6.3-3.1-16,2.9-20.2,4.8-3.4,7.8,2.1,9.4,5.9.9,2.1,1.5,4.2,1.9,6.4,2.9-4.8,7.6-8.5,13-8.7,6.9-.2,4.6,9.1,2,15.7,7-5.5,16.9-6.8,25.4-4.6,1,.2,1.3,1.2,1.2,2.1-.4,2.6-1.5,4.9-3.1,6.6,16-1.2,32.2-1.2,48.2-1.4-2.8-3.3-4.4-7.1-4.7-12,0-1.3,1.2-1.9,2.3-1.8,5.6.9,10.2,3.3,13.6,7.2-.2-5.6,2.3-11.6,7.2-14.2,5.9-3.1,8.3,4.8,9,11.1,3.8-4.9,9.4-8.5,15.8-5.1,3.1,1.7,4.9,5,4.3,8.6-.6,3.3-2.9,5.8-5.5,7.7,43.5-2.1,87.3-1,130.8-1.2,41.9-.2,83.7-.6,125.6-.4-5-4.1-8.1-10.5-2.2-15.8,3.2-2.9,7.3-2.2,10.1.9,1.6,1.8,2.8,3.8,4.1,5.8-1-6.3-.3-13.1,5.9-13.7,3.9-.4,7.3,2.5,8.7,6,1.5,3.8,1.3,7.6,2.3,11.2l2.9,2.1c-.5.5-1,1-1.5,1.4.2.4.5.8.7,1.1,1,1.4-.9,2.7-2.1,2.1-6-2.8-4.3-10.4-5.9-15.6-.8-2.5-3.9-6.3-6.4-2.2-.8,1.4-.5,4-.5,5.5,0,3,.3,5.9.7,8.9.5.8,1,1.7,1.4,2.6.8,1.9-1.4,4-3,2.3-2.5-2.4-4.3-5.6-6.3-8.5-1.3-1.9-4.1-7.8-6.9-7.3-4,.7-2.5,6.3-.8,8.2,1.7,2,4,3.3,6.1,4.9,3.5.5,3.3,6.1-.5,6.2-44.1.3-88.2-.2-132.3-.4-44-.3-88.4.9-132.3-1.4-.7,0-1.1-.5-1.3-1-1.9.9-3.5-2-1.7-3.3,2.1-1.5,5.1-3.7,5.5-6.5.4-2.9-2.1-4.5-4.6-4.7-5.5-.5-8.9,5.3-11.8,9.1-1.2,1.6-3.5.3-2.8-1.5,0-.2-.2-.4-.2-.6-.4-2.7-.4-5.4-1.1-8.1-.2-.6-.8-3.9-1.5-4.2-1-.4-1.8.9-2.3,1.5-2.8,3.6-3.6,8.3-2.7,12.7.2,1-.2,1.6-.8,2,0,1.5-2.3,2.5-3.1.8-1.3-2.7-3.3-6.4-6.2-7.7-2-2.4-3.7-1.8-5.2,1.9l5,5.2c1.5,1.1,1,3.5-1,3.6-19.3.6-38.7,1.6-57.9.8-.8.3-1.7.6-2.6.7-2.1.3-2.9-2.9-.9-3.1,3.8-.5,6.9-2.8,7.9-6.5-8.9-1.8-16.5.9-24.1,5.8-.3.2-.6.2-.9.2-.3.5-.6,1-.7,1.4-.7,1.1-2.7.4-2.2-.9,1.2-3,2.6-5.9,3.5-9,.4-1.4.7-2.9,1-4.4.5-3-1.5-4.3-4-3.1-4.7,2-8.1,5.8-10,10.4,0,1.9-.1,3.8-.4,5.7-.3,2-3.3,1.1-3-.8,0-.6.1-1.1.2-1.7,0-.1,0-.3,0-.5,0-.4,0-.9.2-1.3,0-3.1-.3-6.2-1.2-9.2-1.1-3.4-4.2-10.6-7.8-4.6Z"/>
      <path class="cls-2" d="M713.5,25.5c1,1.6,2,3.1,2.9,4.2.8,1-.2,2.5-1.4,1.8-4.2-2.5-5.2-7.7-8.6-11-2.6-2.5-8.5-3.6-8.2,1.6.1,2.3,1.5,4.2,3.2,5.7.9,0,1.7,0,2.6,0,3.3,0,3.3,5.1,0,5.1-30.1-.2-60.2-.5-90.3-1.2-24.1-.6-48.4-.5-72.5-1.5-7.3,0-14.6-.2-21.7-.4-1.8,0-2.2-2.1-1.4-3.1.3-.3.8-.6,1.4-.6,11.7-.4,24-.9,35.6.3.5,0,.8.2,1,.5,19.2,0,38.4.3,57.5.2,27.6,0,55.3.2,82.9.6-1.1-1.3-2-2.8-2.2-4.6-.5-3.3,1.1-6.8,4.4-7.9,6.8-2.4,11.1,4.6,14.7,10.2Z"/>
      <path class="cls-2" d="M423.6,26.3c.6,1.3-1,2.8-2.1,1.6-4.2-4.9-7.5-11.1-14.4-12.5-3.1-.6-7.3-.6-6.5,4.5.2,1,1.1,2.2,1.6,3.1,1.7,2.8,3.7,5.2,7,5.8,1.5.3,1.4,2.1.5,2.8,0,1.2-.6,2.5-2.2,2.4-28-.8-56-2-84-2-26.5,0-53.1,1.1-79.6.8-2,1.1-4,2-5,2.4-1.9.7-3.2-2.5-1.4-3.2.3-.1.8-.3,1.3-.5.1-.2.4-.4.7-.4.2,0,.4,0,.6,0,2.3-.8,5-1.9,5.7-3.1.2-1.5.3-2.9.5-4.3l-2.5-.3c-1.1,0-2.3,0-3.5,0-4.7.2-9.1,1.5-13.3,3.5-1.6,1.6-3.3,3-4.8,4.3-1.5,1.3-3.5-.3-2.7-2,1.4-3,4.4-4.4,6.8-6.6,3.1-2.8,6.4-10-1.6-9.3-7.2.6-12.8,7.4-16.6,12.8,0,.1-.2.2-.3.3,0,0,0,.2,0,.2-.5,1.7-3.1,1-2.7-.7,1.6-6,4.3-19.8-6.2-18.7-4.8.5-3.8,5.6-3.7,9.2,0,2.7.2,5.4.2,8.1s0,3.5-.1,5.2c.2.7.4,1.5.6,2.3.3,1.4-1.8,1.9-2.1.6,0-.5-.2-1-.3-1.5-.5,0-.9-.4-1-1-.2-1.1-.3-2.2-.4-3.3-2.4-6.2-6.6-12.8-12.5-14.4-7.2-2-3.4,7.3-1.8,10.4,1.8,3.6,4.3,6.6,7.3,9.3,1,.9-.3,2.6-1.4,1.8l-.6-.5h0c0,0-.1-.1-.2-.2-4.5-3.4-8-8-9.8-13.3-1.3-3.7-2.5-9.4,2.6-10.5,4.6-1,9,3,11.8,6.1,1.6,1.7,3,3.6,4.2,5.6,0-1-.1-2-.2-3-.2-3.1-.9-6.7.2-9.7,1.2-3.3,4.5-4.8,7.8-4.6,8.7.6,10.4,8.2,9.8,15.4,1.7-2.1,3.8-3.9,6-5.3,3.5-2.2,9.6-5,13.7-3.1,3.3,1.5,4,5.7,3.1,8.9-.2.7-.5,1.3-.8,2,1.8-.5,3.5-1,5.3-1.2,3.6-.5,9.3-1.1,12.6,1.1,4.4,3,2.1,6.4-1.5,9.1,25.1-2,50.5-1.9,75.7-2,26-.1,52.1-.2,78.1.8-1.4-1.2-2.6-2.8-3.7-4.5-2.2-3.6-4.7-8.7-.5-11.8,7.2-5.2,15.2-.4,20.8,5.8,0-.8.2-1.6.4-2.4.8-2.3,3-4.1,5.4-4.3,2.6-.3,4.5,1.3,5.5,3.6.5,1.2.9,2.5,1.3,3.9,1.9-3.4,5.1-6.2,8.2-7.6,4.7-2,5.8,1.4,5.7,5.6,3.2-2.8,7.9-4.6,11.4-5,3.8-.5,6.8,1.4,7.4,5.3,0,.3,0,.6,0,1,3.1-1.5,6.5-1.9,9.8,0,3.3,1.9,5.9,6.8,4.9,10.6,4.2-.4,8.3-.6,12.5-.6-1.8-3.3-3.5-6.6-5.3-9.9-.4-.7-.3-1.5.3-2.1,6.7-7.1,13.8-1.5,17.9,5.1,0-1.8.5-3.6,1.6-5.1,1.9-2.4,5.1-3.6,8.1-3.1,6,.9,8.5,8.8,4.7,13.1-.3.3-.6.6-1,.9-1.5,1.1-3.6-1.1-2.6-2.6,1.9-2.7,1.8-7.3-2.5-7.5-5.8-.2-5,6.4-4.5,10.2,0,.9-.6,1.3-1.2,1.3-.6.7-1.9.9-2.3-.1-2.4-4.9-8.2-16-14.7-10.7,2.1,3.8,4.1,7.6,6.2,11.4.7,1.2-.2,2.7-1.6,2.8-5.7,0-11.3,0-17-.5-.4.4-.8.8-1.4,1.1-1.2.6-2.9-.7-2-2,2.5-3.5,1.2-8.5-3.3-9.7-2.8-.8-5.5.4-7.8,2.2-1.1,1.9-2.8,3.6-4.4,5-.3.2-.6.4-.9.4-.6.6-1.5,0-1.6-.7-.4-.6-.5-1.3.2-1.9.3-.3.7-.6,1.1-1,.8-1.3,1.9-2.6,3.1-3.7.4-.7.6-1.5.4-2.3-.6-4-4.5-3.1-7.3-2.1-4.2,1.4-8.9,3.8-9.3,8.7,0,.2-.1.5-.3.6,0,.3-.1.5-.2.7-.4,1.5-2.7.8-2.3-.6.2-.8.4-1.5.5-2.3,0-.9.1-1.8.4-2.7.2-1.2.2-2.4.2-3.7,0-.7,0-1.3-.1-2,.3-1.4-.1-1.8-1.2-1.2-.9.1-2.1,1-2.8,1.5-3.1,2.1-4.6,4.8-6,7.9.2,1.1.4,2.3.6,3.4.3,2-2.3,2.8-3,.8-.8-2.2-1.4-4.6-2-6.9-.4-1.5-.6-3.9-1.6-5.2-1.6-2-3.8.6-4.1,2.2-.4,2.2.4,4.5,1.1,6.5,0,0,0,.2,0,.3.2.3.4.7.5,1Z"/>
      <path class="cls-2" d="M1193.9,31c-3.5,1.5-7.8,1.5-11.5,1.3-1.7,0-2.2-2-1.4-3-.1-.7.3-1.5,1.3-1.6,2.8-.3,5.7-.5,8.5-.7,1.9-6.3.7-9-3.6-8.1-2.6-.4-8.2,1.2-11,1.9-6,1.4-11.5,3.6-17.1,6.2-.6.5-1.1,1-1.6,1.5,0,.5-.3,1-.8,1.4-1,.8-2.1,1.5-3.2,2.2-2,1.3-4.3-1.7-2.5-3.3,2.5-2.3,5-4.5,7.4-6.8,1-.9,2.5-2,2.8-3.3.8-3-2.1-3.4-4.1-2.8-5,1.5-8.5,4.3-12,7.6l-2.9-2.1c2.3-3.2,5.8-5.8,9.2-7.6,3.1-1.6,7.9-3.7,11.4-2.3,4.7,1.9,4.2,5.5,1.9,9.1,4.8-2.1,9.7-3.7,14.8-4.8,4.9-1.1,12.6-3.1,17.2.2,3.4,2.4,4,6.7,2.2,10.3,32.3-2,65.1-1.2,97.4-1.8,38-.7,75.9-1.9,113.9-2.1,3.5,0,3.5,5.3,0,5.4-.8,0-1.6,0-2.4,0,2.8,18.3,5.4,36.6,7.6,54.9,10,80.5,15,161.5,15.6,242.7.3,39.9-.6,79.9-2.7,119.7-.6,10.6-1.1,21.2-1.9,31.8-.4,6-.7,12.4-4,17.6-7.5,11.9-26.3,8.3-38.1,8.3-164.2-.2-328.3-.3-492.5-.5-165.2-.2-330.4-.6-495.6-.7-81.7,0-163.3,0-245-.4-41.1-.2-82.1-.4-123.2-.8-20.2-.2-40.4-.5-60.6-.8-11.4-.2-27.3,1.9-34.8-9-4-5.8-4-13.7-4.5-20.4-.7-9.3-1.2-18.6-1.7-27.9-1.1-20.5-1.8-41-2.3-61.5-.8-39.8-.4-79.6,1.3-119.4,3.2-75.6,9.8-152,23.8-226.5-1.4-.3-1.4-2.5.1-2.4h.3c.6-3,1.1-6,1.7-8.9.1-.6.4-1,.7-1.2.9-.7,3.2.7,3.4,2.4,0,.6,0,1.1-.2,1.4,12.3-.4,30.7-1,53.2-1.3,21.3-.2,38.7-.1,91.8.7,20.8.3,46.9.7,77.3,1.3.5.8,1,1.7,1.5,2.5-30.9.6-57.2,1.1-77.6,1.4-34.1.5-41.8.5-52,.4-20.7-.4-30-1.2-53.2-1.5-17.8-.3-32.2-.1-41.5,0-2,13-4.7,31.6-7.5,53.9-15.6,122.2-17.3,212.7-17.5,231.9-.5,38.6,0,77.1,1.9,115.6.5,9.9,1,19.9,1.6,29.8.5,8.2-.9,21.8,5.4,28.2,6.4,6.6,20.3,4.7,28.6,4.8,9.5.2,19,.3,28.4.4,157,2,314,1.5,470.9,1.5s315.1,0,472.6,0,158.5,0,237.7,0h117.9c19,0,38,0,57,0,10.8,0,21.6,0,32.3,0s19.8,2.2,27.1-1c10.5-4.6,8.5-21.7,9.1-31.1.6-8.7,1-17.4,1.5-26.2,1-19.9,1.7-39.9,2.1-59.8.8-38.7.6-77.4-.9-116-2.9-78.3-10.6-156.3-22-233.8-35,.9-70,1-105,1.6-33.9.5-68.4,2.7-102.4,1.4Z"/>
    </g>
    <path class="cls-2" d="M275.7,234.8c-4.1-2.8-8.6-1.1-12.1,1.9-.9-2.9-3.1-5.7-5.5-6.5-4.2-1.5-9.2.2-12.2,3.5-.5-2.3-1.4-4.6-3-6.2-2.4-2.4-6.2-3.7-9.3-1.9-2.8,1.5-3.9,4.8-3.5,7.8.5,3.9,3.6,6.6,6.5,8.9-3.2-.6-5.7-5.4-8.1-7.1-3.1-2-7-1.4-8.9,1.8-2,3.3-1.6,7.8,1,10.6,3.5,3.7,8.9,4.1,13.6,4.4,1,0,1.3-1.6.2-1.8-3.8-.8-8.4-1.7-11-4.8-2-2.4-1.7-9.2,2.8-8,4.6,1.1,6.8,8.7,12.4,6.7,1.1-.4.7-2.1-.5-1.8-.3,0-.6,0-.9,0,.2-.1.3-.4.2-.6-2.1-3-6.5-9.3-2.4-12.7,2.5-2,5.6.6,6.6,2.8,1.1,2.3,1.1,5,1.5,7.5.3,1.9,3.1,1.3,3.2-.4,0-.3,0-.7,0-1.1,2.1-3,4.6-5.6,8.8-5.4,2.4,0,4.4,1.3,5.1,3.7.7,2.1-.4,3.3-1.2,5.1-.6,1.3.4,2.5,1.6,2.3.6.3,1.4.2,1.9-.4,2.2-2.5,6-6.6,9.8-5.3,1.2.4,2.2,1.6,2.5,2.8.4,1.5-.3,2-1.1,3.2-1,1.4.7,3.4,2.2,2.9,5.5-1.8,3.3-9.5-.4-12Z"/>
    <path class="cls-2" d="M132.4,382.9c-.4-2.9-2.5-5.1-5.4-5.8-4.4-1.1-7.7.8-10.2,3.8-.5-3.9-2.3-7.4-6.9-7.9-7.1-.7-9.3,6.2-9.7,12.1-3-2.4-5.9-4.7-9-6.9-1.1-.8-2.4,0-2.8,1.1-1.9,5.5,1.4,11.4,7.1,12.4,1.2.2,1.6-1.4.5-1.8-3-1.2-4.6-3.9-4.5-6.8,3.1,2.2,6.2,4.5,9.2,6.8,1.1.9,3.1.4,3-1.3-.2-3.3-.8-9.7,2.9-11.4,1.2-1.4,2.5-1.1,4,.9,2.7.3,3.8,1.7,3.4,4.2,0,2-.7,4.1-1.2,6.1-.5,2.2,2.8,3.1,3.4.9,0-.3.2-.7.3-1.1,1.1-2,2.2-4.1,3.9-5.7,1.8-1.7,5.6-3.1,7.5-.6,1.6,2-.2,5.4-.6,7.6-.4,2.1-.4,4.2.8,6,1.4,2.1,4.5.3,3.4-2-1.6-3.2,1.4-7.4.9-10.9Z"/>
    <path class="cls-2" d="M829.6,381.3c-5.4-2.2-11.5,2.5-15.4,7.5,0-5.9-1.4-12.2-8.4-9.4-3.9,1.6-7.7,4.2-9.6,7.7-1.1-4.3-2-9-7.3-8.7-8,.4-7.2,9.3-5.2,14.8-1.2-2.5-2.9-4.9-4.4-6.8-1.6-2.1-4.6-4.3-7.3-2.6-6.1,3.8,1.4,14,4.7,17,1.2,1,2.7-.5,1.7-1.7-1.5-1.8-2.9-3.8-3.8-6-.4-1-2.8-6.9.4-6.1,1.8.5,3.4,4.1,4.2,5.5,1.3,2.2,2.2,4.6,3.7,6.6,1,1.3,3,.6,2.6-1.1-.2-.9-.5-1.9-.9-2.8.9,1.1,2.9,0,2.5-1.4-.4-1.2-.7-2.3-1.1-3.5-1.4-3.6,0-6.2,4.4-7.8,1.7,1.1,1.9,3.9,2.3,5.6.6,2.8,1.2,5.1,3,7.4,1.3,1.7,3.6-.2,3.3-1.9-1-4.5,3.7-9,7.7-10.3,4-1.3,3.6,1.1,3.8,4.4.2,2.3,0,4.5,0,6.8,0,.9.5,1.4,1.2,1.6.7.6,1.8.6,2.5-.5,2.4-3.7,5.3-6.8,9.2-8.9,2.4-1.3,6-1.9,5.4,2-.4,2.5-2.9,4.2-4.4,5.9-1.6,1.8.5,5,2.7,3.5,4.9-3.3,10.7-13.5,2.5-16.9Z"/>
    <path class="cls-2" d="M1012.4,177.3c-5.7-3.3-11.3-.4-16.1,3.3.3-1.9.3-3.9-.3-5.7-1.1-3.3-4.2-5.5-7.6-5.6-6.5-.3-10.4,4.7-11.9,10.3-3-4.4-7.8-8-12.8-5.3-2.3,1.3-3.7,3.7-3.9,6.2-1.3-1.5-2.7-2.8-4.4-3.6-3.1-1.6-7.5-1.9-10.1.8-7.9,8.3,9.6,18,15.3,20.2,1.5.6,2.3-1.7,1.1-2.5-3.2-2-6.4-3.9-9.4-6.3-1.4-1.1-2.9-2.3-3.8-3.8-1.4-2.2-1.4-5.4,1.8-5.7,6.6-.6,9.2,8.4,13.9,11.5,1.6,1.1,3.5-1.3,2.1-2.7-.2-.2-.5-.5-.7-.8.2-.5.2-1-.2-1.4-2.4-2.1-2.1-7.5,1.4-8.2,4.7-.9,7,5.9,8.7,8.9,1.2,2.1,4.5.7,3.8-1.6,0-.2-.1-.4-.2-.6,1.2-4.4,2.5-9.9,7.7-10.8,7.1-1.2,4.7,7.5,3.4,11.3-.8,2.4,3.1,4.1,4.2,1.8.1-.2.2-.5.3-.7,3.6-1.9,6.8-5.2,10.7-5.7,1.8-.2,4.4.1,5.6,1.8,1.9,2.8-2.2,5-4.1,6.2-2.6,1.7-.3,5.5,2.4,4.1,5.9-3,10.7-11,3.1-15.4Z"/>
    <path class="cls-2" d="M1266.4,296.8c-3.8-3.6-11.3-.2-16.8,2.5.8-4,.1-8.2-4.6-9.4-4.8-1.3-8.9,3.6-11.2,8.2-2.6-5.6-7.7-11.1-14.2-8-5,2.4-5.3,7.8-4.1,12.7-5.9-3.6-13-4.9-19.8-3.2-1.2.3-1.5,1.6-1.1,2.7,2.9,6.6,8.6,11.3,15.5,13.2,1.4.4,2-1.8.6-2.2-5.5-1.7-9.7-5.2-12-10.3,7.4-.6,14.3,1.8,19.7,7.3,1.7,1.8,4.4-.9,2.7-2.7-.5-.6-1.1-1.1-1.7-1.7-.7-3.3-1.6-8.8,1.3-11,2.2-1.7,5.1-.4,6.8,1.4,1.9,2.1,2.6,4.9,3.7,7.4,1,2.4,4.5,1.7,4.2-.8,1-1.8,2.2-3.9,3.5-5,.5-.5.9-.9,1.4-1.4,4.8,1,6,3,3.6,6.1-.8,1.6.5,4.1,2.6,3.3,2.6-1,5.2-2,7.8-2.9l3.3-1.3c2.9-1.9,3.7-.6,2.3,3.9-2.4,1.8-.1,5.9,2.4,4.1,3.8-2.7,8.7-8.2,4-12.6Z"/>
  </g>
  <ellipse class="cls-1" cx="350.3" cy="270.2" rx="74.2" ry="23.3"/>
  <ellipse class="cls-1" cx="638.9" cy="323.9" rx="74.2" ry="23.3"/>
  <ellipse class="cls-1" cx="923.2" cy="252" rx="74.2" ry="23.3"/>
</svg>