<?xml version="1.0" encoding="utf-8"?>
<!-- Generator: Adobe Illustrator 27.9.4, SVG Export Plug-In . SVG Version: 9.03 Build 54784)  -->
<svg version="1.1" id="Calque_1" xmlns="http://www.w3.org/2000/svg" xmlns:xlink="http://www.w3.org/1999/xlink" x="0px" y="0px"
	 viewBox="0 0 683.8 163.6" style="enable-background:new 0 0 683.8 163.6;" xml:space="preserve">
<style type="text/css">
	.st0{fill:#BDFFFC;}
</style>
<path id="XMLID_189_" class="st0" d="M201.9,150.1c-21.8,0.5-42.4-1-64,1.3c-10.5,1.2-67.8,7.2-68.1-5.3c-10.6-4.1-22.4-2-33.8-1.4
	c-11.4,0.6-24.2-1.1-31.2-10c-5.2-6.7-5.8-16-4-24.3c2.2-10.4,8.6-20.6,18.6-24.4c10-3.8,23.3,1.2,25.8,11.6
	c1.5-7,5.3-12.6,11.1-16.7c7.1-5,17.9-5.8,23.9,0.5c-0.7-12.5,9.4-24.7,21.8-26.4c12.4-1.6,25.3,7.6,27.9,19.9
	c4.3-19.9,3.3-36.9,23.8-47.5c13.4-6.9,33.2-3.2,38.4,10.9c8.3-20.3,29.2-34.8,51.1-35.5c21.9-0.7,43.7,12.5,53.2,32.3
	c2.8-12.5,17-21.1,29.4-17.9c12.4,3.2,20.6,17.6,17.1,29.9c3.4-6.8,14.4-6.3,19.4-0.5c5,5.8,5.4,14.2,4.4,21.8
	c7.4-13.7,20.7-24,35.8-27.7c15.1-3.7,31.7-0.7,44.6,7.9c-6.7-12.5-2.7-29.2,7.8-38.7c10.5-9.5,26.2-12.1,39.9-8.4
	c13.7,3.7,25.4,13,33.9,24.3c1.8-11,16.6-21.3,27.2-15.3c8.8,5,15.2,22.5,16.5,31.7c7.4-13.6,25.9-20.2,39.6-11.7
	c13.3,8.3,16.7,28.9,6.7,41c4.5-5.5,13.6-5.4,19.1-0.9c5.5,4.5,7.5,12.2,6.7,19.2c-0.9,7-4.3,13.5-8.1,19.5c11-5.4,24.7-5,35.4,1.2
	c7.6,4.4,13.8,13.1,11.4,21.5c-2.8,9.7-14.8,12.9-24.9,14.3c-25.6,3.5-51.3,6-77,8.2c-23.8,2-47,5.4-70.4,8.1
	c-18.6,2.2-37.5-0.1-56.1-2.1C370.9,151.6,286.4,148.1,201.9,150.1z"/>
</svg>
