<?xml version="1.0" encoding="utf-8"?>
<!-- Generator: Adobe Illustrator 27.9.4, SVG Export Plug-In . SVG Version: 9.03 Build 54784)  -->
<svg version="1.1" id="Calque_1" xmlns="http://www.w3.org/2000/svg" xmlns:xlink="http://www.w3.org/1999/xlink" x="0px" y="0px"
	 viewBox="0 0 398.8 128.1" style="enable-background:new 0 0 398.8 128.1;" xml:space="preserve">
<style type="text/css">
	.st0{fill:#FFFFFF;}
</style>
<path id="XMLID_39_" class="st0" d="M136.6,71.4c-26.3,6.5-50.6,2.4-77.1,3.7c-19.8,1-39.6,2.1-59.4,3.1c9.4-2.8,18.9-5.6,28.3-8.4
	c-7.2-2.1-10.6-12.1-6.3-18.2c4.3-6.1,14.9-6.2,19.3-0.1C39.5,40,37.7,28,41.6,17.1c4-10.9,15.8-19.8,26.9-16.4
	c7.4,2.3,12.4,9.5,14.3,17s1.2,15.4,0.5,23.1c-0.6-8.4,6.3-16.7,14.7-17.5s16.8,6,17.8,14.3c1,8.4-5.6,16.9-14,18.1
	c4-2,8.6-3.2,13-2.3c4.4,0.9,8.4,4.6,8.6,9c0.2,4.5-4.4,8.8-8.7,7.4C122,70.5,129.3,70.9,136.6,71.4z"/>
<path id="XMLID_36_" class="st0" d="M386.8,128.1c-29.5-1.3-58.9-2.4-88.3-3c6.1-0.9,12.1-1.7,18.2-2.6c-14.3,3.1-2.9-15.8,0.8-10.6
	c-4.5-6.3-3.7-15.5,1.3-21.4c5-5.8,13.7-7.9,21-5.6c7.3,2.4,13,8.9,14.9,16.3c-0.9-4.9,0.5-10.7,4.9-13.1c4.4-2.3,11.2,1.4,10.2,6.3
	c0.8-6.6,9.1-10.7,15.3-8.3c6.2,2.4,9.7,9.8,8.9,16.4c-0.8,6.6-5.2,12.4-10.7,16.3c2.8-1.4,5.8-2.9,9-2.8c3.2,0.1,6.5,2.4,6.6,5.6
	c0,2.6-2.1,4.8-4.4,5.7C392,128.3,389.3,128.2,386.8,128.1z"/>
</svg>
