<?xml version="1.0" encoding="UTF-8"?><svg id="a" xmlns="http://www.w3.org/2000/svg" viewBox="0 0 30 30"><defs><style>.b{fill:#000;fill-rule:evenodd;stroke-width:0px;}</style></defs><path class="b" d="M16.9,11.85c.67-.34,1.53-.83,2.39-1.51.18.38.2.7.11.97-.07.19-.19.35-.35.48-.18.14-.4.24-.64.3-.46.1-1.01.04-1.5-.23M17.01,15.29l.89.52c-1.82,1.02-2.32,2.92-2.9,4.76-.59-1.85-1.08-3.74-2.9-4.76l.89-.52c.18-.07.29-.24.28-.43-.08-1.73.39-2.49,1.01-2.97.23-.17.47-.26.72-.26s.49.09.72.26c.63.48,1.1,1.24,1.01,2.97,0,.19.1.36.28.43h0ZM15,4c1.03.03,2.06.23,2.96.62.62.27,1.2.63,1.73,1.05.24.19.43.38.65.59.58.02,1.43-.62,1.82-1.23-.68,2.22-3.77,4.84-5.91,5.84,0,0,0,0,0,0-.38-.29-.82-.44-1.25-.44s-.86.15-1.25.44c0,0,0,0,0,0-2.14-1-5.23-3.62-5.91-5.84.39.6,1.24,1.25,1.82,1.23.22-.21.41-.4.65-.59.52-.43,1.1-.78,1.73-1.05.9-.39,1.93-.59,2.96-.62M13.1,11.85c-.67-.34-1.53-.83-2.39-1.51-.18.38-.2.7-.11.97.07.19.19.35.35.48.18.14.4.24.64.3.46.1,1.01.04,1.5-.23"/><path class="b" d="M20.23,9.51c.47-.48.89-1,1.22-1.48l.17.32c.55,1.1.83,2.19.83,3.41v1.95s0,1.01,0,1.01c.04,2.48.58,4.99,1.79,7.28l-2.54-2.05-1.8,2.92-1.89-1.78-3.02,4.9-3.02-4.9-1.89,1.78-1.8-2.92-2.54,2.05c1.22-2.3,1.75-4.8,1.79-7.28v-1.01s0-1.95,0-1.95c0-1.23.28-2.32.83-3.41l.17-.32c.33.47.75,1,1.22,1.48l-.15.31c-.29.6-.38,1.26-.16,1.89.14.41.41.76.75,1.02.33.26.72.43,1.13.53.27.06.54.08.8.08-.06.36-.09.72-.09,1.1l-2.4,1.39,1.85,1.04c.15.08.29.18.42.28,1.53,1.37,2.44,5.42,3.07,7.4.63-1.98,1.55-6.03,3.07-7.4.13-.11.27-.2.42-.28l1.85-1.04-2.4-1.39c0-.38-.03-.74-.09-1.1.27,0,.54-.02.8-.08.41-.09.8-.27,1.13-.53.34-.27.6-.62.75-1.02.22-.63.13-1.3-.16-1.89l-.15-.31h0Z"/></svg>