<?xml version="1.0" encoding="UTF-8"?>
<svg id="Calque_1" data-name="Calque 1" xmlns="http://www.w3.org/2000/svg" width="2071.8" height="204.4" version="1.1" viewBox="0 0 2071.8 204.4">
  <defs>
    <style>
      .cls-1 {
        fill: #41ad36;
      }

      .cls-1, .cls-2, .cls-3, .cls-4 {
        stroke-width: 0px;
      }

      .cls-2 {
        fill: #a0e05e;
      }

      .cls-3 {
        fill: #2c8a22;
      }

      .cls-4 {
        fill: #6bc744;
      }
    </style>
  </defs>
  <g>
    <path class="cls-1" d="M219,101.5c-4.3-4.9-11.8-6.6-18-4.9,16.4-20.6-11-61.4-34.8-38.6,7-6.7,12.4-14.9,15.9-24,1.8-4.7,3-10.3.3-14.5-3.5-5.4-11.5-5.6-17.6-3.5-9.2,3.2-16.7,10.3-20.9,19.1-.4-1-.8-1.9-1.4-2.8-3.8-5.9-12.1-8.6-18.6-6-3.3,1.3-6,3.8-7.7,6.9,1.1-7.5,1.4-15.1-1-22.2-1.3-3.9-3.6-7.7-7.3-9.7-6.6-3.5-15.2.5-18.9,6.9-3.8,6.4-3.7,14.3-2.7,21.7s2.8,14.7,2.3,22.1c-2.7-11.9-14.3-21.2-26.4-21-12.2.2-23.5,9.7-25.7,21.7-2.4-4.6-2.9-9.8-4.7-14.7-1.7-4.9-5.2-9.7-10.3-10.4-3.9-.5-7.8,1.7-10.2,4.9-2.3,3.1-3.3,7.1-3.6,11-1,13.2,5.4,26.6,16.2,34.2-5.7-2.9-10.6-7.3-16.5-9.9C4.8,66.6,2.3,66.2,0,66.5v98c1.9,1.2,4,2.3,6.2,3,8.7,3,18.1,3.4,27.3,3.6,30,.5,59.5-4.5,89.3-5.2,26.1-.6,49.4-2.5,73.3-14.9,9.4-4.8,18.5-10.9,23.9-20,5.4-9,6-21.6-1-29.5Z"/>
    <path class="cls-1" d="M1036.7,46.9c-8.7-2.8-20.1-1.8-28.5,2.3,8.9-4.5,13-16.9,8.1-25.5-4.2-7.3-14.5-10.4-22.2-6.9-10.8,4.9-9.1,15.4-9.1,25.5,0-9.5-8.9-17.9-18.4-17.7-7.4.2-14.1,5.6-16.6,12.4.3-2.4.5-4.8.3-7.2-.3-4.4-2-8.9-5.4-11.8-3.4-2.8-8.7-3.6-12.3-1-10.1,7.4.9,28.5,2.7,37.7-1.6-7.9-10.8-13.2-18.4-10.6-4.3,1.5-7.4,5.3-8.7,9.7-.4-3-1-5.9-2-8.8-2.2-6-6.5-11.5-12.6-13.4s-13.7.8-15.9,6.7c-1.5,4.1-.4,8.6.8,12.8,1.9,7,3.9,14.1,5.8,21.1-3.2-6.2-12.7-21.2-20.3-22.1-10.2-1.2-16.1,12.5-15.9,20.6,0,7.9,3.6,15.4,7.4,22.3-3.1-4.6-8.1-7.7-13.5-8.8,1.9-20.7-20.1-45-39.6-26.2,7-6.7,12.4-14.9,15.9-24,1.8-4.7,3-10.3.3-14.5-3.5-5.4-11.5-5.6-17.6-3.5-9.2,3.2-16.7,10.3-20.9,19.1-.4-1-.8-1.9-1.4-2.8-3.8-5.9-12.1-8.6-18.6-6-3.3,1.3-6,3.8-7.7,6.9,1.1-7.5,1.4-15.1-1-22.2-1.3-3.9-3.6-7.7-7.3-9.7-6.5-3.5-15.2.5-18.9,6.9-3.8,6.4-3.7,14.3-2.7,21.7s2.8,14.7,2.3,22.1c-2.6-11.9-14.2-21.1-26.3-20.9s-23.5,9.7-25.7,21.7c-2.4-4.6-2.9-9.8-4.7-14.7-1.7-4.9-5.2-9.7-10.3-10.4-3.9-.5-7.8,1.7-10.2,4.9-2.3,3.2-3.3,7.2-3.6,11.1-1,13.2,5.4,26.6,16.2,34.2-5.7-2.9-10.6-7.3-16.5-9.9s-13.6-2.8-17.9,1.9c-4,4.4-3.5,11.3-1.7,16.9,3.1,9.7,9.5,18.2,17.8,24.2,8.1,5.9,18.6,6.1,24.7,13.6,14.1,17.3,34.1,30.4,55.6,36.5,36.3,10.2,76.6,7.5,110.3-9.8,9.4-4.8,18.5-10.9,23.9-20,.7-1.1,1.3-2.3,1.8-3.6,21.5,21.6,49.6,22.4,77.2,21.5l-3,2.4c1.8-.1,3.6-.2,5.4-.4,4.3-.5,8.2-1.3,12-2.5,29-1,58.2-.2,87.4.7V46.9h-.5ZM837,96.6c.6-.8,1.2-1.6,1.7-2.4.3.6.6,1.3,1,1.9-1,0-1.9.2-2.7.5Z"/>
    <path class="cls-2" d="M1036.7,112.5c-8.1-4.3-19.3-.5-25.4,6.8-6.6,7.9-8.9,18.4-10.9,28.6,1.3-7.3,2.5-14.8.7-22-1.9-7.1-7.7-13.8-15.1-14.1-8.2-.3-14.7,7-18.3,14.4-5.8,12.2-7.1,26.5-3.6,39.5-3.1-5.1-6.3-10.4-11.4-13.4-5.1-3.1-12.6-3-16.2,1.7-2.9,3.8-2.4,9.1-1,13.6,2.1,6.7,6.1,12.8,11.3,17.6-5.6-2.7-11.9-3.8-18.1-3.2-1,.1,8.6,14.9,9.8,16,2.6,2.4,5.2,3.8,8.1,5.1h90.1v-90.6Z"/>
    <path class="cls-1" d="M459,116.7c-9,1.7-19.1,1.6-26.2,5.6-19.8,11.1-34.3,26-58.2,28.7-24.7,2.7-62.3-5.6-80.2-24.1-4.1-4.3-24.1-42.8-23.3-42.9,8.1-1.4,16.8,2.3,21.4,9.1-3.8-7-7.2-14.4-7.4-22.3-.1-8.1,5.7-21.8,15.9-20.6,7.6.9,17.2,15.9,20.3,22.1-1.9-7-3.9-14.1-5.8-21.1-1.2-4.2-2.3-8.7-.8-12.8,2.2-6,9.9-8.7,15.9-6.7s10.4,7.5,12.6,13.4c2.2,6,2.5,12.4,2.8,18.8-3.6-7.1.4-17.1,8-19.7s16.8,2.7,18.4,10.6c-1.8-9.2-12.8-30.3-2.7-37.7,3.6-2.6,8.9-1.9,12.3,1,3.4,2.8,5.1,7.4,5.4,11.8.3,4.4-.5,8.9-1.3,13.2-.3-9.5,8.2-18.3,17.6-18.5,9.5-.2,18.2,8.3,18.4,17.7,0-10.1-1.7-20.5,9.1-25.5,7.6-3.5,18-.4,22.2,6.9,5,8.7.9,21.1-8.1,25.5,18.3-9.2,51.2-3,38.5,24.7-3.3,7.2-9.4,12.8-15.6,17.7,6.8-1.6,11.4,8.4,8,14.5-3.5,6.7-10,9.2-17.2,10.6Z"/>
    <path class="cls-4" d="M370.8,192.9c7.4,3.7,16.2,5.3,22.7,10.2h365.6c5.6-9.8,6.6-22.4.8-32.1-9.4-15.6-33.6-19-47.5-7.6,7.5-7.7,12.2-18,13-28.8-10.9-2.1-22.7.9-31.2,8,11.1-10.2,18.4-25.1,17.4-40.1s-11.3-29.5-25.8-33.8c-14.5-4.2-32,3.7-36.7,18.1,1.1-18-12.4-35.7-30.1-39.4-17.6-3.7-37.1,7.1-43.3,24-2.3-20.5-7.2-44.7-26.3-52.6-16.6-6.9-36.2,3.4-45.9,18.5-8.6,13.3-11.3,29.4-13.1,45.2-1.5-9.8-14.3-18-23.8-12.8-10,5.4-10.9,20.8-3.6,29.2-11.8-9-29.1-10.5-42-3-13.2,7.6-20.6,23.8-18.3,38.8-2.9-6.8-13.5-9.8-20.1-5.4-7.7,5.3-9.4,16.4-6.3,25.3,3.1,8.8,9.7,15.8,16.2,22.5-4.5-4.5-9.3-9.2-15.3-11.2-6-2.1-13.8-.7-17.1,4.7-4.9,8,2.4,18.2,10.7,22.3Z"/>
    <path class="cls-4" d="M84.1,197.6c4.4,2.2,9.3,3.5,13.7,5.5h302.7c3.3-7.4,3.5-16.3-.8-23.3-7.6-12.7-27.3-15.4-38.5-6.2,6.1-6.2,9.9-14.6,10.5-23.3-8.8-1.7-18.4.7-25.3,6.5,9-8.2,14.9-20.4,14.1-32.6-.8-12.2-9.1-24-20.9-27.4-11.7-3.4-26,3-29.8,14.7.9-14.6-10.1-29-24.4-31.9-14.3-3-30.1,5.8-35.1,19.5-1.9-16.6-5.9-36.2-21.3-42.6-13.4-5.6-29.4,2.8-37.3,15-7,10.8-9.2,23.8-10.7,36.7-1.2-8-11.6-14.6-19.3-10.4-8.1,4.4-8.8,16.9-2.9,23.7-9.6-7.3-23.6-8.5-34.1-2.5-10.7,6.2-16.7,19.3-14.8,31.5-2.4-5.5-11-8-16.3-4.3-6.3,4.3-7.6,13.3-5.1,20.5s7.9,12.8,13.2,18.3c-3.7-3.7-7.5-7.4-12.4-9.1-4.9-1.7-11.2-.6-13.9,3.8-4,6.3,2,14.5,8.7,17.9Z"/>
    <path class="cls-4" d="M717.6,199.5c2.9,1.5,6.1,2.5,9.1,3.6h278c2.4-6.4,2.3-13.8-1.2-19.7-6.9-11.5-24.7-14-34.9-5.6,5.5-5.6,9-13.3,9.6-21.1-8-1.6-16.7.7-22.9,5.9,8.2-7.5,13.5-18.4,12.8-29.5-.8-11.1-8.3-21.8-18.9-24.9-10.6-3.1-23.5,2.7-27,13.3.8-13.2-9.1-26.2-22.1-28.9-12.9-2.7-27.3,5.2-31.8,17.7-1.7-15.1-5.3-32.8-19.3-38.6-12.2-5-26.6,2.5-33.8,13.6-6.3,9.8-8.3,21.6-9.7,33.2-1.1-7.2-10.5-13.2-17.5-9.4-7.3,4-8,15.3-2.7,21.5-8.7-6.6-21.4-7.7-30.9-2.2-9.7,5.6-15.2,17.5-13.4,28.5-2.1-5-9.9-7.2-14.8-3.9-5.7,3.9-6.9,12.1-4.6,18.6,2.2,6.5,7.2,11.6,11.9,16.6-3.3-3.3-6.8-6.7-11.3-8.3-4.4-1.5-10.1-.5-12.6,3.5-3.4,5.6,1.9,13,8,16.1Z"/>
    <path class="cls-2" d="M567,197.6c1,2,2,3.8,3.1,5.5h219.2c1.6-1,3.2-2.1,4.6-3.4,5.4-5,8.3-13.5,4.6-19.9-2.8-4.9-8.8-7.4-14.5-7.4s-11.1,2.2-16.2,4.7c8.2-5.9,14.9-14.6,16.3-24.7,1.4-10-3.3-21.2-12.4-25.5-9.1-4.4-22,0-24.9,9.8,1.9-7.8,3.7-15.8,3.3-23.8s-3.4-16.3-9.7-21.3c-9.4-7.4-23.4-5.7-33.8,0-14.6,8.1-25,23.4-27.1,40-2.7-8.1.3-16.9.7-25.5.3-8.6-4.7-19.1-13.2-18.5-5.5.4-9.6,5.3-12.6,9.9-10.4,16.2-16.9,34.7-19.1,53.8-12.2-11.7-12.5-35.3-28.7-40.2-11.3-3.4-23.2,6.3-26.6,17.7s-.6,23.5,2.2,35c-2.5-6.4-5.2-13.1-10.3-17.7-5.1-4.6-13.4-6.5-18.9-2.3-6.6,5.1-5.6,15.4-2.4,23.1,4.2,10.7,11.3,20.3,16.4,30.6Z"/>
    <path class="cls-2" d="M162.5,184.5c-2.2-4-7-6-11.6-5.9-4.5,0-8.9,1.8-13,3.8,6.6-4.7,11.9-11.7,13-19.7s-2.6-16.9-9.9-20.4c-7.3-3.5-17.6.1-19.9,7.9,1.5-6.3,3-12.6,2.7-19.1-.3-6.4-2.7-13.1-7.8-17.1-7.5-6-18.7-4.5-27.1,0-11.7,6.5-20,18.8-21.7,32-2.2-6.5.3-13.6.5-20.4.3-6.9-3.7-15.3-10.6-14.8-4.4.3-7.7,4.2-10,7.9-8.3,12.9-13.6,27.8-15.3,43.1-9.8-9.3-10-28.3-23-32.1-3-.9-6-.6-8.9.4v73h155.1c1.3-.8,2.5-1.7,3.7-2.7,4.4-4.1,6.7-10.9,3.8-16Z"/>
    <path class="cls-2" d="M309.9,203.1h159.5c.2-.1.4-.2.5-.3,7.9-5.1,14.4-12.8,16.4-22s-1.4-19.7-9.4-24.7c-5.6-3.5-13.4-3.4-18.9-.1,5.4-8.7,3.9-21.9-4.8-28-9.6-6.7-24.4-2.1-29.7,7.9,2.1-5.9,4-11.9,4.2-18.1.3-7.8-2.3-16.1-8.5-20.7-9.8-7.4-24.7-2.8-32.6,6.6-7.9,9.3-10.5,21.9-12.9,33.9,1.5-8.6,3-17.6.8-26.1s-9.2-16.4-17.9-16.8c-9.8-.4-17.5,8.3-21.7,17.1-6.9,14.5-8.5,31.4-4.2,46.9-3.6-6-7.5-12.3-13.5-15.9-6-3.6-14.9-3.6-19.2,2-3.4,4.5-2.8,10.8-1.2,16.2,2.5,8,7.2,15.2,13.4,20.9-6.6-3.2-14.2-4.5-21.5-3.8-1.1.1,10.2,17.6,11.7,19.1,3,2.7,6.1,4.4,9.5,5.9Z"/>
    <path class="cls-4" d="M717.7,143.3c-2-1.5-4.5-1.9-6.9-1.3,1.6-8.5.5-19-10.4-18.4-7.4.4-13.1,5.5-15.7,12-1.9-3.9-5.8-6.4-10.8-5.8-7.2,1-10,7.8-9.6,14.4,0,1.8,2.9,1.8,2.8,0-.2-3.5,0-8.7,4-10.5,6.1-2.7,12.2.8,12.2,7.8s2.6,1.8,2.8,0c.6-6.4,4.4-11.9,10.5-14.2,12.2-4.6,13,8.4,11,16.3-.3.3-.7.6-1,1-1.1,1.4.9,3.4,2,2,0-.1.2-.3.4-.4.4-.1.8-.3,1-.8,1.7-1.1,4.1-1.3,5.9,0,2.6,1.8,2.8,5.4,1.3,8-.9,1.6,1.5,3,2.4,1.4,2.1-3.7,1.7-8.8-1.9-11.5Z"/>
    <path class="cls-4" d="M628.9,146.1c-6.2-1.4-8.7,4.1-9.6,9.4-2.7-4.6-6.8-9.8-11.9-6.5-6.1,3.9-3.9,13,.4,17.2,1.3,1.3,3.3-.7,2-2-1.7-1.7-2.9-3.5-3.2-6-.3-3.2.8-9.9,7-5.9,2.5,1.6,4.2,6.1,5.5,8.7.7,1.2,2.6.6,2.6-.7,0-3.6-.3-9.3,3.7-10.9,6.2-2.6,8,7.7,6.3,10.5-.9,1.5,1.5,3,2.4,1.4,2.7-4.5.5-13.9-5.2-15.2Z"/>
    <path class="cls-4" d="M709.3,173.7c-4.9,1.5-11,7.5-9.1,13.1.6,1.7,3.3,1,2.7-.7-1.3-3.8,3.5-8.3,6.8-9.5,4-1.4,7.8,1.4,8.4,5.4.3,1.8,3,1,2.7-.7-.7-5.4-6.2-9.2-11.5-7.6Z"/>
    <path class="cls-4" d="M407.2,140.4c-2.4-2.9-7.6-3.7-10-.7-1.1-5.3-6-10.5-11.2-11.3-5.1-.8-9.5,3.8-11.3,8.8-2.3-1.7-5.5-2.3-8.3-1-5.4,2.5-8.4,10.7-3.9,15.4,1.3,1.3,3.2-.7,2-2-2.8-2.9-1-7.9,1.8-10.1,2.3-1.8,6-1.4,7.7.7-.1.9-.1,1.8,0,2.6.1.5.4.8.8.9v.2c-.4,1.8,2.3,2.5,2.7.7.4-1.9.1-3.6-.7-5.1.9-4.9,6.3-10.1,11-7.6,3.6,1.8,7.5,6.4,6.8,10.6-.3,1.8,2.4,2.5,2.7.7v-.4c.6.2,1.2.1,1.5-.6,1-2.3,4.1-2.3,5.8-.7,1,1,1.5,2.3,1.8,3.7.1.2.6,4.4.2,4.3-1.8-.1-1.8,2.7,0,2.8,5.4.6,2.4-9.8.6-11.9Z"/>
    <path class="cls-4" d="M361.2,170.1c-2.4-8.7-13.1-8.7-16.3-2-4.5-4.6-14.6.5-10.2,8.3.9,1.6,3.3.2,2.4-1.4-3.4-6,6.1-7.8,6.9-2.1.2,1.6,2.8,1.2,2.8-.4-.2-7.4,9.7-9.1,11.7-1.7.5,1.8,3.2,1.1,2.7-.7Z"/>
    <path class="cls-4" d="M1028.6,150.3c-2-2.5-6.4-3.1-8.4-.6-.9-4.5-5.1-8.9-9.5-9.5-4.3-.7-8,3.2-9.5,7.4-1.9-1.5-4.6-2-7-.8-4.6,2.1-7.1,9-3.3,12.9,1.1,1.1,2.7-.6,1.7-1.7-2.4-2.5-.9-6.6,1.5-8.5,2-1.5,5.1-1.2,6.5.6,0,.8,0,1.5,0,2.2,0,.5.3.7.7.8v.2c-.3,1.5,1.9,2.1,2.3.6.4-1.6,0-3-.6-4.3.8-4.2,5.3-8.5,9.3-6.4,3,1.6,6.3,5.4,5.7,9-.2,1.5,2,2.1,2.3.6v-.3c.5.2,1,.1,1.3-.5.8-1.9,3.5-1.9,4.9-.6.9.8,1.3,2,1.6,3.1,0,.2.5,3.7,0,3.7-1.5-.1-1.5,2.2,0,2.4,4.5.2,1.9-8.5.4-10.3Z"/>
    <path class="cls-4" d="M989.9,175.3c-2-7.4-11.1-7.3-13.8-1.7-3.8-3.9-12.3.4-8.6,7,.7,1.3,2.8.1,2-1.2-2.8-5,5.1-6.6,5.8-1.8.2,1.3,2.3,1,2.3-.3,0-6.3,8.2-7.7,9.9-1.5.5,1.6,2.8,1,2.4-.5Z"/>
    <path class="cls-1" d="M525.6,91.4c-1.4-3.6-3.6-6.2-7.6-6.5-7.2-.6-13.8,5.4-15.1,12.2-2.5-2.9-5.5-5.8-8.9-7-4.1-1.5-7.8.6-11,3.1-6,4.5-6.9,14.5-1.9,20.3,1.2,1.4,3.2-.6,2-2-1.7-2-2.3-6.3-2.3-8.8,0-4.2,2.6-6.7,5.9-8.6,6.8-4.1,12.7,2.9,16.7,8,1,1.3,2.8-.3,2.2-1.7-.4-5.6,3.4-10.6,8.8-12.3,4.1-1.2,7.3.6,8.8,4.5.9,2.4,3.4,7.5,1.9,9.9-1,1.5,1.4,2.9,2.4,1.4,2.4-3.6-.4-8.8-1.9-12.5Z"/>
    <path class="cls-1" d="M594.5,83.7c-3.7-.6-7.6.3-10.3,2.5-.6-8.2-3-18.9-11.2-18.2-7,.5-17,10.9-11.9,17.9,1.1,1.4,3.5,0,2.4-1.4-4.5-6.2,9.3-18.5,14.4-11,2.9,4.3,3.6,10.7,3.7,16.1-.5,1-.8,2.2-.9,3.5,0,1.5,1.8,1.7,2.5.7.6,0,1.1-.5,1.1-1.3v-2.3c1.5-2.4,4.4-3.6,7.4-3.8,2.8,0,9.9,2.4,5.9,6.1-1.3,1.2.7,3.2,2,2,4.6-4.4-.2-10.1-5.1-10.8Z"/>
    <path class="cls-1" d="M644,82.7c-7.2,0-12.7,6-13.9,12.7-.3,1.8,2.4,2.5,2.7.7,1-5,4.3-9.5,9.5-10.4,5.7-1.1,11.3,3.4,11.6,9.2,0,1.8,2.9,1.8,2.8,0-.4-6.7-5.9-12.2-12.7-12.2Z"/>
    <path class="cls-1" d="M270.4,127.4c-1.1-2.6-4.3-4-6.8-4.8-4.2-1.4-8.6-.3-11.8,2.4-.2-6.4-10.9-12.4-16.2-12.5-9.3-.2-15,7.7-16.8,16-3.8-3.6-10.2-3.7-14.1,1.1-5.1,6.2-4.2,15.2.9,20.9,1.2,1.4,3.2-.6,2-2-3.2-3.7-4.4-8.7-2.8-13.4,1.1-3.2,3.6-6.4,7.2-6.6,2.9-.2,5.1,1.6,6.3,4.1v.6c0,.6.2.9.6,1.1q0,.1.1.2c.3,1.8,3,1,2.7-.7-.1-.6-.3-1.2-.5-1.7.5-6.3,3.4-13.2,9.6-15.7,3.7-1.5,7.7-1.2,11.2.7,2.4,1.3,9,6.9,6.5,10.1-.6.8-.3,1.8.4,2.2.2,1.1,1.9,1.8,2.6.5,2-3.5,5.9-5.7,10-4.9,2.4.4,4.8,1.4,6,3.6,1.4,2.6.4,5.4-.6,8-.6,1.7,2.1,2.4,2.7.7.9-2.9,2-6.9.8-9.9Z"/>
    <path class="cls-1" d="M847.7,119.9c-2.9-1.5-6.3-.9-9.1.5-1.5-5.9-7.3-10.1-13.7-8.7-7.7,1.7-12.4,8.7-13.7,16.1-3.1-3.4-7.2-4.8-11.5-.9-5.1,4.6-4.9,12.1-.3,17,1.2,1.3,3.2-.7,2-2-3.3-3.5-3.7-8.7-.4-12.3,1.5-1.6,3.9-3.1,6.1-1.9,1.7.9,2.8,2.8,3.7,4.4v.2c0,1.8,2.8,1.8,2.8,0,0-6.2,2.5-12.9,8.1-16.2,6.2-3.6,13.6-.6,14.4,6.2-1.1,1.4-1.3,3.4.7,4.4,1.3.6,2.4-.8,2-1.8v-1.2c1.1-.6,3.2-1.6,3.3-1.7,2.6-.6,4.7.4,6.5,2.2,2.6,2.6,6,8.3,1.5,10.9-1.6.9-.2,3.3,1.4,2.4,7.6-4.3,2-14.7-3.8-17.6Z"/>
    <path class="cls-1" d="M861.3,168.2c-1.1-2.4-1.1-4.7-3.6-6.5-2.9-2.2-6.9-2.5-10.4-2.5-7.3,0-9.4,6.1-11.5,12.2-.6,1.7,2.1,2.4,2.7.7,1.9-5.3,3.6-10.4,10.4-10,3.6.2,7.3.5,9,4.4.5,1.1.6,2.2,1.1,3.4-.3.4-.7.8-.9,1.3-.8,1.6,1.6,3,2.4,1.4,1.8-3.7,11.8-2.5,9.7,2.2-.7,1.6,1.7,3.1,2.4,1.4,3-6.7-5.9-10.4-11.3-8Z"/>
    <path class="cls-1" d="M274.5,162.4c-4.2-4.7-11-2.4-12.6,2.6-3.2-3.3-7.4-6.1-11.9-3.3-5.5,3.4-4.7,10.3-2.5,15.5.7,1.6,3.1.2,2.4-1.4-1.7-3.8-2.6-10.7,2.8-12.2,3.8-1.1,7,2.9,9,5.5.5,1.6,3,.9,2.7-.9-1-4.9,5-7.4,8.1-3.9,1.2,1.4,3.2-.6,2-1.9Z"/>
    <path class="cls-3" d="M393.6,54.5c-3.5-4.7-10.1-3.7-12.5.8-2-3.5-6-6.8-10.1-5.7-2.1.6-3.8,2.9-4.9,4.7-1.3,2.1-1.8,4.2-.7,6.5.5,1.1,2.2,0,1.6-1-1-2,.1-3.8,1.3-5.4,1.4-2,2.8-3.6,5.5-2.9,3,.8,5.3,3.3,6.3,6,0,0,.1,0,.1.2,0,.3-.1.5-.1.8-.1,1.2,1.8,1.2,1.9,0,.2-5.2,6.7-7.4,9.8-3.1.9,1.1,2.5.1,1.8-.9Z"/>
    <path class="cls-3" d="M434.7,48.9c-1.5-1.5-3.1-1.2-4.3-.2-.6-4.8-2.4-11-7.5-11.2-5.2-.2-9.3,4.2-9.7,9.2-.1,1.2,1.8,1.2,1.9,0,.3-3.8,4.2-8.3,8.4-7.1,3.8,1.1,4.9,7.2,5.2,11-.1,0-.1.2-.2.3-.4.7.2,1.4.9,1.4.6.2,1.3,0,1.2-.8v-.3c.7-1,1.7-1.9,2.8-.8.4.4,2.1,3.1,1.3,3.6-1,.6-.1,2.3,1,1.6,2.2-1.5.4-5.2-1-6.7Z"/>
    <path class="cls-3" d="M336,72.3c-.9.2-1.7.7-2.2,1.4-.8-1.8-2.2-3.6-3.3-4.8-2.1-2.4-5-2.5-7.8-1.3-4.6,2-7.1,9-1.2,11.2,1.1.4,1.6-1.4.5-1.8-2.3-.9-2.5-3.7-1.3-5.5.9-1.3,2.4-2.2,4-2.6,2.3-.6,4.1.7,5.3,2.5,1,1.4,3.1,4.1,2.6,5.9-.4,1.2,1.5,1.7,1.8.5h0c.4-.3.7-.6.5-1.2-.3-1,.3-2.2,1.3-2.4,1-.2,2.1.7,2.1,1.7.1,1.2,2,1.2,1.9,0,0-2.1-1.9-3.9-4.2-3.6Z"/>
    <path class="cls-3" d="M956.3,54.5c-3.5-4.7-10.1-3.7-12.5.8-2-3.5-6-6.8-10.1-5.7-2.1.6-3.8,2.9-4.9,4.7-1.3,2.1-1.8,4.2-.7,6.5.5,1.1,2.2,0,1.6-1-1-2,0-3.8,1.3-5.4,1.4-2,2.8-3.6,5.5-2.9,3,.8,5.3,3.3,6.3,6,0,0,0,0,0,.2,0,.3,0,.5,0,.8,0,1.2,1.8,1.2,1.9,0,.2-5.2,6.7-7.4,9.8-3.1.9,1.1,2.6.1,1.8-.9Z"/>
    <path class="cls-3" d="M997.5,48.9c-1.5-1.5-3.1-1.2-4.3-.2-.6-4.8-2.4-11-7.5-11.2-5.2-.2-9.3,4.2-9.7,9.2,0,1.2,1.8,1.2,1.9,0,.3-3.8,4.2-8.3,8.4-7.1,3.8,1.1,4.9,7.2,5.2,11,0,0,0,.2-.2.3-.4.7.2,1.4.9,1.4.6.2,1.3,0,1.2-.8v-.3c.7-1,1.7-1.9,2.8-.8.4.4,2.1,3.1,1.3,3.6-1,.6,0,2.3,1,1.6,2.1-1.5.4-5.2-1-6.7Z"/>
    <path class="cls-3" d="M898.8,72.3c-.9.2-1.7.7-2.2,1.4-.8-1.8-2.2-3.6-3.3-4.8-2.1-2.4-5-2.5-7.8-1.3-4.6,2-7.1,9-1.2,11.2,1.1.4,1.6-1.4.5-1.8-2.3-.9-2.5-3.7-1.3-5.5.9-1.3,2.4-2.2,4-2.6,2.3-.6,4.1.7,5.3,2.5,1,1.4,3.1,4.1,2.6,5.9-.4,1.2,1.5,1.7,1.8.5h0c.4-.3.7-.6.5-1.2-.3-1,.3-2.2,1.3-2.4,1-.2,2.1.7,2.1,1.7,0,1.2,2,1.2,1.9,0,0-2.1-2-3.9-4.2-3.6Z"/>
    <path class="cls-3" d="M767.2,65.2c-6.5-3.9-13.9-.7-18.6,4.5-.7-10.2-7.2-19.7-18.3-20.5-10.6-.7-19,8.8-16.6,19.1.3,1.4,2.4.8,2.1-.6-2.4-10.3,7.4-18.5,17.2-15.9,9.4,2.5,13.8,11.6,13.4,20.6-.2.3-.3.5-.5.8-.6,1.1.9,2.1,1.7,1.4.5,0,.9-.4.9-1v-.4c3.5-5.1,10-9.3,16.3-6.7,4.6,1.9,7.3,7.6,5.5,12.1-.3-1.2-2.3-.6-2.1.7,0,.9.3,1.8.4,2.6,0,.8,1.3,1.1,1.8.5,4.8-5.3,2.7-13.6-3.2-17.2Z"/>
    <path class="cls-3" d="M790.1,37.2c-3.7-2.7-8.9-3.1-12.2.4-3.3,3.6-3.3,9.2-2.6,13.7.2,1.4,2.3.8,2.1-.6-.8-5.4.2-15.3,8.3-13.3,7.4,1.8,7.4,9.9,9.2,15.7-.4-1.3-2.5-.8-2.1.6.9,3.1,4.2,1.2,4.2-1.4,0-5-2.7-12-6.9-15.1Z"/>
    <path class="cls-3" d="M131.3,65.2c-6.5-3.9-13.9-.7-18.6,4.5-.7-10.2-7.3-19.7-18.4-20.5-10.6-.7-19,8.8-16.6,19.1.3,1.4,2.4.8,2.1-.6-2.4-10.2,7.4-18.4,17.2-15.8,9.4,2.5,13.8,11.6,13.4,20.6-.2.3-.3.5-.5.8-.6,1.1.9,2.1,1.7,1.4.5,0,.9-.4.9-1v-.4c3.5-5.1,10-9.3,16.3-6.7,4.6,1.9,7.3,7.6,5.5,12.1-.3-1.2-2.3-.6-2.1.7.1.9.3,1.8.4,2.6.1.8,1.3,1.1,1.8.5,4.9-5.4,2.7-13.7-3.1-17.3Z"/>
    <path class="cls-3" d="M154.2,37.2c-3.7-2.7-8.9-3.1-12.2.4-3.3,3.6-3.3,9.2-2.6,13.7.2,1.4,2.3.8,2.1-.6-.8-5.4.2-15.3,8.3-13.3,7.4,1.8,7.4,9.9,9.2,15.7-.4-1.3-2.5-.8-2.1.6.9,3.1,4.2,1.2,4.2-1.4.1-5-2.8-12-6.9-15.1Z"/>
    <path class="cls-1" d="M1036.7,204.4v-33.1c-61.6,4.1-123.3,4.9-185,3.1-7.7-.2-18.7-5.4-25.8-2.4,4.4-3.4,5.3-10.8,1-14.7s-12.1-2.4-14.7,2.8c2.1-3.5-1-8.4-5.1-9-4-.6-8,2.2-10,5.7-1.7,3-2.4,6.4-2.8,9.8,0-3.8-2.6-7.6-6.3-8.7-4.3-1.3-9.5,1.3-11,5.5-1.5,4.3.8,9,4.7,11.2-8.7.8-18.6-1.9-27.6-1.9-34.1-.3-68.2,0-102.3.8-17,.4-34.1.8-51.1,1.3-8.5.3-17,.5-25.6.8-6.2.2-13.4-.4-19,2.5,2.1-3,1.6-7.6-1.6-9.7-4.1-2.6-10,1-12.1,4.7,2.3-6,4.4-13.3.6-18.4-3.6-4.8-11.1-5.1-16.4-2.2-5.3,2.9-8.9,8-12.3,13,2.2-5.5-.5-12.3-5.7-15.2-5.2-2.8-12.1-1.7-16.5,2.2-4.4,4-6.2,10.3-5.2,16.1-2.2-5.5-10-7.7-14.7-4.2s-4.9,11.6-.3,15.3c-2.4-1.9-15.6.5-19,.6-6.9.2-13.8.4-20.7.6-13.3.3-26.5.6-39.8.8-24.2.4-48.3,0-72.5-.6,3.1.1,5.4-3.6,4.5-6.5-.9-3-4.1-4.8-7.2-4.7s-5.9,1.8-8.1,4c2.4-1.8,2.5-5.8.5-8s-5.6-2.7-8.3-1.3c-2.7,1.4-4.5,4.2-4.9,7.2-.5-3.8-1.2-7.9-4.2-10.2-3.8-2.9-9.7-1.2-12.9,2.5-3.2,3.6-4.3,8.5-5.3,13.2-.1-3.8-4.5-6.9-8.1-5.7-9.3,2.9,1,10.8-11,10.6-10.1-.2-20.6-1.3-30.7-1.9C149.5,176.5,74.9,173.8,0,172v32.5h1036.7Z"/>
  </g>
  <g>
    <path class="cls-1" d="M1852.9,101.5c4.3-4.9,11.8-6.6,18-4.9-16.3-20.6,11-61.4,34.8-38.6-7-6.7-12.4-14.9-15.9-24-1.8-4.7-3-10.3-.3-14.5,3.5-5.4,11.5-5.6,17.6-3.5,9.2,3.2,16.7,10.3,20.8,19.1.4-1,.8-1.9,1.4-2.8,3.8-5.9,12.1-8.6,18.6-6,3.3,1.3,6,3.8,7.7,6.9-1.1-7.5-1.4-15.1,1-22.2,1.3-3.9,3.6-7.7,7.3-9.7,6.5-3.5,15.1.5,18.9,6.9,3.8,6.4,3.7,14.3,2.7,21.7s-2.8,14.7-2.3,22.1c2.6-11.9,14.2-21.1,26.3-20.9,12.1.2,23.5,9.7,25.7,21.7,2.4-4.6,2.9-9.8,4.7-14.7,1.7-4.9,5.2-9.7,10.3-10.4,3.9-.5,7.8,1.7,10.2,4.9,2.3,3.2,3.3,7.2,3.6,11.1,1,13.2-5.4,26.6-16.2,34.2,5.7-2.9,10.6-7.3,16.5-9.9,2.6-1.2,5.1-1.6,7.4-1.3v98c-1.9,1.2-4,2.3-6.2,3-8.7,3-18.1,3.4-27.3,3.6-30,.5-59.5-4.5-89.3-5.2-26.1-.6-49.4-2.5-73.3-14.9-9.4-4.8-18.5-10.9-23.9-20-5.2-9.2-5.8-21.8,1.2-29.7Z"/>
    <path class="cls-1" d="M1035.6,46.9c8.7-2.8,20.1-1.8,28.5,2.3-8.9-4.5-13-16.9-8.1-25.5,4.2-7.3,14.5-10.4,22.2-6.9,10.8,4.9,9.1,15.4,9.1,25.5,0-9.5,8.9-17.9,18.4-17.7,7.4.2,14.1,5.6,16.6,12.4-.3-2.4-.5-4.8-.3-7.2.3-4.4,2-8.9,5.4-11.8,3.4-2.8,8.7-3.6,12.3-1,10.1,7.4-.9,28.5-2.7,37.7,1.6-7.9,10.8-13.2,18.4-10.6,4.3,1.5,7.4,5.3,8.7,9.7.4-3,1-5.9,2-8.8,2.2-6,6.5-11.5,12.6-13.4s13.7.8,15.9,6.7c1.5,4.1.4,8.6-.8,12.8-1.9,7-3.9,14.1-5.8,21.1,3.2-6.2,12.7-21.2,20.3-22.1,10.2-1.2,16.1,12.5,15.9,20.6,0,7.9-3.6,15.4-7.4,22.3,3.1-4.6,8.1-7.7,13.5-8.8-1.9-20.7,20-45,39.6-26.2-7-6.7-12.4-14.9-15.9-24-1.8-4.7-3-10.3-.3-14.5,3.5-5.4,11.5-5.6,17.6-3.5,9.2,3.2,16.7,10.3,20.8,19.1.4-1,.8-1.9,1.4-2.8,3.8-5.9,12.1-8.6,18.6-6,3.3,1.3,6,3.8,7.7,6.9-1.1-7.5-1.4-15.1,1-22.2,1.3-3.9,3.6-7.7,7.3-9.7,6.5-3.5,15.1.5,18.9,6.9,3.8,6.4,3.7,14.3,2.7,21.7s-2.8,14.7-2.3,22.1c2.6-11.9,14.2-21.1,26.3-20.9,12.1.2,23.5,9.7,25.7,21.7,2.4-4.6,2.9-9.8,4.7-14.7,1.7-4.9,5.2-9.7,10.3-10.4,3.9-.5,7.8,1.7,10.2,4.9,2.3,3.2,3.3,7.2,3.6,11.1,1,13.2-5.4,26.6-16.2,34.2,5.7-2.9,10.6-7.3,16.5-9.9s13.6-2.8,17.9,1.9c4,4.4,3.5,11.3,1.7,16.9-3.1,9.7-9.5,18.2-17.7,24.2-8.1,5.9-18.5,6.1-24.7,13.6-14.1,17.3-34.1,30.4-55.5,36.5-36.3,10.2-76.5,7.5-110.2-9.8-9.4-4.8-18.5-10.9-23.9-20-.7-1.1-1.3-2.3-1.8-3.6-21.4,21.6-49.6,22.4-77.2,21.5l3,2.4c-1.8-.1-3.6-.2-5.4-.4-4.3-.5-8.2-1.3-12-2.5-29-1-58.2-.2-87.4.7V46.9h.3ZM1235.3,96.6c-.6-.8-1.2-1.6-1.7-2.4-.3.6-.6,1.3-1,1.9.9,0,1.8.2,2.7.5Z"/>
    <path class="cls-2" d="M1035.6,112.5c8.1-4.3,19.3-.5,25.4,6.8,6.6,7.9,8.9,18.4,10.9,28.6-1.3-7.3-2.5-14.8-.7-22s7.7-13.8,15.1-14.1c8.2-.3,14.7,7,18.3,14.4,5.8,12.2,7.1,26.5,3.6,39.5,3.1-5.1,6.3-10.4,11.4-13.4,5.1-3.1,12.6-3,16.2,1.7,2.9,3.8,2.4,9.1,1,13.6-2.1,6.7-6.1,12.8-11.2,17.6,5.6-2.7,11.9-3.8,18.1-3.2,1,.1-8.6,14.9-9.8,16-2.6,2.4-5.2,3.8-8,5.1h-90v-90.6h-.3Z"/>
    <path class="cls-1" d="M1613,116.7c9,1.7,19.1,1.6,26.2,5.6,19.8,11.1,34.3,26,58.1,28.7,24.7,2.7,62.2-5.6,80.1-24.1,4.1-4.3,24.1-42.8,23.3-42.9-8.1-1.4-16.8,2.3-21.4,9.1,3.8-7,7.2-14.4,7.4-22.3.2-8.1-5.7-21.8-15.9-20.6-7.6.9-17.2,15.9-20.3,22.1,1.9-7,3.9-14.1,5.8-21.1,1.2-4.2,2.3-8.7.8-12.8-2.2-6-9.9-8.7-15.9-6.7-6.1,1.9-10.4,7.5-12.6,13.4s-2.5,12.4-2.8,18.8c3.6-7.1-.4-17.1-8-19.7s-16.8,2.7-18.4,10.6c1.8-9.2,12.7-30.3,2.7-37.7-3.6-2.6-8.9-1.9-12.3,1s-5.1,7.4-5.4,11.8c-.3,4.4.5,8.9,1.3,13.2.3-9.5-8.1-18.3-17.6-18.5s-18.2,8.3-18.4,17.7c0-10.1,1.7-20.5-9.1-25.5-7.6-3.5-18-.4-22.2,6.9-5,8.7-.9,21.1,8.1,25.5-18.3-9.2-51.2-3-38.5,24.7,3.3,7.2,9.4,12.8,15.6,17.7-6.8-1.6-11.4,8.4-8,14.5,3.7,6.7,10.2,9.2,17.4,10.6Z"/>
    <path class="cls-4" d="M1701.2,192.9c-7.4,3.7-16.1,5.3-22.7,10.2h-365.4c-5.6-9.8-6.6-22.4-.8-32.1,9.4-15.6,33.6-19,47.5-7.6-7.5-7.7-12.2-18-13-28.8,10.9-2.1,22.7.9,31.2,8-11.1-10.2-18.4-25.1-17.4-40.1,1-15.1,11.3-29.6,25.7-33.8s32,3.7,36.7,18.1c-1.1-18,12.4-35.7,30-39.4s37.1,7.1,43.3,24c2.3-20.5,7.2-44.7,26.3-52.6,16.6-6.9,36.2,3.4,45.9,18.5,8.6,13.3,11.3,29.4,13.1,45.2,1.5-9.8,14.3-18,23.8-12.8,10,5.4,10.9,20.8,3.6,29.2,11.8-9,29.1-10.5,42-3,13.2,7.6,20.6,23.8,18.3,38.8,2.9-6.8,13.5-9.8,20.1-5.4,7.7,5.3,9.4,16.4,6.3,25.3s-9.7,15.8-16.2,22.5c4.5-4.5,9.3-9.2,15.3-11.2,6-2.1,13.8-.7,17.1,4.7,4.9,8-2.4,18.2-10.7,22.3Z"/>
    <path class="cls-4" d="M1987.7,197.6c-4.4,2.2-9.3,3.5-13.7,5.5h-302.5c-3.3-7.4-3.5-16.3.8-23.3,7.6-12.7,27.3-15.4,38.5-6.2-6.1-6.2-9.9-14.6-10.5-23.3,8.8-1.7,18.4.7,25.3,6.5-9-8.2-14.9-20.4-14.1-32.6.8-12.2,9.1-24,20.9-27.4,11.7-3.4,26,3,29.8,14.7-.9-14.6,10.1-29,24.4-31.9,14.3-3,30.1,5.8,35.1,19.5,1.9-16.6,5.9-36.2,21.3-42.6,13.4-5.6,29.4,2.8,37.3,15,7,10.8,9.2,23.8,10.7,36.7,1.2-8,11.6-14.6,19.3-10.4,8.1,4.4,8.8,16.9,2.9,23.7,9.6-7.3,23.6-8.5,34.1-2.5,10.7,6.2,16.7,19.3,14.8,31.5,2.4-5.5,10.9-8,16.3-4.3,6.3,4.3,7.6,13.3,5.1,20.5s-7.9,12.8-13.2,18.3c3.7-3.7,7.5-7.4,12.4-9.1,4.9-1.7,11.2-.6,13.9,3.8,3.8,6.3-2.1,14.5-8.9,17.9Z"/>
    <path class="cls-4" d="M1354.6,199.5c-2.9,1.5-6.1,2.5-9.1,3.6h-277.9c-2.4-6.4-2.3-13.8,1.2-19.7,6.9-11.5,24.7-14,34.9-5.6-5.5-5.6-9-13.3-9.5-21.1,8-1.6,16.7.7,22.9,5.9-8.2-7.5-13.5-18.4-12.8-29.5.8-11.1,8.3-21.8,18.9-24.9s23.5,2.7,27,13.3c-.8-13.2,9.1-26.2,22.1-28.9,12.9-2.7,27.3,5.2,31.8,17.7,1.7-15.1,5.3-32.8,19.3-38.6,12.2-5,26.6,2.5,33.7,13.6,6.3,9.8,8.3,21.6,9.7,33.2,1.1-7.2,10.5-13.2,17.5-9.4,7.3,4,8,15.3,2.7,21.5,8.7-6.6,21.4-7.7,30.9-2.2,9.7,5.6,15.1,17.5,13.4,28.5,2.1-5,9.9-7.2,14.8-3.9,5.7,3.9,6.9,12.1,4.6,18.6-2.2,6.5-7.2,11.6-11.9,16.6,3.3-3.3,6.8-6.7,11.2-8.3,4.4-1.5,10.1-.5,12.5,3.5,3.5,5.6-1.9,13-7.9,16.1Z"/>
    <path class="cls-2" d="M1505.1,197.6c-1,2-2,3.8-3.1,5.5h-219c-1.6-1-3.2-2.1-4.6-3.4-5.4-5-8.2-13.5-4.6-19.9,2.8-4.9,8.8-7.4,14.5-7.4s11.1,2.2,16.2,4.7c-8.2-5.9-14.8-14.6-16.3-24.7-1.4-10,3.3-21.2,12.4-25.5,9.1-4.4,21.9,0,24.9,9.8-1.9-7.8-3.7-15.8-3.3-23.8.4-8,3.4-16.3,9.7-21.3,9.4-7.4,23.3-5.7,33.8,0,14.6,8.1,25,23.4,27.1,40,2.7-8.1-.3-16.9-.7-25.5-.3-8.6,4.7-19.1,13.2-18.5,5.5.4,9.6,5.3,12.5,9.9,10.3,16.2,16.9,34.7,19.1,53.8,12.2-11.7,12.5-35.3,28.7-40.2,11.3-3.4,23.2,6.3,26.6,17.7,3.4,11.3.6,23.5-2.2,35,2.5-6.4,5.2-13.1,10.3-17.7,5.1-4.6,13.4-6.5,18.9-2.3,6.6,5.1,5.6,15.4,2.4,23.1-4.3,10.7-11.5,20.3-16.5,30.6Z"/>
    <path class="cls-2" d="M1909.4,184.5c2.2-4,7-6,11.6-5.9,4.5,0,8.9,1.8,13,3.8-6.6-4.7-11.9-11.7-13-19.7s2.6-16.9,9.9-20.4,17.6.1,19.9,7.9c-1.5-6.3-3-12.6-2.7-19.1.3-6.4,2.7-13.1,7.8-17.1,7.5-6,18.7-4.5,27.1,0,11.7,6.5,20,18.8,21.7,32,2.2-6.5-.3-13.6-.5-20.4-.3-6.9,3.7-15.3,10.6-14.8,4.4.3,7.7,4.2,10,7.9,8.3,12.9,13.6,27.8,15.3,43.1,9.8-9.3,10-28.3,23-32.1,3-.9,6-.6,8.9.4v73h-155c-1.3-.8-2.5-1.7-3.7-2.7-4.5-4.1-6.8-10.9-3.9-16Z"/>
    <path class="cls-2" d="M1762.1,203.1h-159.4c-.2-.1-.4-.2-.5-.3-7.9-5.1-14.4-12.8-16.4-22s1.4-19.7,9.4-24.7c5.6-3.5,13.3-3.4,18.9-.1-5.4-8.7-3.9-21.9,4.8-28,9.6-6.7,24.4-2.1,29.7,7.9-2.1-5.9-4-11.9-4.2-18.1-.3-7.8,2.3-16.1,8.5-20.7,9.7-7.4,24.7-2.8,32.6,6.6,7.9,9.3,10.5,21.9,12.9,33.9-1.5-8.6-3-17.6-.8-26.1s9.2-16.4,17.9-16.8c9.8-.4,17.5,8.3,21.7,17.1,6.9,14.5,8.5,31.4,4.2,46.9,3.6-6,7.5-12.3,13.5-15.9,6-3.6,14.9-3.6,19.2,2,3.4,4.5,2.8,10.8,1.2,16.2-2.5,8-7.2,15.2-13.4,20.9,6.6-3.2,14.1-4.5,21.5-3.8,1.1.1-10.2,17.6-11.7,19.1-3.1,2.7-6.3,4.4-9.6,5.9Z"/>
    <path class="cls-4" d="M1354.4,143.3c2-1.5,4.5-1.9,6.9-1.3-1.6-8.5-.5-19,10.4-18.4,7.4.4,13.1,5.5,15.7,12,1.9-3.9,5.8-6.4,10.8-5.8,7.2,1,10,7.8,9.6,14.4,0,1.8-2.9,1.8-2.8,0,.2-3.5,0-8.7-4-10.5-6.1-2.7-12.2.8-12.2,7.8s-2.6,1.8-2.8,0c-.6-6.4-4.4-11.9-10.5-14.2-12.2-4.6-13,8.4-11,16.3.3.3.7.6.9,1,1.1,1.4-.9,3.4-2,2,0-.1-.2-.3-.4-.4-.4-.1-.8-.3-1-.8-1.7-1.1-4.1-1.3-5.9,0-2.6,1.8-2.8,5.4-1.3,8,.9,1.6-1.5,3-2.4,1.4-2-3.7-1.5-8.8,2-11.5Z"/>
    <path class="cls-4" d="M1443.2,146.1c6.2-1.4,8.7,4.1,9.6,9.4,2.7-4.6,6.8-9.8,11.9-6.5,6.1,3.9,3.9,13-.4,17.2-1.3,1.3-3.3-.7-2-2,1.7-1.7,2.9-3.5,3.1-6,.3-3.2-.8-9.9-7-5.9-2.5,1.6-4.2,6.1-5.5,8.7-.7,1.2-2.6.6-2.6-.7,0-3.6.3-9.3-3.7-10.9-6.2-2.6-8,7.7-6.3,10.5.9,1.5-1.5,3-2.4,1.4-2.6-4.5-.4-13.9,5.3-15.2Z"/>
    <path class="cls-4" d="M1362.8,173.7c4.9,1.5,11,7.5,9.1,13.1-.6,1.7-3.3,1-2.7-.7,1.3-3.8-3.5-8.3-6.8-9.5-4-1.4-7.8,1.4-8.4,5.4-.3,1.8-3,1-2.7-.7.8-5.4,6.3-9.2,11.5-7.6Z"/>
    <path class="cls-4" d="M1664.8,140.4c2.4-2.9,7.6-3.7,10-.7,1.1-5.3,6-10.5,11.2-11.3,5.1-.8,9.5,3.8,11.3,8.8,2.3-1.7,5.5-2.3,8.3-1,5.4,2.5,8.4,10.7,3.9,15.4-1.3,1.3-3.2-.7-2-2,2.8-2.9,1-7.9-1.8-10.1-2.3-1.8-6-1.4-7.7.7,0,.9,0,1.8,0,2.6,0,.5-.4.8-.8.9v.2c.4,1.8-2.3,2.5-2.7.7-.4-1.9,0-3.6.7-5.1-.9-4.9-6.3-10.1-11-7.6-3.6,1.8-7.5,6.4-6.8,10.6.3,1.8-2.4,2.5-2.7.7v-.4c-.6.2-1.2.1-1.5-.6-1-2.3-4.1-2.3-5.8-.7-1,1-1.5,2.3-1.8,3.7,0,.2-.6,4.4-.2,4.3,1.8-.1,1.8,2.7,0,2.8-5.4.6-2.4-9.8-.6-11.9Z"/>
    <path class="cls-4" d="M1710.8,170.1c2.4-8.7,13.1-8.7,16.3-2,4.5-4.6,14.6.5,10.2,8.3-.9,1.6-3.3.2-2.4-1.4,3.4-6-6.1-7.8-6.9-2.1-.2,1.6-2.8,1.2-2.8-.4.2-7.4-9.7-9.1-11.7-1.7-.5,1.8-3.2,1.1-2.7-.7Z"/>
    <path class="cls-4" d="M1043.7,150.3c2-2.5,6.4-3.1,8.4-.6.9-4.5,5.1-8.9,9.4-9.5,4.3-.7,8,3.2,9.5,7.4,1.9-1.5,4.6-2,7-.8,4.6,2.1,7.1,9,3.3,12.9-1.1,1.1-2.7-.6-1.7-1.7,2.4-2.5.9-6.6-1.5-8.5-2-1.5-5.1-1.2-6.5.6,0,.8,0,1.5,0,2.2,0,.5-.3.7-.7.8v.2c.3,1.5-1.9,2.1-2.3.6-.4-1.6,0-3,.6-4.3-.8-4.2-5.3-8.5-9.3-6.4-3,1.6-6.3,5.4-5.7,9,.2,1.5-2,2.1-2.3.6v-.3c-.5.2-1,.1-1.3-.5-.8-1.9-3.5-1.9-4.9-.6-.9.8-1.3,2-1.6,3.1,0,.2-.5,3.7,0,3.7,1.5-.1,1.5,2.2,0,2.4-4.3.2-1.8-8.5-.3-10.3Z"/>
    <path class="cls-4" d="M1082.4,175.3c2-7.4,11.1-7.3,13.8-1.7,3.8-3.9,12.3.4,8.6,7-.7,1.3-2.8.1-2-1.2,2.8-5-5.1-6.6-5.8-1.8-.2,1.3-2.3,1-2.3-.3,0-6.3-8.2-7.7-9.9-1.5-.5,1.6-2.8,1-2.4-.5Z"/>
    <path class="cls-1" d="M1546.4,91.4c1.4-3.6,3.5-6.2,7.6-6.5,7.2-.6,13.8,5.4,15.1,12.2,2.5-2.9,5.5-5.8,8.9-7,4.1-1.5,7.8.6,11,3.1,6,4.5,6.9,14.5,1.9,20.3-1.2,1.4-3.1-.6-2-2,1.7-2,2.3-6.3,2.3-8.8,0-4.2-2.6-6.7-5.9-8.6-6.8-4.1-12.7,2.9-16.7,8-1,1.3-2.8-.3-2.2-1.7.4-5.6-3.4-10.6-8.8-12.3-4.1-1.2-7.3.6-8.8,4.5-.9,2.4-3.4,7.5-1.9,9.9,1,1.5-1.4,2.9-2.4,1.4-2.3-3.6.5-8.8,1.9-12.5Z"/>
    <path class="cls-1" d="M1477.6,83.7c3.7-.6,7.6.3,10.3,2.5.6-8.2,3-18.9,11.2-18.2,7,.5,17,10.9,11.9,17.9-1.1,1.4-3.5,0-2.4-1.4,4.5-6.2-9.3-18.5-14.4-11-2.9,4.3-3.6,10.7-3.7,16.1.5,1,.8,2.2.9,3.5,0,1.5-1.8,1.7-2.5.7-.6,0-1.1-.5-1.1-1.3v-2.3c-1.5-2.4-4.4-3.6-7.4-3.8-2.8,0-9.9,2.4-5.9,6.1,1.3,1.2-.7,3.2-2,2-4.6-4.4.2-10.1,5.1-10.8Z"/>
    <path class="cls-1" d="M1428.2,82.7c7.2,0,12.7,6,13.9,12.7.3,1.8-2.4,2.5-2.7.7-1-5-4.3-9.5-9.5-10.4-5.7-1.1-11.3,3.4-11.6,9.2,0,1.8-2.9,1.8-2.8,0,.3-6.7,5.9-12.2,12.7-12.2Z"/>
    <path class="cls-1" d="M1801.6,127.4c1.1-2.6,4.3-4,6.8-4.8,4.2-1.4,8.6-.3,11.8,2.4.2-6.4,10.9-12.4,16.2-12.5,9.3-.2,15,7.7,16.8,16,3.8-3.6,10.2-3.7,14.1,1.1,5.1,6.2,4.1,15.2-.9,20.9-1.2,1.4-3.2-.6-2-2,3.2-3.7,4.4-8.7,2.8-13.4-1.1-3.2-3.6-6.4-7.2-6.6-2.9-.2-5.1,1.6-6.3,4.1v.6c0,.6-.2.9-.6,1.1q0,.1,0,.2c-.3,1.8-3,1-2.7-.7,0-.6.3-1.2.5-1.7-.5-6.3-3.4-13.2-9.6-15.7-3.7-1.5-7.7-1.2-11.2.7-2.4,1.3-9,6.9-6.5,10.1.6.8.3,1.8-.4,2.2-.2,1.1-1.9,1.8-2.6.5-2-3.5-5.9-5.7-10-4.9-2.4.4-4.8,1.4-6,3.6-1.4,2.6-.4,5.4.6,8,.6,1.7-2.1,2.4-2.7.7-.9-2.9-2.1-6.9-.8-9.9Z"/>
    <path class="cls-1" d="M1224.5,119.9c2.9-1.5,6.3-.9,9.1.5,1.5-5.9,7.3-10.1,13.7-8.7,7.7,1.7,12.4,8.7,13.7,16.1,3.1-3.4,7.2-4.8,11.5-.9,5.1,4.6,4.9,12.1.3,17-1.2,1.3-3.2-.7-2-2,3.3-3.5,3.7-8.7.4-12.3-1.5-1.6-3.9-3.1-6.1-1.9-1.7.9-2.8,2.8-3.7,4.4v.2c0,1.8-2.8,1.8-2.8,0,0-6.2-2.5-12.9-8.1-16.2-6.2-3.6-13.6-.6-14.4,6.2,1.1,1.4,1.3,3.4-.7,4.4-1.3.6-2.4-.8-2-1.8v-1.2c-1.1-.6-3.2-1.6-3.3-1.7-2.6-.6-4.7.4-6.5,2.2-2.6,2.6-5.9,8.3-1.5,10.9,1.6.9.2,3.3-1.4,2.4-7.5-4.3-2-14.7,3.8-17.6Z"/>
    <path class="cls-1" d="M1211,168.2c1.1-2.4,1.1-4.7,3.6-6.5,2.9-2.2,6.9-2.5,10.4-2.5,7.3,0,9.4,6.1,11.5,12.2.6,1.7-2.1,2.4-2.7.7-1.9-5.3-3.6-10.4-10.4-10-3.6.2-7.3.5-9,4.4-.5,1.1-.6,2.2-1.1,3.4.3.4.6.8.9,1.3.8,1.6-1.6,3-2.4,1.4-1.8-3.7-11.8-2.5-9.7,2.2.7,1.6-1.7,3.1-2.4,1.4-3.1-6.7,5.8-10.4,11.3-8Z"/>
    <path class="cls-1" d="M1797.4,162.4c4.2-4.7,11-2.4,12.6,2.6,3.2-3.3,7.4-6.1,11.9-3.3,5.5,3.4,4.7,10.3,2.5,15.5-.7,1.6-3.1.2-2.4-1.4,1.7-3.8,2.6-10.7-2.7-12.2-3.8-1.1-7,2.9-9,5.5-.5,1.6-3,.9-2.7-.9,1-4.9-5-7.4-8.1-3.9-1.3,1.4-3.3-.6-2.1-1.9Z"/>
    <path class="cls-3" d="M1678.4,54.5c3.5-4.7,10.1-3.7,12.5.8,2-3.5,6-6.8,10.1-5.7,2.1.6,3.8,2.9,4.9,4.7,1.3,2.1,1.8,4.2.7,6.5-.5,1.1-2.2,0-1.6-1,1-2,0-3.8-1.3-5.4-1.4-2-2.8-3.6-5.5-2.9-3,.8-5.3,3.3-6.3,6,0,0,0,0,0,.2,0,.3,0,.5,0,.8,0,1.2-1.8,1.2-1.9,0-.2-5.2-6.6-7.4-9.8-3.1-.9,1.1-2.5.1-1.8-.9Z"/>
    <path class="cls-3" d="M1637.3,48.9c1.5-1.5,3.1-1.2,4.3-.2.6-4.8,2.4-11,7.5-11.2,5.2-.2,9.3,4.2,9.7,9.2,0,1.2-1.8,1.2-1.9,0-.3-3.8-4.2-8.3-8.4-7.1-3.8,1.1-4.9,7.2-5.2,11,0,0,0,.2.2.3.4.7-.2,1.4-.9,1.4-.6.2-1.3,0-1.2-.8v-.3c-.7-1-1.7-1.9-2.8-.8-.4.4-2.1,3.1-1.3,3.6,1,.6,0,2.3-1,1.6-2.2-1.5-.4-5.2,1-6.7Z"/>
    <path class="cls-3" d="M1735.9,72.3c.9.2,1.7.7,2.2,1.4.8-1.8,2.2-3.6,3.3-4.8,2.1-2.4,5-2.5,7.8-1.3,4.6,2,7.1,9,1.2,11.2-1.1.4-1.6-1.4-.5-1.8,2.3-.9,2.5-3.7,1.3-5.5-.9-1.3-2.4-2.2-4-2.6-2.3-.6-4.1.7-5.3,2.5-1,1.4-3.1,4.1-2.6,5.9.4,1.2-1.5,1.7-1.8.5h0c-.4-.3-.7-.6-.5-1.2.3-1-.3-2.2-1.3-2.4-1-.2-2.1.7-2.1,1.7,0,1.2-2,1.2-1.9,0,.1-2.1,2-3.9,4.2-3.6Z"/>
    <path class="cls-3" d="M1116,54.5c3.5-4.7,10.1-3.7,12.5.8,2-3.5,6-6.8,10.1-5.7,2.1.6,3.8,2.9,4.9,4.7,1.3,2.1,1.8,4.2.7,6.5-.5,1.1-2.2,0-1.6-1,1-2,0-3.8-1.3-5.4-1.4-2-2.8-3.6-5.5-2.9-3,.8-5.3,3.3-6.3,6,0,0,0,0,0,.2,0,.3,0,.5,0,.8,0,1.2-1.8,1.2-1.9,0-.2-5.2-6.6-7.4-9.8-3.1-.9,1.1-2.6.1-1.8-.9Z"/>
    <path class="cls-3" d="M1074.9,48.9c1.5-1.5,3.1-1.2,4.3-.2.6-4.8,2.4-11,7.5-11.2,5.2-.2,9.3,4.2,9.7,9.2,0,1.2-1.8,1.2-1.9,0-.3-3.8-4.2-8.3-8.4-7.1-3.8,1.1-4.9,7.2-5.2,11,0,0,0,.2.2.3.4.7-.2,1.4-.9,1.4-.6.2-1.3,0-1.2-.8v-.3c-.7-1-1.7-1.9-2.8-.8-.4.4-2.1,3.1-1.3,3.6,1,.6,0,2.3-1,1.6-2.2-1.5-.5-5.2,1-6.7Z"/>
    <path class="cls-3" d="M1173.5,72.3c.9.2,1.7.7,2.2,1.4.8-1.8,2.2-3.6,3.3-4.8,2.1-2.4,5-2.5,7.8-1.3,4.6,2,7.1,9,1.2,11.2-1.1.4-1.6-1.4-.5-1.8,2.3-.9,2.5-3.7,1.3-5.5-.9-1.3-2.4-2.2-4-2.6-2.3-.6-4.1.7-5.3,2.5-1,1.4-3.1,4.1-2.6,5.9.4,1.2-1.5,1.7-1.8.5h0c-.4-.3-.7-.6-.5-1.2.3-1-.3-2.2-1.3-2.4-1-.2-2.1.7-2.1,1.7,0,1.2-2,1.2-1.9,0,.1-2.1,2-3.9,4.2-3.6Z"/>
    <path class="cls-3" d="M1305,65.2c6.4-3.9,13.9-.7,18.6,4.5.7-10.2,7.2-19.7,18.3-20.5,10.6-.7,19,8.8,16.6,19.1-.3,1.4-2.4.8-2.1-.6,2.4-10.3-7.4-18.5-17.2-15.9-9.4,2.5-13.8,11.6-13.4,20.6.2.3.3.5.5.8.6,1.1-.9,2.1-1.7,1.4-.5,0-.9-.4-.9-1v-.4c-3.5-5.1-10-9.3-16.3-6.7-4.6,1.9-7.3,7.6-5.5,12.1.3-1.2,2.3-.6,2.1.7,0,.9-.3,1.8-.4,2.6,0,.8-1.3,1.1-1.8.5-4.8-5.3-2.7-13.6,3.2-17.2Z"/>
    <path class="cls-3" d="M1282.1,37.2c3.7-2.7,8.9-3.1,12.1.4,3.3,3.6,3.3,9.2,2.6,13.7-.2,1.4-2.3.8-2.1-.6.8-5.4-.2-15.3-8.3-13.3-7.3,1.8-7.4,9.9-9.2,15.7.4-1.3,2.5-.8,2.1.6-.9,3.1-4.2,1.2-4.2-1.4,0-5,2.8-12,7-15.1Z"/>
    <path class="cls-3" d="M1940.6,65.2c6.4-3.9,13.9-.7,18.6,4.5.7-10.2,7.2-19.7,18.3-20.5,10.6-.7,19,8.8,16.6,19.1-.3,1.4-2.4.8-2.1-.6,2.4-10.3-7.4-18.5-17.2-15.9-9.4,2.5-13.8,11.6-13.4,20.6.2.3.3.5.5.8.6,1.1-.9,2.1-1.7,1.4-.5,0-.9-.4-.9-1v-.4c-3.5-5.1-10-9.3-16.3-6.7-4.6,1.9-7.3,7.6-5.5,12.1.3-1.2,2.3-.6,2.1.7,0,.9-.3,1.8-.4,2.6,0,.8-1.3,1.1-1.8.5-4.8-5.3-2.6-13.6,3.2-17.2Z"/>
    <path class="cls-3" d="M1917.7,37.2c3.7-2.7,8.9-3.1,12.1.4,3.3,3.6,3.3,9.2,2.6,13.7-.2,1.4-2.3.8-2.1-.6.8-5.4-.2-15.3-8.3-13.3-7.3,1.8-7.4,9.9-9.2,15.7.4-1.3,2.5-.8,2.1.6-.9,3.1-4.2,1.2-4.2-1.4,0-5,2.9-12,7-15.1Z"/>
    <path class="cls-1" d="M1035.6,204.4v-33.1c61.5,4.1,123.3,4.9,184.9,3.1,7.7-.2,18.7-5.4,25.8-2.4-4.4-3.4-5.3-10.8-1-14.7s12.1-2.4,14.6,2.8c-2.1-3.5,1-8.4,5.1-9,4-.6,8,2.2,10,5.7,1.7,3,2.3,6.4,2.8,9.8,0-3.8,2.6-7.6,6.3-8.7,4.3-1.3,9.5,1.3,11,5.5,1.5,4.3-.8,9-4.7,11.2,8.7.8,18.6-1.9,27.6-1.9,34.1-.3,68.2,0,102.3.8,17,.4,34.1.8,51.1,1.3,8.5.3,17,.5,25.5.8,6.2.2,13.4-.4,19,2.5-2.1-3-1.6-7.6,1.6-9.7,4.1-2.6,10,1,12.1,4.7-2.3-6-4.4-13.3-.6-18.4,3.6-4.8,11.1-5.1,16.4-2.2,5.3,2.9,8.9,8,12.3,13-2.2-5.5.5-12.3,5.7-15.2,5.2-2.8,12.1-1.7,16.4,2.2,4.4,4,6.2,10.3,5.2,16.1,2.2-5.5,10-7.7,14.7-4.2s4.9,11.6.3,15.3c2.4-1.9,15.6.5,19,.6,6.9.2,13.8.4,20.7.6,13.3.3,26.5.6,39.8.8,24.2.4,48.3,0,72.4-.6-3.1.1-5.4-3.6-4.5-6.5.9-3,4.1-4.8,7.2-4.7s5.9,1.8,8.1,4c-2.4-1.8-2.5-5.8-.5-8s5.6-2.7,8.3-1.3c2.7,1.4,4.5,4.2,4.9,7.2.5-3.8,1.2-7.9,4.2-10.2,3.8-2.9,9.7-1.2,12.9,2.5,3.2,3.6,4.3,8.5,5.3,13.2,0-3.8,4.5-6.9,8.1-5.7,9.3,2.9-1,10.8,11,10.6,10.1-.2,20.5-1.3,30.7-1.9,74.6-3.8,149.2-6.5,224.1-8.3v32.5h-1036.1Z"/>
  </g>
</svg>