<?xml version="1.0" encoding="UTF-8"?>
<svg id="Layer_1" data-name="Layer 1" xmlns="http://www.w3.org/2000/svg" width="2172" height="271.5" version="1.1" viewBox="0 0 2172 271.5">
  <defs>
    <style>
      .cls-1 {
        stroke-width: 8px;
      }

      .cls-1, .cls-2 {
        fill: none;
        stroke: #000;
      }

      .cls-2 {
        stroke-linecap: round;
        stroke-linejoin: round;
        stroke-width: 6px;
      }

      .cls-3 {
        fill: #ffce00;
        stroke-width: 0px;
      }
    </style>
  </defs>
  <path class="cls-3" d="M16.9,91.6c0-1.1,1.8-1.6,2.5-.8,7.7,8.6,26.7,17.3,28.1,16.2,7.4-5.9,10.4-16.5,12.2-25.5.2-.8,1.1-1.1,1.7-.5,4.5,4.6,8.3,10,11.1,15.9.3.7,1.3.8,1.7,0,3.8-6,6.5-12.8,7.8-19.8.2-.8,1.1-1.1,1.7-.5,3,3.1,5.7,6.5,8,10.1.4.6,1.4.6,1.8,0,4-6.9,8.7-13.4,14-19.4.4-.5,1.2-.4,1.6,0,9.9,13.7,24,24.4,39.8,30.4.8.3,1.5-.4,1.3-1.2-2.9-12.2-.4-25.5,6.6-35.9.5-.8,1.7-.4,1.9.5,2.8,14.8,19.4,23.7,34.4,27.9,2.7.7,5.6,1.4,8.4,1.1,8.5-1.1,12.4-10.6,14.2-19.4.2-.9,1.4-1.1,1.8-.3,2.7,5.7,4.3,11.9,4.7,18.2.1.9,1.2,1.3,1.8.7,5.1-5.5,9.6-11.6,13.3-18.2.4-.7,1.4-.7,1.7,0,2.2,4.1,3.6,8.5,4.3,13.1.1.8,1.1,1.2,1.6.6,6.4-5.7,11.2-13,13.9-21.1.2-.7,1-.9,1.6-.5,11.4,8.8,23.4,16.8,36,23.9.7.4,1.5,0,1.5-.9,0-11.3,4.7-22.6,12.8-30.5.6-.6,1.6-.2,1.7.6,2,11.8,13.4,21.5,25.4,21.4.5,0,.9-.4,1-.9,1.2-8.4,5.2-16.4,11.3-22.4.4-.4,1.1-.3,1.5,0,7.1,9.6,16.9,17.4,27.9,22.1,2.1.9,4.4,1.7,6.5.9,1.7-.7,2.9-2.3,3.8-3.9,4.1-6.4,7.4-13.3,9.8-20.5.2-.7,1.2-.9,1.7-.4,11.8,12.3,25.8,22.5,41.1,30,.7.3,1.5-.2,1.5-.9.1-11.5,6.1-22.8,15.7-29.2.5-.4,1.3,0,1.5.5,3.2,8.3,9.9,15.2,18.2,18.5.5.2,1.1,0,1.3-.6,1.9-5.5,3.1-11.2,3.7-17,.1-.9,1.2-1.3,1.7-.6,4.5,5.2,8.4,11.1,11.4,17.4.2.5.9.7,1.4.5,15.9-8.7,30.3-20.1,42.3-33.7.5-.5,1.3-.4,1.6.2,5.8,11.3,7.5,24.7,4.6,37.2-.2.9.7,1.6,1.5,1.1,9.3-6,16.4-15.3,19.8-25.8.3-.9,1.7-1,2.1-.2,5.8,11.5,17.1,20.1,29.8,22.6.7,0,1.4-.6,1.1-1.3-1.8-6.5-.8-13.8,2.8-19.6.4-.6,1.3-.6,1.7,0,4.3,7.5,11.7,13.1,20,15.2.6,0,1.1-.3,1.2-.9.7-5.8,3.3-11.5,7.4-15.8.4-.4,1.1-.4,1.5,0,6,8,9.6,17.6,10.4,27.5,0,.7.8,1.2,1.5.8,21.9-11.2,40.3-28.9,52.2-50.4.4-.8,1.6-.7,1.9.2,6.8,20.3,26.4,35.8,47.8,37.6.6,0,1.2-.5,1.1-1.2-1.4-10.6,3.7-21.9,12.6-27.8.6-.4,1.5,0,1.6.8.6,9.1,8.1,17.5,17.1,19.1.7,0,1.2-.5,1.1-1.2-1.3-6.8,2.3-14.3,8.4-17.5.6-.3,1.2,0,1.4.7,2.8,13.7,15.2,25,29.1,26.4.4,0,.8-.2,1-.6,2.3-5.5,3.6-11.3,3.9-17.2,0-.8,1-1.3,1.7-.8,19.5,14.6,42.5,24.6,66.5,28.9.6,0,1.2-.4,1.2-1,0-9.3,1.9-18.5,5.4-27,.3-.7,1.1-.8,1.6-.3,8.7,8.9,19.8,15.5,31.8,18.7.7.2,1.4-.4,1.3-1.2-1.1-7.9,1.8-16.2,7.4-21.7.7-.7,1.8,0,1.7.9-.3,7.5,4.3,15,11.2,17.8.5.2,1.1,0,1.3-.7,2.1-7.5,6.4-14.3,12.2-19.4.4-.4,1.1-.3,1.5.2,13.5,18.7,35,31.4,57.8,34.1h.4c16-4.8,29.9-16.3,37.8-31,.3-.6,1.2-.7,1.6-.2,6.5,7.5,10.5,17.1,11.2,27,0,.8,1,1.3,1.6.7,7.5-6.3,13.2-14.8,16.2-24.1.2-.7,1.2-1,1.7-.4,6.7,7.3,11.7,16.2,14.5,25.7.2.7,1,1,1.6.5,16.4-12.5,32.8-25,49.2-37.5.8-.6,1.9.2,1.7,1.2-.8,3.5-1.1,7.2-.8,10.8.7,7.7,4.8,15.8,12.2,18,5.8,1.8,12.7-2.2,14.4-7.5.3-1,2.4-1.9,3.1-1.1,1.9,2.2,3.9,4.4,5.8,6.6.4.4,1,.5,1.4,0,7.7-7.5,12.9-17.5,14.6-28.1.2-.9,1.5-1.2,2-.4,7.5,10.9,19.1,19.1,32,22.4.6.2,1.2-.3,1.2-.9,1.1-9.1,6.9-17.4,14.8-21.8.8-.4,1.7.3,1.6,1.2-.6,5.3,2.8,10.8,7.4,13.9,4.7,3.1,10.4,4.3,16.1,5.3.8,0,1.4-.7,1.2-1.4-1.4-5.5,1-11.9,5.8-15,.5-.3,1.2,0,1.4.5,5,13.7,16.7,24.8,30.6,28.9.3,0,.7,0,.9-.2,9.8-8.2,16-20.4,17-33.1,0-.9,1.2-1.3,1.8-.7,18.1,18,42.6,29.4,68,31.6.5,0,1-.3,1.1-.8,1.3-7.6,3.8-15,7.3-21.8.3-.6,1.2-.7,1.7-.2,8.8,9.6,23,13.9,35.6,10.9.3,0,.6-.3.7-.7,2-6.3,5.5-12.1,10.1-16.9.5-.5,1.3-.3,1.6.3,6.1,14.5,19.1,26,34.3,30.2,1.8.5,3.7.9,5.5.2,1.5-.6,2.5-1.9,3.5-3.1l25.5-31.5c.5-.6,1.4-.4,1.7.3,4.6,11,13.5,20.1,24.4,24.9.5.2,1.1,0,1.3-.6,3.9-9.9,11.1-18.6,20.2-24.2.7-.4,1.6,0,1.6.9,0,9.2,7,17.5,14.9,22.7,13,8.6,29.6,11.6,44.9,8.3.2,0,.5-.2.6-.4,5.1-8.1,3.3-19.7-3.3-26.5-.8-.8,0-2.5,1-2.2,12.7,2.8,24.5,9.4,33.4,18.8.5.5,1.3.4,1.6-.2,2.6-4.8,4.8-9.9,6.7-15.1.2-.7,1-.9,1.6-.4,8.3,7.1,14.9,16.1,19.3,26.1.3.8,1.5.8,1.9,0,7.4-14,19.4-25.5,33.7-32.3.4-.2,1,0,1.2.3,13.7,18.3,39.3,27,61.3,20.5.4,0,.7-.4.7-.8,1.7-11.5,7.1-22.5,15.3-30.8.5-.5,1.5-.3,1.7.4,3.6,11,14.1,19.6,25.6,20.9.5,0,.9-.3,1-.7,1.1-5.3.8-10.9-1-16-.3-.9.6-1.8,1.5-1.3,8.7,4.7,16.3,11.2,22.4,19,.5.6,1.4.5,1.7-.2,4.4-8.5,10.7-16,18.3-21.9.7-.5,1.6,0,1.6.8,0,3.8,0,7.7,1.7,11,2,4,7,6.8,11,4.9,1.6-.8,2.9-2.2,4-3.6,4.6-5.6,8.6-11.7,11.8-18.1.3-.7,1.3-.8,1.7-.2,6.6,8.3,14.7,15.5,23.7,21.1,4.3,2.7,9.1,5,14.2,5.1s10.6-2.7,12.1-7.6c1.5-4.6-.8-9.7-4.3-12.9-1.4-1.3-3-2.3-4.6-3.2-1-.6-.6-2.2.6-1.9,19.4,4.4,37.3,15.3,50,30.6.6.7,1.8.3,1.9-.6,1.2-9.8,6.9-19.1,15.2-24.5.8-.5,1.8.3,1.7,1.3-1.2,8.8,9.2,17.7,18.2,15.2,8.7-2.4,13.6-12.3,12.6-21.3-.1-1,1.4-1.9,2.2-1.3,20.9,17.6,52.4,21.8,77.1,9.9.7-.3,1.5.2,1.5.9l-1.7,149.4c0,1.1-1.8,1.5-2.4.7-7.2-9.2-24.6-20.4-26.6-19.6-1.9.8-3.2,2.6-4.2,4.4-4.4,7.6-7.7,15.9-9.5,24.6-.2.8-1.1,1.1-1.7.5-4.5-4.6-8.3-10-11.1-15.9-.3-.7-1.3-.8-1.7-.1-3.8,6-6.5,12.8-7.8,19.8-.1.8-1.1,1.1-1.7.5-3-3.1-5.7-6.5-8-10.1-.4-.6-1.4-.6-1.8,0-4,6.9-8.7,13.4-14,19.4-.4.5-1.2.4-1.6-.1-9.9-13.7-23.9-24.4-39.8-30.4-.8-.3-1.5.4-1.3,1.2,2.9,12.2.4,25.5-6.6,35.9-.5.8-1.7.4-1.9-.5-2.8-14.8-19.4-23.7-34.4-27.9-2.8-.7-5.6-1.4-8.4-1.1-8.5,1.1-12.3,10.6-14.2,19.4-.2.9-1.4,1.1-1.8.3-2.7-5.7-4.3-11.9-4.8-18.2,0-.9-1.2-1.3-1.8-.7-5.1,5.5-9.6,11.6-13.4,18.2-.4.7-1.4.7-1.7,0-2.2-4.1-3.6-8.5-4.3-13.1,0-.8-1.1-1.2-1.7-.6-6.4,5.7-11.2,13-14,21.1-.2.7-1,.9-1.6.5-11.4-8.8-23.4-16.8-36-23.9-.7-.4-1.5.1-1.5.9,0,11.3-4.7,22.6-12.8,30.5-.6.6-1.6.2-1.7-.6-2-11.8-13.4-21.5-25.4-21.4-.5,0-.9.4-.9.9-1.2,8.4-5.2,16.4-11.3,22.4-.4.4-1.1.3-1.5-.1-7.1-9.6-16.9-17.4-27.9-22.1-2.1-.9-4.4-1.7-6.5-.9-1.7.7-2.9,2.3-3.8,3.9-4,6.4-7.4,13.3-9.8,20.5-.2.7-1.2.9-1.7.4-11.8-12.3-25.8-22.5-41.1-30-.7-.3-1.5.2-1.5.9,0,11.5-6.1,22.8-15.7,29.2-.5.4-1.2.1-1.5-.5-3.2-8.3-9.9-15.2-18.2-18.5-.5-.2-1.1.1-1.3.6-1.9,5.5-3.2,11.2-3.7,17,0,.9-1.2,1.3-1.7.6-4.6-5.2-8.4-11.1-11.4-17.4-.2-.5-.9-.7-1.4-.5-15.9,8.7-30.3,20.1-42.3,33.7-.5.5-1.3.4-1.6-.2-5.8-11.3-7.5-24.7-4.6-37.2.2-.9-.7-1.6-1.5-1.1-9.3,6-16.4,15.3-19.8,25.8-.3.9-1.7,1-2.1.2-5.8-11.5-17.1-20.1-29.8-22.6-.7-.1-1.3.6-1.1,1.3,1.8,6.5.8,13.8-2.8,19.6-.4.6-1.3.6-1.7-.1-4.3-7.5-11.7-13.1-20-15.2-.6-.1-1.2.3-1.2.9-.7,5.8-3.3,11.5-7.3,15.8-.4.4-1.1.4-1.5-.1-6-8-9.6-17.6-10.4-27.5,0-.7-.8-1.2-1.5-.8-21.9,11.2-40.3,29-52.2,50.4-.4.8-1.6.7-1.9-.2-6.8-20.3-26.4-35.8-47.8-37.5-.6-.1-1.2.5-1.1,1.2,1.4,10.6-3.8,21.9-12.6,27.8-.7.4-1.5-.1-1.6-.8-.6-9.1-8.1-17.5-17.1-19.1-.7-.1-1.2.5-1.1,1.2,1.3,6.8-2.3,14.3-8.4,17.5-.6.3-1.2-.1-1.4-.7-2.8-13.7-15.2-25-29.1-26.4-.4,0-.8.2-1,.6-2.3,5.5-3.6,11.3-3.9,17.2,0,.8-1,1.3-1.6.8-19.5-14.6-42.5-24.6-66.5-28.9-.6-.1-1.2.4-1.2,1,0,9.3-1.9,18.5-5.4,27-.3.7-1.1.8-1.6.3-8.7-8.9-19.8-15.5-31.8-18.7-.7-.2-1.4.4-1.3,1.2,1.1,7.9-1.8,16.2-7.4,21.7-.7.6-1.8,0-1.7-.9.3-7.5-4.3-15-11.2-17.8-.5-.2-1.1.1-1.3.7-2.1,7.5-6.4,14.3-12.2,19.4-.4.4-1.1.3-1.5-.2-13.5-18.7-35-31.4-57.8-34.1h-.4c-16,4.8-29.9,16.3-37.8,31-.3.6-1.2.7-1.6.2-6.5-7.5-10.5-17.1-11.2-27,0-.8-1-1.3-1.6-.7-7.5,6.3-13.2,14.8-16.2,24.1-.2.7-1.2,1-1.7.4-6.7-7.3-11.7-16.2-14.5-25.7-.2-.7-1-1-1.6-.5-16.4,12.5-32.8,25-49.2,37.5-.8.6-1.9-.2-1.7-1.2.8-3.5,1.1-7.2.8-10.8-.7-7.7-4.9-15.8-12.2-18-5.7-1.8-12.7,2.2-14.3,7.5-.3,1-2.4,1.9-3.1,1.1-1.9-2.2-3.9-4.4-5.8-6.6-.4-.4-1-.5-1.4-.1-7.7,7.5-12.9,17.5-14.6,28.1-.2.9-1.5,1.2-2,.5-7.5-10.9-19.1-19.1-32-22.4-.6-.2-1.2.3-1.3.9-1.1,9.1-6.9,17.4-14.8,21.8-.8.4-1.6-.3-1.6-1.2.6-5.3-2.8-10.8-7.4-13.9-4.7-3.1-10.4-4.3-16.1-5.3-.8-.1-1.4.7-1.2,1.4,1.4,5.5-1,12-5.8,15-.5.3-1.2.1-1.4-.5-5-13.7-16.7-24.8-30.6-28.9-.3-.1-.7,0-.9.2-9.8,8.2-16,20.4-17,33.1,0,.9-1.2,1.3-1.8.7-18.1-18-42.5-29.4-68-31.6-.5,0-1,.3-1.1.8-1.3,7.6-3.7,15-7.3,21.8-.3.6-1.2.7-1.7.2-8.8-9.6-23-13.9-35.6-10.9-.3.1-.6.3-.7.7-2,6.3-5.5,12.1-10.1,16.9-.5.5-1.4.3-1.6-.3-6.1-14.5-19.1-26-34.3-30.2-1.8-.5-3.7-.9-5.5-.2-1.5.6-2.5,1.9-3.5,3.1l-25.5,31.5c-.5.6-1.4.4-1.7-.3-4.6-11-13.5-20.1-24.4-24.9-.5-.2-1.1,0-1.3.6-3.9,9.9-11.1,18.6-20.2,24.2-.7.4-1.6-.1-1.6-.9,0-9.2-7-17.5-14.9-22.7-13-8.6-29.6-11.6-44.9-8.3-.3.1-.5.2-.6.4-5.1,8.1-3.3,19.7,3.3,26.5.8.8,0,2.5-1,2.2-12.7-2.8-24.5-9.4-33.4-18.8-.5-.5-1.3-.4-1.6.2-2.6,4.8-4.8,9.9-6.7,15.1-.2.7-1.1.9-1.6.4-8.3-7.1-14.9-16.1-19.3-26.1-.3-.8-1.5-.8-1.9-.1-7.4,14-19.4,25.5-33.7,32.3-.4.2-.9.1-1.2-.3-13.7-18.3-39.3-27-61.3-20.5-.4.1-.6.4-.7.8-1.7,11.5-7.1,22.5-15.3,30.8-.5.5-1.5.3-1.7-.4-3.6-11.1-14.1-19.6-25.6-20.9-.5-.1-.9.3-1,.7-1.1,5.3-.8,10.9,1,16,.3.9-.6,1.8-1.5,1.3-8.6-4.7-16.3-11.2-22.4-19-.5-.6-1.4-.5-1.7.2-4.4,8.5-10.7,16-18.3,21.9-.7.5-1.6,0-1.6-.8.1-3.8,0-7.7-1.7-11-2-4-7-6.8-11-4.9-1.5.7-11.7,14.2-15.8,21.7-.4.7-1.3.7-1.7.2-6.6-8.3-14.7-15.5-23.7-21.1-4.3-2.7-9.1-5-14.2-5.1-5.1-.1-10.6,2.7-12.1,7.6-1.5,4.6.8,9.7,4.4,12.9,1.4,1.3,3,2.3,4.6,3.2,1,.6.6,2.2-.6,1.9-19.4-4.4-37.3-15.3-50-30.6-.6-.7-1.8-.3-1.9.6-1.2,9.8-6.9,19.1-15.2,24.5-.8.5-1.8-.3-1.7-1.3,1.2-8.8-9.2-17.7-18.2-15.2-8.7,2.4-13.6,12.3-12.6,21.3,0,1-1.4,1.9-2.2,1.3-20.9-17.6-52.4-21.8-77-9.9-.7.3-1.5-.2-1.5-.9l1.5-149.6Z"/>
  <path class="cls-1" d="M16.9,91.6c0-1.1,1.8-1.6,2.5-.8,7.7,8.6,26.7,17.3,28.1,16.2,7.4-5.9,10.4-16.5,12.2-25.5.2-.8,1.1-1.1,1.7-.5,4.5,4.6,8.3,10,11.1,15.9.3.7,1.3.8,1.7,0,3.8-6,6.5-12.8,7.8-19.8.2-.8,1.1-1.1,1.7-.5,3,3.1,5.7,6.5,8,10.1.4.6,1.4.6,1.8,0,4-6.9,8.7-13.4,14-19.4.4-.5,1.2-.4,1.6,0,9.9,13.7,24,24.4,39.8,30.4.8.3,1.5-.4,1.3-1.2-2.9-12.2-.4-25.5,6.6-35.9.5-.8,1.7-.4,1.9.5,2.8,14.8,19.4,23.7,34.4,27.9,2.7.7,5.6,1.4,8.4,1.1,8.5-1.1,12.4-10.6,14.2-19.4.2-.9,1.4-1.1,1.8-.3,2.7,5.7,4.3,11.9,4.7,18.2.1.9,1.2,1.3,1.8.7,5.1-5.5,9.6-11.6,13.3-18.2.4-.7,1.4-.7,1.7,0,2.2,4.1,3.6,8.5,4.3,13.1.1.8,1.1,1.2,1.6.6,6.4-5.7,11.2-13,13.9-21.1.2-.7,1-.9,1.6-.5,11.4,8.8,23.4,16.8,36,23.9.7.4,1.5,0,1.5-.9,0-11.3,4.7-22.6,12.8-30.5.6-.6,1.6-.2,1.7.6,2,11.8,13.4,21.5,25.4,21.4.5,0,.9-.4,1-.9,1.2-8.4,5.2-16.4,11.3-22.4.4-.4,1.1-.3,1.5,0,7.1,9.6,16.9,17.4,27.9,22.1,2.1.9,4.4,1.7,6.5.9,1.7-.7,2.9-2.3,3.8-3.9,4.1-6.4,7.4-13.3,9.8-20.5.2-.7,1.2-.9,1.7-.4,11.8,12.3,25.8,22.5,41.1,30,.7.3,1.5-.2,1.5-.9.1-11.5,6.1-22.8,15.7-29.2.5-.4,1.3,0,1.5.5,3.2,8.3,9.9,15.2,18.2,18.5.5.2,1.1,0,1.3-.6,1.9-5.5,3.1-11.2,3.7-17,.1-.9,1.2-1.3,1.7-.6,4.5,5.2,8.4,11.1,11.4,17.4.2.5.9.7,1.4.5,15.9-8.7,30.3-20.1,42.3-33.7.5-.5,1.3-.4,1.6.2,5.8,11.3,7.5,24.7,4.6,37.2-.2.9.7,1.6,1.5,1.1,9.3-6,16.4-15.3,19.8-25.8.3-.9,1.7-1,2.1-.2,5.8,11.5,17.1,20.1,29.8,22.6.7,0,1.4-.6,1.1-1.3-1.8-6.5-.8-13.8,2.8-19.6.4-.6,1.3-.6,1.7,0,4.3,7.5,11.7,13.1,20,15.2.6,0,1.1-.3,1.2-.9.7-5.8,3.3-11.5,7.4-15.8.4-.4,1.1-.4,1.5,0,6,8,9.6,17.6,10.4,27.5,0,.7.8,1.2,1.5.8,21.9-11.2,40.3-28.9,52.2-50.4.4-.8,1.6-.7,1.9.2,6.8,20.3,26.4,35.8,47.8,37.6.6,0,1.2-.5,1.1-1.2-1.4-10.6,3.7-21.9,12.6-27.8.6-.4,1.5,0,1.6.8.6,9.1,8.1,17.5,17.1,19.1.7,0,1.2-.5,1.1-1.2-1.3-6.8,2.3-14.3,8.4-17.5.6-.3,1.2,0,1.4.7,2.8,13.7,15.2,25,29.1,26.4.4,0,.8-.2,1-.6,2.3-5.5,3.6-11.3,3.9-17.2,0-.8,1-1.3,1.7-.8,19.5,14.6,42.5,24.6,66.5,28.9.6,0,1.2-.4,1.2-1,0-9.3,1.9-18.5,5.4-27,.3-.7,1.1-.8,1.6-.3,8.7,8.9,19.8,15.5,31.8,18.7.7.2,1.4-.4,1.3-1.2-1.1-7.9,1.8-16.2,7.4-21.7.7-.7,1.8,0,1.7.9-.3,7.5,4.3,15,11.2,17.8.5.2,1.1,0,1.3-.7,2.1-7.5,6.4-14.3,12.2-19.4.4-.4,1.1-.3,1.5.2,13.5,18.7,35,31.4,57.8,34.1h.4c16-4.8,29.9-16.3,37.8-31,.3-.6,1.2-.7,1.6-.2,6.5,7.5,10.5,17.1,11.2,27,0,.8,1,1.3,1.6.7,7.5-6.3,13.2-14.8,16.2-24.1.2-.7,1.2-1,1.7-.4,6.7,7.3,11.7,16.2,14.5,25.7.2.7,1,1,1.6.5,16.4-12.5,32.8-25,49.2-37.5.8-.6,1.9.2,1.7,1.2-.8,3.5-1.1,7.2-.8,10.8.7,7.7,4.8,15.8,12.2,18,5.8,1.8,12.7-2.2,14.4-7.5.3-1,2.4-1.9,3.1-1.1,1.9,2.2,3.9,4.4,5.8,6.6.4.4,1,.5,1.4,0,7.7-7.5,12.9-17.5,14.6-28.1.2-.9,1.5-1.2,2-.4,7.5,10.9,19.1,19.1,32,22.4.6.2,1.2-.3,1.2-.9,1.1-9.1,6.9-17.4,14.8-21.8.8-.4,1.7.3,1.6,1.2-.6,5.3,2.8,10.8,7.4,13.9,4.7,3.1,10.4,4.3,16.1,5.3.8,0,1.4-.7,1.2-1.4-1.4-5.5,1-11.9,5.8-15,.5-.3,1.2,0,1.4.5,5,13.7,16.7,24.8,30.6,28.9.3,0,.7,0,.9-.2,9.8-8.2,16-20.4,17-33.1,0-.9,1.2-1.3,1.8-.7,18.1,18,42.6,29.4,68,31.6.5,0,1-.3,1.1-.8,1.3-7.6,3.8-15,7.3-21.8.3-.6,1.2-.7,1.7-.2,8.8,9.6,23,13.9,35.6,10.9.3,0,.6-.3.7-.7,2-6.3,5.5-12.1,10.1-16.9.5-.5,1.3-.3,1.6.3,6.1,14.5,19.1,26,34.3,30.2,1.8.5,3.7.9,5.5.2,1.5-.6,2.5-1.9,3.5-3.1l25.5-31.5c.5-.6,1.4-.4,1.7.3,4.6,11,13.5,20.1,24.4,24.9.5.2,1.1,0,1.3-.6,3.9-9.9,11.1-18.6,20.2-24.2.7-.4,1.6,0,1.6.9,0,9.2,7,17.5,14.9,22.7,13,8.6,29.6,11.6,44.9,8.3.2,0,.5-.2.6-.4,5.1-8.1,3.3-19.7-3.3-26.5-.8-.8,0-2.5,1-2.2,12.7,2.8,24.5,9.4,33.4,18.8.5.5,1.3.4,1.6-.2,2.6-4.8,4.8-9.9,6.7-15.1.2-.7,1-.9,1.6-.4,8.3,7.1,14.9,16.1,19.3,26.1.3.8,1.5.8,1.9,0,7.4-14,19.4-25.5,33.7-32.3.4-.2,1,0,1.2.3,13.7,18.3,39.3,27,61.3,20.5.4,0,.7-.4.7-.8,1.7-11.5,7.1-22.5,15.3-30.8.5-.5,1.5-.3,1.7.4,3.6,11,14.1,19.6,25.6,20.9.5,0,.9-.3,1-.7,1.1-5.3.8-10.9-1-16-.3-.9.6-1.8,1.5-1.3,8.7,4.7,16.3,11.2,22.4,19,.5.6,1.4.5,1.7-.2,4.4-8.5,10.7-16,18.3-21.9.7-.5,1.6,0,1.6.8,0,3.8,0,7.7,1.7,11,2,4,7,6.8,11,4.9,1.6-.8,2.9-2.2,4-3.6,4.6-5.6,8.6-11.7,11.8-18.1.3-.7,1.3-.8,1.7-.2,6.6,8.3,14.7,15.5,23.7,21.1,4.3,2.7,9.1,5,14.2,5.1s10.6-2.7,12.1-7.6c1.5-4.6-.8-9.7-4.3-12.9-1.4-1.3-3-2.3-4.6-3.2-1-.6-.6-2.2.6-1.9,19.4,4.4,37.3,15.3,50,30.6.6.7,1.8.3,1.9-.6,1.2-9.8,6.9-19.1,15.2-24.5.8-.5,1.8.3,1.7,1.3-1.2,8.8,9.2,17.7,18.2,15.2,8.7-2.4,13.6-12.3,12.6-21.3-.1-1,1.4-1.9,2.2-1.3,20.9,17.6,52.4,21.8,77.1,9.9.7-.3,1.5.2,1.5.9l-1.7,149.4c0,1.1-1.8,1.5-2.4.7-7.2-9.2-24.6-20.4-26.6-19.6-1.9.8-3.2,2.6-4.2,4.4-4.4,7.6-7.7,15.9-9.5,24.6-.2.8-1.1,1.1-1.7.5-4.5-4.6-8.3-10-11.1-15.9-.3-.7-1.3-.8-1.7-.1-3.8,6-6.5,12.8-7.8,19.8-.1.8-1.1,1.1-1.7.5-3-3.1-5.7-6.5-8-10.1-.4-.6-1.4-.6-1.8,0-4,6.9-8.7,13.4-14,19.4-.4.5-1.2.4-1.6-.1-9.9-13.7-23.9-24.4-39.8-30.4-.8-.3-1.5.4-1.3,1.2,2.9,12.2.4,25.5-6.6,35.9-.5.8-1.7.4-1.9-.5-2.8-14.8-19.4-23.7-34.4-27.9-2.8-.7-5.6-1.4-8.4-1.1-8.5,1.1-12.3,10.6-14.2,19.4-.2.9-1.4,1.1-1.8.3-2.7-5.7-4.3-11.9-4.8-18.2,0-.9-1.2-1.3-1.8-.7-5.1,5.5-9.6,11.6-13.4,18.2-.4.7-1.4.7-1.7,0-2.2-4.1-3.6-8.5-4.3-13.1,0-.8-1.1-1.2-1.7-.6-6.4,5.7-11.2,13-14,21.1-.2.7-1,.9-1.6.5-11.4-8.8-23.4-16.8-36-23.9-.7-.4-1.5.1-1.5.9,0,11.3-4.7,22.6-12.8,30.5-.6.6-1.6.2-1.7-.6-2-11.8-13.4-21.5-25.4-21.4-.5,0-.9.4-.9.9-1.2,8.4-5.2,16.4-11.3,22.4-.4.4-1.1.3-1.5-.1-7.1-9.6-16.9-17.4-27.9-22.1-2.1-.9-4.4-1.7-6.5-.9-1.7.7-2.9,2.3-3.8,3.9-4,6.4-7.4,13.3-9.8,20.5-.2.7-1.2.9-1.7.4-11.8-12.3-25.8-22.5-41.1-30-.7-.3-1.5.2-1.5.9,0,11.5-6.1,22.8-15.7,29.2-.5.4-1.2.1-1.5-.5-3.2-8.3-9.9-15.2-18.2-18.5-.5-.2-1.1.1-1.3.6-1.9,5.5-3.2,11.2-3.7,17,0,.9-1.2,1.3-1.7.6-4.6-5.2-8.4-11.1-11.4-17.4-.2-.5-.9-.7-1.4-.5-15.9,8.7-30.3,20.1-42.3,33.7-.5.5-1.3.4-1.6-.2-5.8-11.3-7.5-24.7-4.6-37.2.2-.9-.7-1.6-1.5-1.1-9.3,6-16.4,15.3-19.8,25.8-.3.9-1.7,1-2.1.2-5.8-11.5-17.1-20.1-29.8-22.6-.7-.1-1.3.6-1.1,1.3,1.8,6.5.8,13.8-2.8,19.6-.4.6-1.3.6-1.7-.1-4.3-7.5-11.7-13.1-20-15.2-.6-.1-1.2.3-1.2.9-.7,5.8-3.3,11.5-7.3,15.8-.4.4-1.1.4-1.5-.1-6-8-9.6-17.6-10.4-27.5,0-.7-.8-1.2-1.5-.8-21.9,11.2-40.3,29-52.2,50.4-.4.8-1.6.7-1.9-.2-6.8-20.3-26.4-35.8-47.8-37.5-.6-.1-1.2.5-1.1,1.2,1.4,10.6-3.8,21.9-12.6,27.8-.7.4-1.5-.1-1.6-.8-.6-9.1-8.1-17.5-17.1-19.1-.7-.1-1.2.5-1.1,1.2,1.3,6.8-2.3,14.3-8.4,17.5-.6.3-1.2-.1-1.4-.7-2.8-13.7-15.2-25-29.1-26.4-.4,0-.8.2-1,.6-2.3,5.5-3.6,11.3-3.9,17.2,0,.8-1,1.3-1.6.8-19.5-14.6-42.5-24.6-66.5-28.9-.6-.1-1.2.4-1.2,1,0,9.3-1.9,18.5-5.4,27-.3.7-1.1.8-1.6.3-8.7-8.9-19.8-15.5-31.8-18.7-.7-.2-1.4.4-1.3,1.2,1.1,7.9-1.8,16.2-7.4,21.7-.7.6-1.8,0-1.7-.9.3-7.5-4.3-15-11.2-17.8-.5-.2-1.1.1-1.3.7-2.1,7.5-6.4,14.3-12.2,19.4-.4.4-1.1.3-1.5-.2-13.5-18.7-35-31.4-57.8-34.1h-.4c-16,4.8-29.9,16.3-37.8,31-.3.6-1.2.7-1.6.2-6.5-7.5-10.5-17.1-11.2-27,0-.8-1-1.3-1.6-.7-7.5,6.3-13.2,14.8-16.2,24.1-.2.7-1.2,1-1.7.4-6.7-7.3-11.7-16.2-14.5-25.7-.2-.7-1-1-1.6-.5-16.4,12.5-32.8,25-49.2,37.5-.8.6-1.9-.2-1.7-1.2.8-3.5,1.1-7.2.8-10.8-.7-7.7-4.9-15.8-12.2-18-5.7-1.8-12.7,2.2-14.3,7.5-.3,1-2.4,1.9-3.1,1.1-1.9-2.2-3.9-4.4-5.8-6.6-.4-.4-1-.5-1.4-.1-7.7,7.5-12.9,17.5-14.6,28.1-.2.9-1.5,1.2-2,.5-7.5-10.9-19.1-19.1-32-22.4-.6-.2-1.2.3-1.3.9-1.1,9.1-6.9,17.4-14.8,21.8-.8.4-1.6-.3-1.6-1.2.6-5.3-2.8-10.8-7.4-13.9-4.7-3.1-10.4-4.3-16.1-5.3-.8-.1-1.4.7-1.2,1.4,1.4,5.5-1,12-5.8,15-.5.3-1.2.1-1.4-.5-5-13.7-16.7-24.8-30.6-28.9-.3-.1-.7,0-.9.2-9.8,8.2-16,20.4-17,33.1,0,.9-1.2,1.3-1.8.7-18.1-18-42.5-29.4-68-31.6-.5,0-1,.3-1.1.8-1.3,7.6-3.7,15-7.3,21.8-.3.6-1.2.7-1.7.2-8.8-9.6-23-13.9-35.6-10.9-.3.1-.6.3-.7.7-2,6.3-5.5,12.1-10.1,16.9-.5.5-1.4.3-1.6-.3-6.1-14.5-19.1-26-34.3-30.2-1.8-.5-3.7-.9-5.5-.2-1.5.6-2.5,1.9-3.5,3.1l-25.5,31.5c-.5.6-1.4.4-1.7-.3-4.6-11-13.5-20.1-24.4-24.9-.5-.2-1.1,0-1.3.6-3.9,9.9-11.1,18.6-20.2,24.2-.7.4-1.6-.1-1.6-.9,0-9.2-7-17.5-14.9-22.7-13-8.6-29.6-11.6-44.9-8.3-.3.1-.5.2-.6.4-5.1,8.1-3.3,19.7,3.3,26.5.8.8,0,2.5-1,2.2-12.7-2.8-24.5-9.4-33.4-18.8-.5-.5-1.3-.4-1.6.2-2.6,4.8-4.8,9.9-6.7,15.1-.2.7-1.1.9-1.6.4-8.3-7.1-14.9-16.1-19.3-26.1-.3-.8-1.5-.8-1.9-.1-7.4,14-19.4,25.5-33.7,32.3-.4.2-.9.1-1.2-.3-13.7-18.3-39.3-27-61.3-20.5-.4.1-.6.4-.7.8-1.7,11.5-7.1,22.5-15.3,30.8-.5.5-1.5.3-1.7-.4-3.6-11.1-14.1-19.6-25.6-20.9-.5-.1-.9.3-1,.7-1.1,5.3-.8,10.9,1,16,.3.9-.6,1.8-1.5,1.3-8.6-4.7-16.3-11.2-22.4-19-.5-.6-1.4-.5-1.7.2-4.4,8.5-10.7,16-18.3,21.9-.7.5-1.6,0-1.6-.8.1-3.8,0-7.7-1.7-11-2-4-7-6.8-11-4.9-1.5.7-11.7,14.2-15.8,21.7-.4.7-1.3.7-1.7.2-6.6-8.3-14.7-15.5-23.7-21.1-4.3-2.7-9.1-5-14.2-5.1-5.1-.1-10.6,2.7-12.1,7.6-1.5,4.6.8,9.7,4.4,12.9,1.4,1.3,3,2.3,4.6,3.2,1,.6.6,2.2-.6,1.9-19.4-4.4-37.3-15.3-50-30.6-.6-.7-1.8-.3-1.9.6-1.2,9.8-6.9,19.1-15.2,24.5-.8.5-1.8-.3-1.7-1.3,1.2-8.8-9.2-17.7-18.2-15.2-8.7,2.4-13.6,12.3-12.6,21.3,0,1-1.4,1.9-2.2,1.3-20.9-17.6-52.4-21.8-77-9.9-.7.3-1.5-.2-1.5-.9l1.5-149.6Z"/>
  <path class="cls-2" d="M572.6,189.4c2.3,6.8,8,21.6,12,26M590.1,175.9c5.2,8.8,18.3,27.8,29.5,33M702.1,52.9c7.3,8.5,27,26.2,47,29M749.1,189.4c16.3,4.3,51.1,14.3,59.5,19.5M740.1,180.4c-.8,5-2.9,16-4.5,20-5.8-2.7-19.4-8.1-27-8.5M292.6,192.4l-7,21,15.5-2.5M315.6,80.9c1.8,2.8,7.2,9.3,14,12.5M161.1,84.4c1.7,3.8,7.2,12.2,16,15M566.1,104.9c2-3,14.5-25,14.5-30.5l14,18.5M1526.6,172.9c-14,6-31.2,18.8-38,24.5.7-9.3,2.7-28.8,5.5-32M1639.1,175.4c-.5,5.7-.4,18.5,4,24.5,2.3-2.5,8.1-7.9,12.5-9.5M1668.6,53.9c1.2,7.5,2.8,23.8,0,29M1536.1,65.4c-4.7,6.2-14.5,19.8-16.5,25M1506.1,82.9c-1,3.8-3,12.9-3,18.5M2005.1,143.9c2.2,6.8,6.7,23.9,7.5,37.5M1170.1,181.4c7,3.7,22.3,12.2,27.5,17M1297.1,181.4c8.3,2.3,26.6,8,33,12M1792.6,175.4c5.2,2.8,17.6,11.1,26,21.5,2.3-6.2,7.1-20.7,7.5-29.5"/>
</svg>