<?xml version="1.0" encoding="UTF-8"?><svg id="a" xmlns="http://www.w3.org/2000/svg" viewBox="0 0 500.43 905"><defs><style>.b{fill:#ffce00;}.b,.c,.d,.e{stroke:#000;stroke-miterlimit:10;stroke-width:5px;}.f{fill:#eaeaea;}.f,.g,.h,.i,.j,.k,.l{stroke-width:0px;}.g{fill:#000;}.h{opacity:.3;}.h,.j,.e{fill:#fff;}.i,.c{fill:#be1e2d;}.j{opacity:.25;}.d{fill:#e29700;}.k{fill:#231f20;}.l{fill:#d84456;}</style></defs><path class="c" d="M162.92,259.45c23.87-14.7,29.86-26.04,30.55-33.95.17-1.97.45-8.38,3.8-15.63.74-1.6,3.53-7.31,9.62-11.82,2.61-1.93,4.48-3.38,5.7-2.74,3.71,1.93-2.22,21.16-1.85,21.25.31.08,1.76-14.01,11.21-20.39.68-.46,4.97-3.28,6.71-1.92,1.37,1.07.46,4.16-.32,7.41-2.72,11.3-2.79,19.68-2.54,19.73.3.07.05-12.25,8.04-20.32,7.52-7.58,18.25-7.31,20.27-7.21,5.14.24,12.22,2.08,12.45,4.78.15,1.81-2.89,2.65-9.16,6.78-4.42,2.92-10.8,7.2-15.81,13.98-2.29,3.1-3.63,5.82-5.85,10.35-2.4,4.88-3.7,7.54-4.69,11.55-1.21,4.87-1.33,9.23-1.46,13.84-.07,2.4-.03,4.41,0,5.81"/><path class="j" d="M199.86,236.31c1.05,5.52,6.4,11.8,13.28,12,4.45.13,8.77-2.3,11.06-5.5,2.66-3.71.96-6.09,4.1-11.2,2.4-3.9,5.48-5.6,4.93-6.51-.47-.78-3.3-.47-5.3.72-1.29.77-1.52,1.47-2.77,1.81-.09.02-2.06.53-3.62-.48-2.7-1.76-1.5-6.36-3.49-6.99-.88-.28-1.83.4-2.29.72-1.63,1.16-1.2,2.69-2.89,4.58-.53.59-1.76,1.96-2.77,1.69-1.22-.33-.74-2.68-2.53-5.42-.18-.28-2.24-3.38-3.86-3.01-1.11.25-1.45,2.03-2.41,6.75-1.3,6.4-1.67,9.66-1.45,10.85Z"/><path class="b" d="M227.41,866.98c-17.13-26.29-28.18-50.2-35.32-68.29-18.25-46.22-28.01-70.97-23.55-98.9.95-5.96,3.49-17.92,0-32.97-3.79-16.34-12.49-26.84-15.31-30.61-26.09-35-12.29-87.19-9.42-101.26,4.52-22.13,9.9-24.69,8.86-40.62-1.23-18.82-9.26-23.23-16.63-49.53-5.42-19.32-6.18-35.11-6.87-49.53-1.46-30.31,3.33-34.62-.72-56.04-4.23-22.39-10.34-22.26-9.4-35.43,1.63-22.96,21.46-41.38,37.96-49.89,3.4-1.75,14.73-7.38,30.37-7.95,10.43-.38,28.96-1.07,43.02,12.29,10.77,10.23,12.99,23.35,14.1,30.01,2.8,16.75.44,43.79-16.99,58.21-12.73,10.53-27.33,9.25-35.79,24.95-2.37,4.4-3.49,8.14-3.62,10.12-.26,4.18-.07,28.72,24.95,61.82,4.23,5.59,11.71,12.94,26.39,27.84,16.93,17.18,18.4,17.67,27.84,27.48,22.77,23.65,34.16,35.47,39.77,52.42,5.87,17.74,3.95,33.06,2.53,44.47-2.04,16.34-4.73,37.88-20.61,52.78-4.32,4.05-15.55,13.19-30.73,20.61-7.9,3.86-12.73,5.23-16.63,10.48-7.07,9.52-4.25,22.59-3.25,27.84,8.1,42.68-11.77,56.76-1.08,104.48,2.98,13.3,9.1,32.64,23.14,54.59"/><path class="b" d="M263.67,548.2c-3.46-11.38-8.33-32.8-4.34-59.29,1.11-7.34,4.38-23.35,23.86-58.57,10.14-18.33,22.46-40.33,44.11-66.52,44.33-53.64,79.94-66.96,93.28-93.28,1-1.98,3.61-7.44,7.95-7.95,8.02-.95,19.57,15.18,19.52,29.65-.05,15.5-13.41,25.96-23.14,35.43-16.67,16.22-26.78,38.05-47,81.71-12.81,27.66-31.52,68.04-36.88,118.58-1.56,14.7-3.32,42.75-23.86,61.46-5.62,5.11-11.23,8.25-15.18,10.12"/><path class="c" d="M329.71,88.8c-.68,33.09,33.33,88.94,36.15,93.52,36.03,58.44,31.75,48.7,37.12,59.29,19.13,37.76,22.81,61.61,46.76,74.72,4.7,2.57,16.68,9.13,28.44,4.82,11.47-4.2,16.4-16.42,17.35-18.8,9.53-23.67-11.8-38.49-22.66-88.7-3.13-14.5-7.23-34.22-4.34-59.29,1.23-10.67,2.47-11.42,7.23-39.05,6.6-38.28,6.17-48.15,0-53.99-4.85-4.6-12.37-5.86-18.32-4.82-9.49,1.66-14.81,9.68-17.35,13.5-4.22,6.33-5.39,12.33-7.23,21.69-2.05,10.43-1.99,17.36-2.41,17.35-.78-.02-1.35-23.93-2.89-52.54-.99-18.34-1.87-29.22-9.16-40.49-2.82-4.37-8.46-13.08-16.87-13.5-10.04-.5-17.6,11.14-19.76,14.46-10.6,16.3-8.02,35.52-5.78,50.62,3.76,25.43,12.96,44.47,12.05,44.83-.74.29-5.94-12.58-16.87-28.44-10.15-14.73-15.34-17.66-20.25-18.32-5.08-.68-10.61.97-14.46,4.34-6.35,5.56-6.66,14.51-6.75,18.8Z"/><path class="j" d="M376.95,157.39c4.3-4.96,20.15,5.48,25.91-1.08,5.85-6.67-5.81-22.81,1.08-29.28,2.64-2.48,6.64-2.27,8.68-2.17,10.56.53,13.2,11.05,19.72,10.22,6.85-.88,7.11-12.91,16.91-15.28,1.03-.25,4.94-1.19,7.83.72,6.3,4.18,3.22,18.99,2.17,24.95-6.56,37.15,4.88,75.24,6.39,80.25,5.75,19.14,12.97,26.38,15.91,49.65,1.96,15.49.04,22.44-4.34,26.03-7.18,5.89-19.53,1.57-21.21.96-22.83-8.3-19.57-37.44-43.38-82.06-18.34-34.35-41.26-56.47-35.67-62.91Z"/><path class="c" d="M225.73,864.38c-15.43,2.96-15.79-.23-75.34-.44-5-.02-17.73.08-30.37,7.23-5.45,3.08-12.5,8.39-11.57,10.61.91,2.18,9.24.68,13.02,0,12.41-2.24,20.78-7.05,21.21-6.27.38.69-6.35,4.01-13.02,11.57-.54.62-8.08,9.24-6.43,11.27.78.95,3.45.43,10.81-3.02,1.74-.81,20.02-9.36,20.69-8.25.31.51-3.22,2.98-9.23,9.13-4.55,4.66-4.44,5.5-4.27,5.82,1.02,1.86,11.91-2.3,13.5-2.89,32.49-12.06,110.43,10.66,121-9.16,4.69-8.8-4.36-25.15-15.45-30.46-9.59-4.6-16.01,1.32-34.54,4.87Z"/><path class="i" d="M119.64,366.01c-2.34,8.17-3.43,21.69,2.02,25.86,2.49,1.91,5.38,1.12,5.83.98,3.69-1.08,4.69-4.76,10.52-13.64,5.77-8.77,7.48-9.26,7.67-12.71.35-6.52-5.45-11.23-6.84-12.36-1.94-1.58-5.51-4.47-9.61-3.11-5.86,1.95-8.5,11.16-9.59,14.98Z"/><path class="l" d="M119.64,366.01c-2.81,8.96-2.95,21.53,2.02,25.86,2.12,1.85,5.2,2.2,5.83.98.78-1.5-2.84-4.03-4.49-10.03-2.07-7.5.28-15.6,1.58-20.07,2.17-7.48,5.04-11.34,4.66-11.72-.52-.51-6.63,5.54-9.59,14.98Z"/><path class="g" d="M125.48,395.69c-1.57,0-3.54-.37-5.38-1.78-6.68-5.12-5.41-19.9-2.92-28.59,1.23-4.29,4.1-14.33,11.25-16.7,5.43-1.81,9.89,1.81,12.03,3.55,6.78,5.51,7.97,10.92,7.78,14.49-.16,2.97-1.24,4.42-3.39,7.3-1.12,1.51-2.66,3.57-4.7,6.67-1.65,2.5-2.92,4.62-3.95,6.33-2.75,4.56-4.4,7.31-7.99,8.36-.47.14-1.47.38-2.72.38ZM131.42,353.24c-.46,0-.92.07-1.38.22-4.58,1.52-7.02,10.04-7.94,13.25h0c-2.52,8.82-2.68,20.22,1.11,23.12,1.44,1.1,3.22.66,3.56.56,1.6-.47,2.48-1.83,5.04-6.09,1.05-1.74,2.36-3.91,4.06-6.5,2.13-3.23,3.71-5.36,4.87-6.92,2.04-2.74,2.31-3.17,2.38-4.52.13-2.38-.79-6.09-5.89-10.24-1.83-1.49-3.76-2.89-5.81-2.89Z"/><path class="b" d="M159.55,539.88c-12.94,7.39-34.63,17.15-62.55,18.08-16.96.56-40.2,1.34-60.38-14.1-17.58-13.45-24.01-32.45-28.2-44.83-4.66-13.77-5.1-23.98-5.78-39.77-.53-12.29.4-17.63,3.62-22.42,5.14-7.67,13.53-10.06,18.8-11.57,14.23-4.06,32.92-2.04,36.88,6.51.99,2.13,1.62,5.88,1.45,9.4-.12,2.54-.26,4.72-1.81,6.15-2.19,2.01-5.69,1.14-5.78,1.81-.1.71,3.97.8,6.87,3.62,2.03,1.97,3.39,5.17,2.89,8.32-.53,3.34-2.95,5.38-4.34,6.51-3.8,3.09-7.36,3.33-14.46,4.7-10.41,2-15.65,3.06-17.35,5.78-2.57,4.11.31,10.18,2.17,14.1.82,1.74,6.85,14.01,19.52,19.88,14.83,6.87,30.38,1.09,45.94-4.96,13.73-5.33,35.74-16.09,58.18-38.42"/><path class="b" d="M205.82,438.53c25.51,9.42,73.55,28.62,116.42,56.16,17.53,11.26,29.34,20.81,40.13,33.62,10.67,12.66,20.61,24.46,26.37,41.81,1.96,5.92,3.36,12.25,8.7,20.01,6.76,9.83,11.16,9.16,16.27,17.72.81,1.36,11.29,19.42,3.25,30.73-3.35,4.72-8.71,6.56-16.99,9.4-1.12.38-2.81.91-4.7.36-3.15-.92-5.16-4.36-5.78-7.23-1.31-6.02,2.96-11.7,2.53-11.93-.42-.22-2.44,6.37-6.87,7.59-5.06,1.4-11.47-4.7-14.46-9.76-.79-1.33-4.5-7.61-2.89-14.82,1.52-6.83,6.45-8.41,6.51-14.46.01-1.18-.15-4.22-3.25-8.68-32.09-46.04-94.72-78.45-94.72-78.45-15.67-7.23-31.33-14.46-47-21.69"/><ellipse class="e" cx="224.62" cy="275.24" rx="33.08" ry="21.15" transform="translate(-116.75 373.6) rotate(-66.86)"/><path class="k" d="M217.07,270.63c2.73-4.41,7.49-6.42,10.63-4.47s1.93,8.5.74,11.51c-.63,1.6-1.52,3.87-3.94,5-2.1.98-4.84.85-6.69-.53-3.26-2.43-2.87-8.07-.74-11.51Z"/><path class="f" d="M213.02,276.22c-.96,10.56,4.03,18.24,2.37,19.01-1.38.64-5.77-4.18-7.41-9.76-.18-.62-.78-2.79-.72-5.78.06-3.18.86-6.89,3.83-12.11,4.72-8.32,11.66-14.73,12.44-14.1.93.74-9.26,9.15-10.5,22.74Z"/><ellipse class="e" cx="189.37" cy="260.96" rx="33.08" ry="21.15" transform="translate(-127.78 319.06) rotate(-64.41)"/><path class="k" d="M183.86,259.33c2.73-4.41,7.49-6.42,10.63-4.47s1.93,8.5.74,11.51c-.63,1.6-1.52,3.87-3.94,5-2.1.98-4.84.85-6.69-.53-3.26-2.43-2.87-8.07-.74-11.51Z"/><path class="f" d="M177.61,264.54c-.96,10.56,4.03,18.24,2.37,19.01-1.38.64-5.77-4.18-7.41-9.76-.18-.62-.78-2.79-.72-5.78.06-3.18.86-6.89,3.83-12.11,4.72-8.32,11.66-14.73,12.44-14.1.93.74-9.26,9.15-10.5,22.74Z"/><path class="c" d="M142.19,293.31c-4.78,3.68-6.34,10.03-2.17,59.29.53,6.29,1.48,16.94,5.06,30.37,5.05,18.96,9.98,23.37,14.1,25.31.78.37,6.06,2.77,11.93,1.08,7.78-2.23,11.57-10.2,13.74-14.1,13.56-24.43,40.37-28.44,53.51-52.06,1.62-2.91,3.86-7.61,2.89-13.02-.36-2.02-1.45-5.66-7.95-11.93-10.47-10.1-14.94-7.71-20.97-15.18-6.36-7.88-4.39-14.25-9.76-16.27-4.48-1.69-6.61,2.45-15.55,4.34-10.11,2.13-13.29-1.93-26.39-1.45-9.52.35-14.43.53-18.44,3.62Z"/><path class="d" d="M153.48,312.7c-2.97,2.29-3.94,6.24-1.35,36.87.33,3.91.92,10.53,3.15,18.88,3.14,11.79,6.21,14.53,8.77,15.74.49.23,3.77,1.72,7.42.67,4.84-1.39,7.2-6.34,8.54-8.77,8.43-15.19,25.1-17.68,33.27-32.37,1-1.81,2.4-4.73,1.8-8.09-.23-1.26-.9-3.52-4.95-7.42-6.51-6.28-9.29-4.79-13.04-9.44-3.95-4.9-2.73-8.86-6.07-10.12-2.78-1.05-4.11,1.53-9.67,2.7-6.29,1.33-8.26-1.2-16.41-.9-5.92.22-8.98.33-11.47,2.25Z"/><path class="h" d="M389.95,319.61c-38.66,26.24-64.18,63-70.6,72.41-24.02,35.19-38.97,57.48-31.82,66.52,3.83,4.84,12.75,4.31,20.25,2.89,21.73-41.9,43.07-73.53,59.29-95.45,16.51-22.31,38.11-48.59,34.81-51.8-1.43-1.39-6.98,2.06-11.93,5.42Z"/><path class="h" d="M158.91,494.51c2.29,5.7-17.8,23.11-39.41,24.22-6.49.33-14.88-.71-15.18-2.89-.25-1.76,4.95-2.86,13.02-7.23,14.14-7.66,15.41-13.61,25.31-15.91,5.82-1.35,14.93-1.51,16.27,1.81Z"/><path class="h" d="M20.72,441.18c-2.49,5.87.02,12.83,4.34,16.63,7.87,6.93,21.43,3.11,22.42-.72.62-2.43-4.04-4-4.34-9.4-.16-2.95,1.15-3.87.72-7.23-.11-.88-.68-4.61-2.89-6.51-4.45-3.81-16.69-1.14-20.25,7.23Z"/><path class="h" d="M194.26,702.21c10.35,4.78,10.45,18.66,15.18,42.66,9.37,47.48,23.97,69.02,13.74,78.09-2.4,2.13-6.09,3.6-9.4,2.89-7.59-1.63-9.73-13.96-15.18-32.18-6.53-21.83-6.65-14.81-15.91-44.47-11.16-35.78-9.61-41.62-6.51-44.83,4.2-4.34,12.35-4.81,18.08-2.17Z"/><path class="h" d="M177.26,871.33c-1.62,1.25-.09,4.57,1.08,6.31,3.69,5.47,11.81,4.35,29.89,4.38,20.31.03,28.24,1.47,42.18-2.35,11.35-3.12,12-5.69,12.05-6.57.17-2.92-5.22-6.19-10.12-6.99-4.15-.68-7.42.49-9.64,1.21-5.46,1.76-11.76,2.43-24.34,3.78-7.72.83-14.53,1.16-23.62.62-10.17-.6-15.17-2.17-17.47-.39Z"/><path class="h" d="M249.01,581.34c5.03,20.54,8.12,33.18,1.62,45.59-7.18,13.71-24,22.23-39.07,21.63-28.37-1.14-46.04-34.57-50.85-56.91-.51-2.37-8.67-43.24,17.07-66.01,2.05-1.82,18.47-16.41,33.77-11.51,9.92,3.17,15.08,13.92,25.41,35.41,4.32,8.98,8.74,18.32,12.04,31.81Z"/><path class="j" d="M171.99,331.86c-6.12.04-7.1-1.46-8.71-.43-1.87,1.18-2.32,4.3.42,21.16,2.1,12.92,3.07,15.43,4.71,15.74,2.14.39,3.05-3.42,9.45-8.18,3.52-2.61,4.16-2.14,9.12-5.38,5.81-3.8,10.55-6.89,10.09-9.72-.41-2.56-4.58-1.76-9.71-6.6-3.72-3.5-3.44-5.72-6.53-6.89-2.51-.95-3.38.26-8.85.3Z"/><path class="h" d="M242.11,460.85c3.06-1.68,6.83.91,17.57,6.77,5.52,3.01,11.28,5.57,16.72,8.72,30.61,17.67,41.35,19.28,52.72,33.45.82,1.02,8.07,10.15,6.35,12.05-1.55,1.71-9.24-3.7-18.95-9.16-20.18-11.35-49.71-23.27-60.8-27.75-6.49-2.62-14.72-5.81-16.64-12.82-1.12-4.1-.09-9.55,3.04-11.27Z"/><path class="h" d="M391.2,599.57c1.73.22,2.01,1.51,6.1,6.56,6.31,7.78,8.03,7.64,9.74,11.86.63,1.56,2.42,6.17.72,11.28-1.24,3.73-4.46,8.07-6.65,7.54-3.24-.79-.57-11.35-5.95-14.57-4.1-2.46-8.8,1.79-12.23-1.1-2.64-2.23-2.17-6.7-1.99-8.46.71-6.7,6.02-13.63,10.27-13.1Z"/></svg>