<?xml version="1.0" encoding="UTF-8"?><svg xmlns="http://www.w3.org/2000/svg" viewBox="0 0 1500 500"><defs><style>.b,.c,.d,.e,.f,.g,.h,.i,.j{stroke-width:0px;}.b,.c,.j{fill:#e49d6e;}.c{mix-blend-mode:screen;}.d{fill:#996148;}.d,.e,.h,.i,.j{mix-blend-mode:multiply;}.d,.k,.i,.j{opacity:.5;}.e{opacity:.4;}.e,.f,.h{fill:#b07054;}.l{opacity:.3;}.g{fill:#faae71;}.i{fill:#c0855e;}.m{isolation:isolate;}</style></defs><g class="m"><g id="a"><rect class="f" width="1500" height="500"/><g class="l"><path class="h" d="M769.76,195.4c-25.85,1.56-52.01,4.75-77.88,1.79-51.57-5.9-102.2-21.36-154.56-18.97-26.5,1.21-53.02,1.43-79.53,1.95-13.94.27-27.9.59-41.84,1.22-12.78.59-26.12.46-38.5,4-10.17,2.91-19.84,7.13-29.78,10.65,1.46-.05,2.91-.08,4.37-.17,11.89-.72,23.62-2.71,35.45-4.04,26.09-2.94,52.8-.95,79.05-1.85,26.76-.92,53.62-2.25,80.37-.82,26.07,1.38,51.54,6.13,77.16,10.82,26.96,4.94,54.96,11.7,82.41,12.73,25.26.95,50-6.24,74.95-9.06,25.2-2.85,50.66.29,75.83-2.66-8.5-3.85-18.09-5.3-27.32-5.96-19.89-1.41-40.31-.84-60.21.36Z"/><path class="h" d="M1144.24,102.04c-15.11.31-30.3-.58-45.17-3.42-16.97-3.23-33.69-8.5-50.91-10.33-15.19-1.61-31.06-1.72-46.08,1.36-15.02,3.07-29.24,8.83-44.12,12.44,3.02-.43,6.05-.87,9.09-1.25,30.55-3.85,60.03-3.58,90.24,2.51,16.58,3.34,33.17,7.45,50.04,9.02,15.36,1.43,30.54.37,45.87-.97,27.62-2.42,55.12-5.96,82.63-9.41-30.17-5.98-61.05-.57-91.6.05Z"/><path class="h" d="M672.54,108.55c24.31,0,48.86-2.07,73.07.94,9.39,1.17,18.06,3.53,27.09,6.25,9.86,2.97,20.27,5.99,30.3,3.04-35.37-18.62-77.08-15.82-115.95-15.76-10.89.02-21.76-1.1-32.63-.98-11.86.13-23.3,2.31-34.64,5.62-6.45,1.89-12.84,3.98-19.23,6.06,1.9-.38,3.8-.76,5.69-1.12,22.16-4.22,43.79-4.06,66.29-4.06Z"/><path class="h" d="M1083.15,288.38c-20.13,4.54-41.09,9.84-61.97,10.62,9.12,2.11,18.35,4.19,27.62,4.26,13.08.1,25.3-3.71,37.89-6.77,46.15-11.18,93.23-20.18,140.81-21.79-47.84-9.33-97.66,3.14-144.36,13.68Z"/></g><g class="k"><path class="d" d="M458.4,361.64c-.18,0-.39.37-.14.37.18,0,.39-.37.14-.37Z"/><path class="d" d="M268.52,299.56c-27.38-4.38-53.01.82-80.16-.65-16.41-.89-32.65-2.14-48.9-4.47-12.69-1.82-25.64.36-38.16-2.04-1.46-.28-3.57,2.6-1.86,3,10.11,2.42,20.44,2.1,30.76,3.44,16.15,2.09,31.99,4.86,48.28,6.28,12.57,1.09,22.22,3.23,34.84.95,19.33-3.48,33.61-4.87,53.35-3.51,1.39.1,3.61-2.72,1.86-3Z"/><path class="d" d="M548.1,308.21c-14.53.18-29.08-.12-43.6.46-14.77.59-27.97,6.86-42.57,8.02-33.07,2.61-66.26,2.33-99.47,2.99-1.97.04-4.41,4.08-1.61,4.17,31.1.98,61.27,3.46,92.38,1.3,15.26-1.06,27.45-5.91,42.33-8.94,16.53-3.36,33.94-1.33,50.69-3.18,2.14-.24,5.15-4.86,1.86-4.81Z"/><path class="d" d="M331.96,273.7c-13.54-1.04-27.06,1.35-40.63.12-1.74-.16-4.2,3.31-2.2,3.56,13.17,1.67,26.83,2.8,40.11,1.75,2.03-.16,5.73-5.19,2.72-5.42Z"/><path class="d" d="M169.81,85.93c-11.43-1.35-23.19-1.4-34.27-4.57-10.42-2.99-22.89-.45-33.61-.15-1.68.05-3.78,3.5-1.38,3.57,11.87.34,24.14,0,35.49,3.47,10.22,3.13,22.36.89,32.72-.22.73-.08,2.26-1.95,1.05-2.09Z"/><path class="d" d="M230.94,107.94c-7.9-1.22-16.11-.58-24.1-1.27-8.02-.69-14.87.07-22.67,1.95-1.42.35-2.66,3.32-.42,2.85,15.43-3.22,30.38,1.19,45.86-.89.89-.12,2.9-2.4,1.32-2.64Z"/><path class="d" d="M453.08,86.39c-25.95-5.73-53.04-1.52-79.25-4.42-23.89-2.65-46.82,1.56-70.74,1.69-1.41.01-3.51,3.29-1.72,3.41,22.98,1.63,45.61-2.95,68.35,1.52,13.13,2.58,27.11.87,40.42,1.8,13.61.96,28.12.96,41.54-1.23.91-.15,3.08-2.4,1.39-2.77Z"/><path class="d" d="M498.32,115.92c-8.3-1.11-16.65.13-25.02-1.19-7.91-1.24-16.85.96-24.56-.51-1.36-.26-3.3,2.45-1.73,2.79,3.25.71,5.48.45,8.85.01,3.44-.45,8.73.9,12.49,1.04,9.66.37,18.96,1.79,28.66.46.87-.12,2.85-2.4,1.31-2.6Z"/><path class="d" d="M388.99,194.33c-17.06-1.02-32.3.01-49.13-.17-19.18-.2-35.8-6.41-54.99-2.43-1.6.33-3.96,4.12-1.46,3.78,18.7-2.54,35.43,4.51,53.88,5.33,17.37.77,33.65-3.76,51.03-4.75.81-.05,1.88-1.69.68-1.76Z"/><path class="d" d="M772.99,206.15c-19.23-2.68-39.06-.82-58.41.03-8.95.4-16.74-3.87-25.1-3.5-9.75.42-19.78,1.83-29.5,1.19-1.63-.11-3.99,3.62-1.95,3.88,6.64.83,13.2.49,19.88.8,9.47.43,18.17,5.42,27.47,5.28,21.78-.33,44.2-1.38,65.78-4.06,1.24-.15,3.96-3.32,1.82-3.62Z"/><path class="d" d="M853.47,174.05c-3.15.83-6.25-.75-9.15.1-6.87,2.02-14.3,2.75-21.46,3.64-12.83,1.59-23.18,2.89-35.57,6.77-2.04.64-4.07,5.11-.64,4.32,13.95-3.21,27.43-3.7,41.48-5.78,8.16-1.21,18.47-.76,25.27-5.18,1.3-.85,3.26-4.72.06-3.87Z"/><path class="d" d="M685.46,103.23c-9.79,1.31-20.11,2.63-30.01,1.15-9.82-1.46-20.26.81-30.21.54-1.84-.05-4.51,4.18-2.21,4.39,10.87,1,21.67,2.2,32.57,2.23,10.52.03,19.96-.41,29.36-5.03.92-.45,2.69-3.57.48-3.28Z"/><path class="d" d="M1295.2,130.69c-16.15-.49-32.32-.55-48.48-.56-15.38,0-29.15,3.64-44.09,6.38-5.95,1.09-12.73-1.45-18.98-.64-5.75.75-12.06,1.05-17.62,2.62-17.72,5.02-40.33,6.97-58.67,4.11-1.65-.26-3.95,3.02-2.07,3.34,30.05,5.28,59.23-3.11,89.03-2.24,15.14.44,29.33-7.31,44.49-8.28,18.23-1.17,36.64-.37,54.9-.92,1.79-.05,4.05-3.75,1.48-3.82Z"/><path class="d" d="M1469.7,133.08c-30.1,3.57-61.01.85-90.73,6.75-2,.4-4.82,5.07-1.8,4.64,29.46-4.24,62.59,2.2,91.1-6.12,1.89-.55,4.92-5.69,1.43-5.27Z"/><path class="d" d="M1124.6,186.63c-7.71.69-15.28.47-22.77,2.41-12.35,3.19-23.51,6.89-36.51,7.29-11.76.36-24.11.86-35.67,2.84-13.21,2.27-22.7,4.84-36.16,1.9-1.52-.33-3.71,2.7-1.94,3.14,21.01,5.12,43.6-.57,65.11-1.26,23.21-.75,43.56-7.65,66.23-11.88,1.86-.35,4.72-4.69,1.71-4.43Z"/><path class="d" d="M970.59,76.39c-10.68-3.02-21.32-5.07-32.48-5.61-5.24-.25-11.05,1.58-16.25,2.12-8.2.85-16.89-.65-24.96-1.69-11.09-1.43-22.18-3.67-33.37-4-2.93-.09-9.75,3.18-12.34,4.18-8.26,3.2-17.59,2.99-26.35,3.15-1.73.03-3.85,3.62-1.41,3.65,11.89.14,21.65-.4,32.86-4.11,11.59-3.83,30.6,2.9,42.44,4.54,10.48,1.46,20.8,1.69,31.21-.36,12.37-2.43,25.92,2.42,38.54,2.35,1.66,0,4.46-3.56,2.12-4.22Z"/><path class="d" d="M1271.73,64.43c-33.84-.14-69.23.72-102.97-3.78-14.19-1.89-30.12,4.31-43.92,6.48-17.37,2.74-33.75,5.64-51.47,6.27-1.78.06-3.98,3.79-1.46,3.78,15.27-.06,29.71-.86,44.69-3.5,16.07-2.82,35.58-8.27,51.92-6.02,33.72,4.63,68.6,1.92,102.19-.6,1.2-.09,2.79-2.61,1.02-2.62Z"/><path class="d" d="M1409.01,69.12c-6.98-.26-14.03.13-21.01.26-1.58.03-3.53,3.31-1.29,3.36,6.91.13,13.89.51,20.8.25,1.8-.06,4.11-3.77,1.5-3.87Z"/><path class="d" d="M1032.65,373.94c-33.07,3.48-66.52,1.92-98.32,11.93-22.24,7-39.16,9.24-62.41,4.43-19.68-4.07-40.11,4.61-60.47.29-1.95-.42-4.76,3.46-2.49,4.02,16.12,4,32.19,2.63,48.66,1.66,11.15-.66,22.3,3.43,33.43,4.2,8.34.57,16.53-.65,24.64-2.23,7.91-1.54,15.47-5.21,22.97-7.88,11.42-4.06,22.77-6.3,34.96-7.51,18.99-1.86,39.14-1.99,57.75-5.56,1.41-.27,3.55-3.59,1.3-3.35Z"/><path class="d" d="M1355.37,295.71c-35.03,3.3-69.45,8.88-104.6,10.28-15.57.62-32.53,7.07-46.16,13.47-18.38,8.63-37.72,16.51-57.37,22.46-1.78.54-3.46,4.42-.55,3.71,35.61-8.7,69.55-30.31,106.7-31.75,17.29-.67,33.11-2.09,50-5.48,16.86-3.39,35.18-4.31,51.24-10.01.86-.31,2.58-2.85.73-2.68Z"/><path class="d" d="M1391.98,313.29c-12.83-2.34-25.82,2.85-38.04,5.41-1.45.3-3.16,3.92-.97,3.56,5.3-.86,10.36-2.54,15.64-3.44,7.07-1.2,14.42-.39,21.5-1.83,1.13-.23,4.17-3.29,1.86-3.71Z"/><path class="d" d="M1293.59,398.02c-16.49,4.85-31.88,3.78-48.77,6.37-17.24,2.65-34.17,6.87-51.12,10.75-1.54.35-3.38,4.22-1.03,3.81,20.43-3.61,41.31-8.41,62.14-9.14,15.77-.56,26.77,1.44,39.25-8.39,1.14-.9,2.23-4.2-.47-3.4Z"/><path class="d" d="M1378.14,382.12c-4.87-1.06-9.94,1.7-14.67,2.52-7.28,1.27-14.57,2.22-21.92,3.1-1.57.18-3.44,3.59-1.29,3.35,12.11-1.32,24.86-1.1,36.37-5.07,1.06-.36,3.79-3.41,1.52-3.9Z"/><path class="d" d="M787.16,335.23c-10.43-2.64-20.3.95-30.59-.83-3.02-.52-4.97-.81-8.14.01-7.68,2-14.58,1.54-22.37,1.36-1.38-.03-3.3,3.12-1.63,3.24,20.4,1.39,40-.25,60.53.61,1.76.07,4.61-3.79,2.2-4.4Z"/><path class="d" d="M313.61,409.47c-9.04-.28-17.23-1.5-25.78-4.06-4.85-1.45-10.92-5.17-16.24-4.88-8.8.47-16.52,1.71-25.42-.23-8.91-1.95-17.8-4.21-26.7-6.24-35.66-8.14-72.09-4.75-108.25-8.86-2.08-.24-4.84,3.88-2.57,4.15,37.73,4.47,75.48,2.65,112.44,12.18,14.19,3.65,28.21,9.42,43.06,6.44,9.26-1.85,16.85,5.88,25.54,6.28,8.08.37,15.54-.68,23.31-2.53.88-.21,2.12-2.21.61-2.26Z"/><path class="d" d="M385.09,424.79c-1.53-.28-2.98,0-4.21-1.02-1.46-1.22-4.55,2.18-3.05,3.44,1.48,1.24,3.56,1.42,5.48,1.12.91-.14,1.65-.72,2.1-1.45.34-.55.73-1.9-.32-2.09Z"/><path class="d" d="M82.35,349.58c-4.09-3.16-10.43-2.91-15.58-2.97-9.23-.1-17.39,2.06-26.58-.35-1.68-.44-4.15,2.9-2.17,3.52,6.95,2.16,13.57,2.25,20.84,1.89,7.2-.35,14.4,2.16,21.36,1.34,1.25-.15,3.55-2.34,2.14-3.43Z"/><path class="d" d="M816.61,445.98c-16.09-1.6-32.9,1.24-49.14,1.24-17.1,0-34.84-4.57-52.19-5.52-34.98-1.91-70.4,5.74-105.25,7.34-1.8.08-4.03,3.84-1.48,3.82,32.84-.26,65.52-4.11,98.39-4.17,9.13-.02,18.73.81,27.74,1.91,7.5.91,15.49,4.05,22.97,4.07,18.82.04,37.43-.31,56.06-2.95,1.94-.27,6.26-5.42,2.89-5.76Z"/></g><path class="e" d="M1428.61,115.84c-25.16,6.83-50.11,15.32-75.94,19.38-25.3,3.97-51,2.92-76.51,2.79-26.9-.14-53.17,2.35-79.8,5.88-35.09,4.64-69.98,10.73-105.08,15.23,48.96-2.72,98.18-6.28,146.33,3.51,16.47,3.35,32.66,7.7,49.27,10.46,17.53,2.91,35.17,5.12,52.83,7.14,32.52,3.73,65.11,7.14,97.13,14.08,1.45.31,1.59,2.33.4,3.03-25.32,14.82-54.43,23.41-82.92,29.89-13.3,3.02-26.74,5.66-40.28,7.71,49.72-1.56,99.42-4.61,149.11-.88,1.37.11,2.32,1.77,1.18,2.83-7.75,7.19-17.27,11.06-26.73,15.5-10.83,5.08-19.97,11.69-29.19,19.22-16.56,13.52-32.82,21.28-54.39,23.65-12.97,1.42-26,1.58-39.01,2.43-14.54.95-27.99,3.62-41.92,7.79-15.02,4.49-29.92,9.4-44.96,13.82,36.51-4.94,73.77-7.74,110.05-2.25,1.94.3,1.35,3.19-.44,3.26-39.53,1.56-79.92,9.03-116.14,25.24-15.95,7.14-30.44,17.59-47.09,23.15-14.01,4.67-28.54,6.32-43.25,7.11-20.87,1.11-41.12-.03-61.93-1.7-5.39-.43-10.84-.86-16.3-1.18-.26.31-.67.51-1.24.46-20.15-1.87-39.74,2.74-59.45,6.21-9.92,1.74-19.69,2.91-29.51,3.3-23.42,2.49-47.01,1.65-69.62-6.02-4.36-.21-8.73-.26-13.1-.04-19.81.99-38.98,5.52-58.34,9.39-11.76,2.35-23.68,4.58-35.69,5.22-12.42.66-24.88.12-37.31.64-26.57,1.1-53.03,3.68-79.48,6.39-53.31,5.47-105.93,9.81-159.5,5.46-100.53-8.15-202.16-16.26-299.54-43.88-1.56-.44-1.64-2.79,0-3.2,114.47-28.62,232.08-40.47,349.17-53.25-29.07-2.94-58.38-1.31-87.48,1.18-16.97,1.46-33.92,3.16-50.92,4.27-15.64,1.01-31.44.46-47.03,1.8-15.89,1.38-31.53,4.71-47.41,6.08-14.52,1.25-28.17.01-42.5-2.18-30.96-4.72-61.8-10.27-92.22-17.74-1.54-.38-1.66-2.91,0-3.2,29.97-5.31,57.19-20.25,87.42-24.55,27.85-3.95,55.62-2.59,83.56-3.35-28.17-7.53-58.56-6.94-87.3-4.27-16.75,1.56-33.43,3.89-49.97,6.96-17.27,3.21-34.05,8.1-51.17,11.91-18.31,4.06-37.08,7.21-55.91,6.8-18.57-.4-36.93-3.14-55.2-6.31-20.4-3.54-40.76-7.34-61.42-9.08-.62-.05-1.24-.11-1.86-.17v228.21h1500V100.26c-23.96,3.87-48,9.23-71.39,15.58Z"/><path class="e" d="M181.48,104.61c45.28.82,88.09-19.52,133.23-21.44,41.83-1.78,83.99,4.96,125.51-1.11-39.61-3.45-79.48-8.45-119.16-3.92-21.15,2.42-42.05,6.49-63.16,9.16-20.16,2.55-38.8,2.58-58.76-1.37-10.69-2.11-21.33-4.65-32.12-6.22-10.78-1.56-21.15-1.36-31.97-1.52-17.9-.26-35.56-3.07-53.11-6.39-26.86-5.07-54.61-11.32-81.93-9.86v35.6c16.04-1.89,32.09-3.77,48.18-4.39,44.83-1.71,88.58,10.62,133.3,11.44Z"/><path class="b" d="M1336.39,246.52c13.72-1.19,27.54-1.93,41.33-2.88,8-.55,15.96-1.29,23.96-1.84.61-5.36,1.43-10.71,1.48-16.07-.47-.26-.95-.53-1.42-.77-13.65-3.76-27.81-6.91-42.01-10-.28-.05-.57-.09-.85-.14-.67.06-1.34.11-2.01.16-8.7.63-17.43,1.1-26.03,2.05-2.42,1.33-4.81,2.66-7.22,3.9-9.81,5.08-19.97,10-28.7,15.67-.71,1.84-1.28,3.7-1.79,5.55,10.09,1.43,20.37,2.38,30.72,3.2,4.25.34,8.41.72,12.56,1.17Z"/><path class="c" d="M1320.07,225.97c5.62-2.98,10.92-6.75,18.49-8.18,7.34-1.39,15.02-2.1,22.81-2.47-.55-.12-1.11-.24-1.65-.36-.28-.05-.57-.09-.85-.14-.67.06-1.34.11-2.01.16-8.7.63-17.43,1.1-26.03,2.05-2.42,1.33-4.81,2.66-7.22,3.9-9.3,4.82-18.88,9.49-27.3,14.79,8.15-3.06,16.67-5.98,23.76-9.75Z"/><path class="j" d="M1401.73,224.96c-12.65-3.48-25.74-6.44-38.9-9.32-.83,2.32-1.44,4.67-2.3,6.95-1.42,3.75-3.27,8.36-8.74,11-2.83,1.35-5.73,1.97-9.32,2.43-6.86.88-13.65,1.9-20.48,2.83-8.61,1.17-18.41,1.8-27.03,3.54,9.5,1.29,19.15,2.18,28.86,2.96,4.25.34,8.41.72,12.56,1.17,13.72-1.19,27.54-1.93,41.33-2.88,8-.55,15.96-1.29,23.96-1.84.61-5.36,1.43-10.71,1.48-16.07-.47-.26-.95-.53-1.42-.77Z"/><path class="j" d="M1401.68,241.8c.55-4.49,1.44-11.57,1.48-16.07-.47-.26-.95-.53-1.42-.77-12.65-3.48-25.74-6.44-38.9-9.32-.83,2.32-1.44,4.67-2.3,6.95-1.28,3.39-2.94,7.46-7.28,10.16,10.14,1.26,42.3,8.21,48.42,9.05Z"/><path class="g" d="M1375.03,280.48c3.71-.32,7.45-.52,11.19-.78,2.16-.15,4.32-.35,6.48-.5.16-1.45.39-2.89.4-4.34-.13-.07-.26-.14-.38-.21-3.7-1.02-7.53-1.87-11.38-2.71-.08-.01-.15-.02-.23-.04-.18.02-.36.03-.54.04-2.36.17-4.72.3-7.05.55-.65.36-1.3.72-1.95,1.06-2.66,1.37-5.4,2.71-7.77,4.24-.19.5-.34,1-.48,1.5,2.73.39,5.51.64,8.31.86,1.15.1,2.28.19,3.4.32Z"/><path class="c" d="M1369.45,275.51c1.78-.97,3.47-1.96,5.74-2.56,1.44-.38,2.92-.68,4.43-.94-2.04.14-4.08.26-6.09.49-.65.36-1.3.72-1.95,1.06-2.66,1.37-5.4,2.71-7.77,4.24-.01.03-.01.06-.03.09,1.84-.84,3.96-1.44,5.68-2.38Z"/><path class="i" d="M1392.72,274.65c-3.43-.95-6.97-1.75-10.53-2.53-.23.63-.39,1.26-.63,1.88-.38,1.02-.88,2.26-2.36,2.98-.77.37-1.55.53-2.53.66-1.85.24-3.69.52-5.54.77-2.33.32-4.98.49-7.31.96,2.57.35,5.18.59,7.81.8,1.15.1,2.28.19,3.4.32,3.71-.32,7.45-.52,11.19-.78,2.16-.15,4.32-.35,6.48-.5.16-1.45.39-2.89.4-4.34-.13-.07-.26-.14-.38-.21Z"/><path class="i" d="M1392.7,279.2c.15-1.21.39-3.13.4-4.34-.13-.07-.26-.14-.38-.21-3.43-.95-6.97-1.75-10.53-2.53-.23.63-.39,1.26-.63,1.88-.35.92-.8,2.02-1.96,2.75,2.74.34,11.45,2.22,13.11,2.45Z"/><path class="g" d="M1418.98,244.83c2.6-.22,5.22-.37,7.84-.55,1.51-.1,3.02-.25,4.54-.35.12-1.02.27-2.03.29-3.05-.09-.05-.18-.1-.27-.14-2.59-.71-5.28-1.31-7.97-1.9-.05-.01-.11-.02-.16-.03-.13.01-.25.02-.38.03-1.65.12-3.31.2-4.94.38-.46.25-.92.51-1.37.74-1.86.96-3.79,1.89-5.45,2.97-.14.35-.25.7-.34,1.05,1.91.27,3.86.45,5.82.61.81.07,1.6.14,2.38.22Z"/><path class="c" d="M1415.07,241.34c1.25-.68,2.43-1.37,4.02-1.79,1.01-.27,2.05-.48,3.1-.66-1.42.1-2.85.18-4.27.34-.46.25-.92.51-1.37.74-1.86.96-3.79,1.89-5.45,2.97-.01.02-.01.04-.02.06,1.29-.58,2.78-1.01,3.98-1.67Z"/><path class="i" d="M1431.37,240.74c-2.4-.66-4.88-1.22-7.38-1.77-.16.44-.28.89-.43,1.32-.27.71-.62,1.59-1.66,2.09-.53.26-1.08.37-1.77.46-1.3.17-2.59.36-3.88.54-1.63.22-3.49.34-5.12.67,1.8.25,3.63.41,5.47.56.81.07,1.6.14,2.38.22,2.6-.22,5.22-.37,7.84-.55,1.51-.1,3.02-.25,4.54-.35.12-1.02.27-2.03.29-3.05-.09-.05-.18-.1-.27-.14Z"/><path class="i" d="M1431.35,243.93c.11-.85.27-2.19.29-3.05-.09-.05-.18-.1-.27-.14-2.4-.66-4.88-1.22-7.38-1.77-.16.44-.28.89-.43,1.32-.25.64-.56,1.41-1.39,1.93,1.93.24,8.03,1.55,9.18,1.71Z"/><path class="g" d="M1390.87,243.96c2.6-.23,5.22-.36,7.84-.55,1.52-.11,3.03-.25,4.54-.35.12-1.02.28-2.03.28-3.05-.09-.05-.18-.1-.27-.15-2.59-.71-5.27-1.31-7.97-1.9-.05,0-.11-.02-.16-.03-.13.01-.25.02-.38.03-1.65.12-3.31.21-4.94.39-.46.25-.91.51-1.37.74-1.86.97-3.79,1.9-5.45,2.98-.14.35-.24.7-.34,1.05,1.91.27,3.86.45,5.82.61.81.06,1.59.14,2.38.22Z"/><path class="c" d="M1386.97,240.47c1.24-.68,2.42-1.37,4.02-1.79,1.01-.26,2.05-.48,3.11-.66-1.43.1-2.87.18-4.27.34-.46.25-.91.51-1.37.74-1.86.97-3.79,1.9-5.45,2.98,0,.02-.01.04-.02.06,1.28-.59,2.77-1.01,3.98-1.67Z"/><path class="i" d="M1403.26,239.87c-2.4-.66-4.88-1.22-7.37-1.77-.16.44-.27.89-.44,1.32-.27.71-.62,1.59-1.66,2.08-.53.26-1.09.38-1.77.46-1.3.17-2.59.36-3.88.54-1.64.22-3.49.34-5.13.67,1.8.24,3.63.41,5.47.56.81.06,1.59.14,2.38.22,2.6-.23,5.22-.36,7.84-.55,1.52-.11,3.03-.25,4.54-.35.12-1.02.28-2.03.28-3.05-.09-.05-.18-.1-.27-.15Z"/><path class="i" d="M1403.25,243.06c.11-.85.28-2.19.28-3.05-.09-.05-.18-.1-.27-.15-2.4-.66-4.88-1.22-7.37-1.77-.16.44-.27.89-.44,1.32-.24.64-.55,1.41-1.37,1.92,1.92.24,8.02,1.55,9.17,1.72Z"/><path class="g" d="M1242.65,252.1c6.26-.55,12.58-.88,18.88-1.32,3.65-.25,7.29-.59,10.94-.84.28-2.45.65-4.89.68-7.34-.22-.12-.43-.24-.65-.35-6.24-1.71-12.71-3.16-19.19-4.57-.13-.02-.26-.04-.39-.06-.3.03-.61.05-.92.07-3.97.29-7.96.5-11.89.94-1.1.61-2.2,1.22-3.3,1.78-4.48,2.32-9.12,4.57-13.11,7.16-.32.84-.58,1.69-.82,2.54,4.61.65,9.3,1.09,14.03,1.46,1.94.16,3.84.33,5.74.54Z"/><path class="c" d="M1233.23,243.71c3-1.63,5.84-3.3,9.69-4.31,2.43-.64,4.93-1.15,7.47-1.59-3.43.23-6.88.45-10.28.82-1.1.61-2.2,1.22-3.3,1.78-4.48,2.32-9.12,4.57-13.11,7.16-.02.05-.03.1-.05.15,3.09-1.41,6.69-2.44,9.58-4.01Z"/><path class="i" d="M1272.49,242.25c-5.78-1.59-11.76-2.94-17.77-4.26-.38,1.06-.66,2.14-1.06,3.18-.65,1.71-1.49,3.82-4,5.02-1.29.62-2.61.9-4.25,1.11-3.14.41-6.23.87-9.35,1.3-3.93.54-8.41.82-12.34,1.62,4.34.59,8.74,1,13.18,1.35,1.94.16,3.84.33,5.74.54,6.26-.55,12.58-.88,18.88-1.32,3.65-.25,7.29-.59,10.94-.84.28-2.45.65-4.89.68-7.34-.22-.12-.43-.24-.65-.35Z"/><path class="i" d="M1272.46,249.94c.25-2.05.66-5.28.68-7.34-.22-.12-.43-.24-.65-.35-5.78-1.59-11.76-2.94-17.77-4.26-.38,1.06-.66,2.14-1.06,3.18-.58,1.54-1.34,3.41-3.33,4.64,4.63.58,19.32,3.74,22.12,4.14Z"/><path class="b" d="M316.46,476.94c5.06-.44,10.16-.71,15.24-1.06,2.95-.2,5.89-.48,8.83-.68.23-1.98.53-3.95.55-5.92-.17-.1-.35-.19-.53-.29-5.03-1.39-10.26-2.55-15.49-3.69-.11-.02-.21-.03-.31-.05-.25.02-.5.04-.74.06-3.21.23-6.43.4-9.6.75-.89.49-1.77.98-2.66,1.44-3.62,1.87-7.36,3.69-10.58,5.78-.26.68-.47,1.36-.66,2.05,3.72.53,7.51.88,11.33,1.18,1.57.13,3.1.26,4.63.43Z"/><path class="c" d="M310.44,469.36c2.07-1.1,4.02-2.49,6.81-3.02,2.71-.51,5.54-.78,8.41-.91-.2-.04-.4-.09-.61-.13-.11-.02-.21-.03-.31-.05-.25.02-.5.04-.74.06-3.21.23-6.43.4-9.6.75-.89.49-1.77.98-2.66,1.44-3.43,1.78-6.96,3.5-10.07,5.45,3-1.13,6.15-2.21,8.77-3.6Z"/><path class="j" d="M340.55,468.99c-4.67-1.28-9.49-2.38-14.35-3.44-.3.85-.53,1.72-.85,2.56-.52,1.38-1.2,3.08-3.22,4.06-1.04.5-2.11.73-3.43.9-2.53.33-5.03.7-7.55,1.05-3.17.43-6.79.66-9.97,1.3,3.5.48,7.06.81,10.64,1.09,1.57.13,3.1.26,4.63.43,5.06-.44,10.16-.71,15.24-1.06,2.95-.2,5.89-.48,8.83-.68.23-1.98.53-3.95.55-5.92-.17-.1-.35-.19-.53-.29Z"/><path class="j" d="M340.53,475.2c.2-1.66.53-4.27.55-5.92-.17-.1-.35-.19-.53-.29-4.67-1.28-9.49-2.38-14.35-3.44-.3.85-.53,1.72-.85,2.56-.47,1.25-1.08,2.75-2.68,3.75,3.74.47,15.6,3.03,17.85,3.34Z"/><path class="g" d="M330.7,489.46c1.37-.12,2.75-.19,4.12-.29.8-.05,1.59-.13,2.39-.18.06-.53.14-1.07.15-1.6-.05-.03-.09-.05-.14-.08-1.36-.37-2.78-.69-4.2-1-.02,0-.06,0-.08-.02-.07,0-.13.01-.2.02-.87.06-1.74.11-2.6.2-.24.13-.48.27-.72.39-.98.51-1.99,1-2.87,1.56-.07.18-.12.37-.18.55,1.01.15,2.03.24,3.06.32.42.03.84.07,1.25.12Z"/><path class="c" d="M328.64,487.63c.66-.36,1.28-.72,2.12-.94.53-.14,1.08-.25,1.63-.35-.75.05-1.51.1-2.25.18-.24.13-.48.27-.72.39-.98.51-1.99,1-2.87,1.56,0,.01,0,.02-.01.03.68-.31,1.46-.53,2.09-.88Z"/><path class="i" d="M337.23,487.31c-1.26-.35-2.57-.64-3.88-.93-.08.23-.14.47-.23.69-.14.38-.33.84-.87,1.1-.28.14-.57.2-.93.24-.68.09-1.36.19-2.05.28-.86.12-1.84.18-2.69.35.94.13,1.9.22,2.88.3.42.03.84.07,1.25.12,1.37-.12,2.75-.19,4.12-.29.8-.05,1.59-.13,2.39-.18.06-.53.14-1.07.15-1.6-.05-.03-.09-.05-.14-.08Z"/><path class="i" d="M337.22,488.99c.06-.45.14-1.15.15-1.6-.05-.03-.09-.05-.14-.08-1.26-.35-2.57-.64-3.88-.93-.08.23-.14.47-.23.69-.13.34-.29.75-.72,1.01,1.01.13,4.22.82,4.83.9Z"/><path class="g" d="M346.91,476.31c.95-.08,1.92-.14,2.89-.2.56-.04,1.11-.09,1.67-.13.05-.37.1-.75.11-1.12-.04-.02-.07-.04-.1-.05-.96-.26-1.95-.48-2.94-.7-.02,0-.04,0-.06,0-.05,0-.09,0-.14.01-.61.04-1.22.08-1.82.14-.17.09-.34.19-.51.27-.68.36-1.4.7-2,1.1-.05.13-.09.26-.13.39.7.1,1.42.16,2.15.22.29.02.59.05.88.08Z"/><path class="c" d="M345.46,475.03c.46-.25.9-.51,1.49-.66.37-.1.75-.18,1.14-.24-.52.04-1.05.07-1.57.12-.17.09-.34.19-.51.27-.68.36-1.4.7-2,1.1,0,0,0,.02-.01.02.47-.22,1.02-.37,1.46-.61Z"/><path class="i" d="M351.48,474.81c-.88-.24-1.8-.45-2.72-.65-.06.16-.1.33-.16.49-.1.26-.23.58-.61.77-.2.09-.4.14-.65.17-.48.06-.96.13-1.44.2-.6.08-1.29.13-1.89.25.67.09,1.34.15,2.02.21.29.02.59.05.88.08.95-.08,1.92-.14,2.89-.2.56-.04,1.11-.09,1.67-.13.05-.37.1-.75.11-1.12-.04-.02-.07-.04-.1-.05Z"/><path class="i" d="M351.47,475.98c.05-.31.1-.81.11-1.12-.04-.02-.07-.04-.1-.05-.88-.24-1.8-.45-2.72-.65-.06.16-.1.33-.16.49-.09.24-.2.52-.51.71.71.09,2.96.57,3.38.63Z"/><path class="g" d="M336.55,475.99c.96-.08,1.93-.13,2.89-.2.56-.04,1.12-.09,1.68-.13.04-.37.1-.75.1-1.12-.03-.02-.06-.04-.1-.05-.95-.26-1.94-.48-2.94-.7-.02,0-.04,0-.06,0-.04,0-.1,0-.14.01-.61.04-1.22.08-1.82.14-.17.09-.33.19-.5.27-.68.36-1.4.7-2.01,1.1-.05.13-.09.26-.13.39.71.1,1.43.17,2.15.22.3.02.59.05.88.08Z"/><path class="c" d="M335.11,474.71c.46-.25.89-.51,1.48-.66.37-.1.75-.18,1.15-.24-.53.03-1.06.07-1.58.13-.17.09-.33.19-.5.27-.68.36-1.4.7-2.01,1.1,0,0,0,.02,0,.02.47-.22,1.02-.37,1.46-.61Z"/><path class="i" d="M341.11,474.48c-.88-.24-1.8-.45-2.71-.65-.06.16-.1.33-.16.49-.1.26-.23.59-.61.77-.2.09-.4.14-.65.17-.48.06-.96.13-1.43.2-.61.08-1.29.12-1.89.25.67.09,1.34.15,2.02.21.3.02.59.05.88.08.96-.08,1.93-.13,2.89-.2.56-.04,1.12-.09,1.68-.13.04-.37.1-.75.1-1.12-.03-.02-.06-.04-.1-.05Z"/><path class="i" d="M341.11,475.66c.04-.31.1-.81.1-1.12-.03-.02-.06-.04-.1-.05-.88-.24-1.8-.45-2.71-.65-.06.16-.1.33-.16.49-.09.24-.21.52-.51.71.71.09,2.96.57,3.39.63Z"/><path class="g" d="M281.89,478.99c2.31-.2,4.63-.33,6.96-.49,1.35-.09,2.69-.22,4.04-.31.1-.9.24-1.8.25-2.71-.09-.04-.16-.09-.24-.13-2.3-.63-4.69-1.16-7.08-1.69-.05,0-.1-.02-.15-.02-.11.01-.23.02-.33.03-1.46.11-2.94.18-4.39.34-.41.22-.81.45-1.22.66-1.65.86-3.36,1.69-4.83,2.64-.12.31-.21.62-.3.93,1.7.24,3.43.4,5.17.54.71.06,1.42.12,2.12.2Z"/><path class="c" d="M278.42,475.9c1.11-.6,2.15-1.22,3.57-1.59.89-.24,1.82-.43,2.75-.59-1.26.09-2.54.17-3.79.3-.41.22-.81.45-1.22.66-1.65.86-3.36,1.69-4.83,2.64,0,.02,0,.04-.02.06,1.14-.52,2.47-.9,3.54-1.48Z"/><path class="i" d="M292.89,475.36c-2.13-.59-4.34-1.09-6.55-1.57-.15.39-.25.79-.39,1.17-.24.63-.55,1.41-1.47,1.85-.48.23-.97.33-1.57.41-1.16.15-2.3.32-3.45.48-1.45.2-3.1.3-4.55.59,1.6.22,3.22.37,4.86.5.71.06,1.42.12,2.12.2,2.31-.2,4.63-.33,6.96-.49,1.35-.09,2.69-.22,4.04-.31.1-.9.24-1.8.25-2.71-.09-.04-.16-.09-.24-.13Z"/><path class="i" d="M292.88,478.2c.09-.76.24-1.95.25-2.71-.09-.04-.16-.09-.24-.13-2.13-.59-4.34-1.09-6.55-1.57-.15.39-.25.79-.39,1.17-.22.57-.49,1.25-1.23,1.71,1.71.21,7.13,1.38,8.16,1.53Z"/><path class="b" d="M133.25,242.62c9.15-.8,18.39-1.29,27.59-1.92,5.33-.37,10.65-.86,15.99-1.23.41-3.58.96-7.15.99-10.73-.31-.18-.63-.35-.95-.52-9.12-2.51-18.57-4.62-28.06-6.68-.19-.03-.38-.06-.56-.09-.44.04-.89.07-1.34.11-5.81.42-11.65.73-17.39,1.37-1.61.89-3.21,1.78-4.81,2.61-6.56,3.39-13.33,6.68-19.17,10.47-.47,1.23-.85,2.47-1.2,3.7,6.74.95,13.61,1.58,20.52,2.14,2.83.23,5.61.47,8.38.78Z"/><path class="c" d="M122.35,228.9c3.75-1.99,7.29-4.5,12.34-5.46,4.91-.93,10.04-1.4,15.23-1.65-.37-.08-.73-.16-1.1-.24-.19-.03-.38-.06-.56-.09-.44.04-.89.07-1.34.11-5.81.42-11.65.73-17.39,1.37-1.61.89-3.21,1.78-4.81,2.61-6.21,3.22-12.61,6.34-18.23,9.88,5.45-2.04,11.13-4,15.87-6.51Z"/><path class="j" d="M176.88,228.23c-8.45-2.32-17.19-4.3-25.98-6.22-.55,1.55-.96,3.12-1.54,4.64-.95,2.51-2.18,5.59-5.84,7.34-1.89.91-3.82,1.32-6.21,1.63-4.58.59-9.11,1.27-13.68,1.89-5.75.78-12.29,1.2-18.04,2.36,6.34.86,12.78,1.46,19.27,1.98,2.83.23,5.61.47,8.38.78,9.15-.8,18.39-1.29,27.59-1.92,5.33-.37,10.65-.86,15.99-1.23.41-3.58.96-7.15.99-10.73-.31-.18-.63-.35-.95-.52Z"/><path class="j" d="M176.84,239.47c.36-3,.97-7.72.99-10.73-.31-.18-.63-.35-.95-.52-8.45-2.32-17.19-4.3-25.98-6.22-.55,1.55-.96,3.12-1.54,4.64-.86,2.26-1.96,4.98-4.86,6.78,6.77.84,28.24,5.48,32.33,6.04Z"/><path class="g" d="M159.05,265.3c2.47-.21,4.98-.35,7.47-.52,1.45-.1,2.89-.24,4.33-.33.11-.97.26-1.93.27-2.9-.09-.05-.18-.1-.26-.14-2.47-.68-5.03-1.25-7.6-1.81-.05,0-.1-.02-.15-.03-.12.01-.24.02-.36.03-1.57.11-3.15.2-4.7.37-.44.24-.87.48-1.3.71-1.78.92-3.61,1.81-5.19,2.83-.13.33-.23.67-.32,1,1.82.26,3.68.43,5.55.58.77.06,1.52.13,2.27.21Z"/><path class="c" d="M155.32,261.98c1.19-.65,2.32-1.3,3.83-1.7.96-.26,1.95-.46,2.96-.63-1.36.09-2.72.18-4.07.32-.44.24-.87.48-1.3.71-1.78.92-3.61,1.81-5.19,2.83,0,.02-.01.04-.02.06,1.23-.56,2.64-.97,3.79-1.59Z"/><path class="i" d="M170.86,261.4c-2.29-.63-4.65-1.16-7.03-1.68-.15.42-.26.84-.42,1.25-.26.68-.59,1.51-1.58,1.99-.51.25-1.04.36-1.69.44-1.24.16-2.47.35-3.7.51-1.56.21-3.33.32-4.89.64,1.72.23,3.46.39,5.22.53.77.06,1.52.13,2.27.21,2.47-.21,4.98-.35,7.47-.52,1.45-.1,2.89-.24,4.33-.33.11-.97.26-1.93.27-2.9-.09-.05-.18-.1-.26-.14Z"/><path class="i" d="M170.85,264.45c.09-.81.26-2.09.27-2.9-.09-.05-.18-.1-.26-.14-2.29-.63-4.65-1.16-7.03-1.68-.15.42-.26.84-.42,1.25-.24.61-.53,1.35-1.31,1.84,1.83.23,7.64,1.48,8.75,1.63Z"/><path class="g" d="M188.39,241.49c1.73-.15,3.49-.25,5.23-.36,1.01-.07,2.02-.17,3.03-.23.08-.68.18-1.35.19-2.04-.06-.03-.12-.06-.18-.1-1.73-.48-3.52-.88-5.32-1.27-.04,0-.07,0-.11-.02-.08,0-.17.01-.25.02-1.1.08-2.21.14-3.3.26-.31.17-.61.34-.92.49-1.24.65-2.53,1.27-3.63,1.99-.09.23-.16.47-.23.7,1.28.18,2.58.3,3.89.41.54.04,1.07.09,1.59.15Z"/><path class="c" d="M185.78,239.17c.83-.45,1.62-.91,2.68-1.2.67-.18,1.37-.32,2.07-.44-.95.06-1.9.12-2.85.23-.31.17-.61.34-.92.49-1.24.65-2.53,1.27-3.63,1.99,0,.01,0,.03-.01.04.86-.39,1.86-.68,2.66-1.11Z"/><path class="i" d="M196.66,238.76c-1.6-.44-3.26-.82-4.93-1.18-.1.29-.18.59-.29.88-.19.47-.42,1.06-1.11,1.39-.36.17-.72.25-1.18.31-.87.11-1.73.24-2.59.36-1.09.15-2.33.23-3.43.45,1.21.16,2.42.28,3.66.38.54.04,1.07.09,1.59.15,1.73-.15,3.49-.25,5.23-.36,1.01-.07,2.02-.17,3.03-.23.08-.68.18-1.35.19-2.04-.06-.03-.12-.06-.18-.1Z"/><path class="i" d="M196.65,240.9c.07-.57.18-1.46.19-2.04-.06-.03-.12-.06-.18-.1-1.6-.44-3.26-.82-4.93-1.18-.1.29-.18.59-.29.88-.17.43-.37.94-.93,1.28,1.29.16,5.36,1.04,6.13,1.15Z"/><path class="g" d="M169.63,240.91c1.74-.15,3.49-.25,5.23-.36,1.01-.07,2.02-.17,3.03-.23.08-.68.18-1.35.19-2.03-.06-.03-.12-.07-.18-.1-1.73-.47-3.52-.87-5.32-1.27-.03,0-.07-.01-.1-.02-.09,0-.17.02-.26.02-1.1.08-2.21.14-3.3.26-.3.17-.61.34-.91.5-1.24.64-2.53,1.26-3.63,1.99-.09.23-.16.47-.23.7,1.28.18,2.58.3,3.9.4.53.04,1.06.09,1.59.15Z"/><path class="c" d="M167.02,238.59c.83-.45,1.61-.91,2.68-1.2.67-.18,1.37-.32,2.07-.44-.96.06-1.92.12-2.86.23-.3.17-.61.34-.91.5-1.24.64-2.53,1.26-3.63,1.99,0,.01,0,.03-.01.04.86-.39,1.85-.68,2.66-1.11Z"/><path class="i" d="M177.9,238.18c-1.6-.44-3.26-.81-4.93-1.18-.1.29-.18.59-.29.88-.18.47-.41,1.06-1.11,1.39-.35.17-.72.25-1.17.31-.87.11-1.73.24-2.59.36-1.09.15-2.33.23-3.42.45,1.2.17,2.42.28,3.66.38.53.04,1.06.09,1.59.15,1.74-.15,3.49-.25,5.23-.36,1.01-.07,2.02-.17,3.03-.23.08-.68.18-1.35.19-2.03-.06-.03-.12-.07-.18-.1Z"/><path class="i" d="M177.89,240.31c.07-.57.18-1.46.19-2.03-.06-.03-.12-.07-.18-.1-1.6-.44-3.26-.81-4.93-1.18-.1.29-.18.59-.29.88-.16.43-.37.95-.91,1.29,1.28.16,5.35,1.04,6.13,1.15Z"/><path class="g" d="M70.65,246.34c4.18-.36,8.4-.59,12.6-.88,2.44-.17,4.87-.4,7.31-.56.19-1.63.44-3.27.46-4.9-.15-.08-.29-.16-.43-.24-4.16-1.14-8.48-2.11-12.81-3.05-.09-.01-.18-.02-.26-.04-.19.02-.4.03-.61.05-2.66.19-5.32.33-7.94.62-.73.4-1.46.81-2.2,1.19-2.99,1.55-6.09,3.05-8.76,4.78-.22.56-.39,1.13-.54,1.69,3.08.44,6.21.72,9.37.98,1.3.1,2.57.22,3.83.35Z"/><path class="c" d="M64.37,240.74c2-1.09,3.9-2.2,6.47-2.88,1.62-.43,3.3-.77,4.99-1.06-2.29.15-4.59.3-6.86.55-.73.4-1.46.81-2.2,1.19-2.99,1.55-6.09,3.05-8.76,4.78-.01.03-.02.07-.03.1,2.06-.95,4.46-1.63,6.4-2.68Z"/><path class="i" d="M90.58,239.77c-3.86-1.06-7.85-1.96-11.86-2.84-.26.71-.44,1.43-.71,2.12-.43,1.14-1,2.55-2.67,3.35-.86.41-1.75.6-2.84.74-2.09.27-4.16.58-6.24.87-2.63.36-5.62.55-8.24,1.08,2.89.39,5.83.67,8.8.91,1.3.1,2.57.22,3.83.35,4.18-.36,8.4-.59,12.6-.88,2.44-.17,4.87-.4,7.31-.56.19-1.63.44-3.27.46-4.9-.15-.08-.29-.16-.43-.24Z"/><path class="i" d="M90.56,244.91c.17-1.37.44-3.53.46-4.9-.15-.08-.29-.16-.43-.24-3.86-1.06-7.85-1.96-11.86-2.84-.26.71-.44,1.43-.71,2.12-.39,1.03-.89,2.28-2.22,3.1,3.09.39,12.9,2.5,14.76,2.76Z"/><path class="b" d="M1344.97,307.53c9.15-.8,18.39-1.29,27.59-1.92,5.33-.37,10.65-.86,15.99-1.23.41-3.58.96-7.15.99-10.73-.31-.18-.63-.35-.95-.52-9.11-2.51-18.57-4.61-28.05-6.68-.19-.03-.38-.06-.57-.09-.45.04-.9.07-1.34.11-5.81.42-11.64.73-17.38,1.37-1.61.89-3.21,1.78-4.82,2.61-6.55,3.39-13.33,6.68-19.16,10.46-.47,1.23-.85,2.47-1.2,3.71,6.74.96,13.6,1.59,20.51,2.14,2.83.23,5.62.48,8.39.78Z"/><path class="c" d="M1334.07,293.81c3.75-1.99,7.29-4.5,12.34-5.46,4.91-.93,10.03-1.4,15.23-1.65-.36-.08-.73-.16-1.1-.24-.19-.03-.38-.06-.57-.09-.45.04-.9.07-1.34.11-5.81.42-11.64.73-17.38,1.37-1.61.89-3.21,1.78-4.82,2.61-6.21,3.22-12.61,6.34-18.23,9.88,5.44-2.04,11.13-3.99,15.87-6.51Z"/><path class="j" d="M1388.59,293.13c-8.45-2.32-17.19-4.3-25.97-6.22-.55,1.55-.96,3.12-1.54,4.64-.95,2.51-2.19,5.59-5.84,7.34-1.89.9-3.82,1.32-6.22,1.63-4.58.59-9.11,1.27-13.67,1.89-5.75.78-12.3,1.2-18.04,2.36,6.34.86,12.78,1.46,19.27,1.98,2.83.23,5.62.48,8.39.78,9.15-.8,18.39-1.29,27.59-1.92,5.33-.37,10.65-.86,15.99-1.23.41-3.58.96-7.15.99-10.73-.31-.18-.63-.35-.95-.52Z"/><path class="j" d="M1388.56,304.38c.37-3,.96-7.72.99-10.73-.31-.18-.63-.35-.95-.52-8.45-2.32-17.19-4.3-25.97-6.22-.55,1.55-.96,3.12-1.54,4.64-.86,2.26-1.97,4.98-4.86,6.78,6.77.84,28.24,5.48,32.33,6.04Z"/><path class="g" d="M1370.76,330.2c2.48-.22,4.98-.35,7.46-.52,1.45-.1,2.89-.24,4.33-.33.11-.97.26-1.93.27-2.9-.09-.05-.17-.1-.26-.14-2.47-.68-5.03-1.25-7.59-1.81-.05,0-.1-.02-.15-.03-.12.01-.24.02-.36.03-1.57.11-3.15.2-4.7.37-.45.24-.88.48-1.31.71-1.78.92-3.61,1.81-5.19,2.83-.13.33-.23.67-.32,1,1.82.26,3.68.43,5.55.58.77.06,1.52.13,2.27.21Z"/><path class="c" d="M1367.04,326.88c1.19-.65,2.31-1.3,3.83-1.7.96-.25,1.95-.46,2.96-.63-1.36.09-2.72.18-4.07.32-.45.24-.88.48-1.31.71-1.78.92-3.61,1.81-5.19,2.83-.01.02-.01.04-.02.06,1.23-.56,2.65-.97,3.79-1.59Z"/><path class="i" d="M1382.57,326.31c-2.29-.63-4.65-1.17-7.03-1.68-.15.42-.26.84-.42,1.25-.26.68-.59,1.51-1.57,1.99-.52.25-1.04.36-1.69.44-1.24.16-2.47.34-3.7.51-1.55.21-3.33.32-4.88.64,1.71.23,3.45.39,5.21.53.77.06,1.52.13,2.27.21,2.48-.22,4.98-.35,7.46-.52,1.45-.1,2.89-.24,4.33-.33.11-.97.26-1.93.27-2.9-.09-.05-.17-.1-.26-.14Z"/><path class="i" d="M1382.56,329.35c.1-.81.26-2.09.27-2.9-.09-.05-.17-.1-.26-.14-2.29-.63-4.65-1.17-7.03-1.68-.15.42-.26.84-.42,1.25-.23.61-.53,1.35-1.31,1.84,1.84.23,7.64,1.48,8.75,1.63Z"/><path class="g" d="M1400.1,306.39c1.74-.15,3.49-.25,5.23-.36,1.01-.07,2.02-.16,3.03-.23.08-.68.18-1.36.19-2.04-.06-.03-.12-.07-.18-.1-1.73-.48-3.52-.88-5.32-1.27-.04,0-.07-.01-.11-.02-.08,0-.17.02-.25.02-1.1.08-2.21.14-3.3.26-.31.17-.61.34-.92.49-1.24.65-2.53,1.27-3.63,1.99-.09.23-.16.47-.23.7,1.27.18,2.58.3,3.89.4.54.04,1.07.09,1.59.15Z"/><path class="c" d="M1397.49,304.07c.83-.45,1.62-.91,2.68-1.2.68-.18,1.37-.32,2.07-.44-.95.06-1.91.12-2.85.23-.31.17-.61.34-.92.49-1.24.65-2.53,1.27-3.63,1.99,0,.01,0,.03-.01.04.86-.39,1.86-.68,2.66-1.11Z"/><path class="i" d="M1408.38,303.67c-1.6-.44-3.26-.82-4.92-1.18-.11.29-.19.59-.29.88-.18.48-.42,1.06-1.11,1.39-.35.17-.72.25-1.18.31-.87.11-1.73.24-2.59.36-1.09.15-2.33.23-3.42.45,1.2.16,2.42.28,3.65.37.54.04,1.07.09,1.59.15,1.74-.15,3.49-.25,5.23-.36,1.01-.07,2.02-.16,3.03-.23.08-.68.18-1.36.19-2.04-.06-.03-.12-.07-.18-.1Z"/><path class="i" d="M1408.37,305.8c.07-.57.18-1.46.19-2.04-.06-.03-.12-.07-.18-.1-1.6-.44-3.26-.82-4.92-1.18-.11.29-.19.59-.29.88-.17.43-.38.94-.92,1.28,1.29.16,5.36,1.04,6.13,1.15Z"/><path class="g" d="M1381.34,305.81c1.74-.15,3.49-.25,5.23-.36,1.02-.07,2.03-.17,3.03-.23.08-.68.18-1.35.19-2.03-.06-.03-.12-.07-.18-.1-1.73-.48-3.53-.88-5.32-1.27-.04,0-.08-.01-.1-.02-.09,0-.18.01-.26.02-1.1.08-2.21.14-3.3.26-.31.17-.61.34-.92.5-1.24.64-2.53,1.27-3.63,1.99-.09.23-.16.47-.23.7,1.28.18,2.58.3,3.89.4.53.04,1.06.09,1.59.15Z"/><path class="c" d="M1378.74,303.49c.83-.45,1.61-.91,2.68-1.2.67-.18,1.37-.32,2.07-.44-.96.06-1.91.12-2.85.22-.31.17-.61.34-.92.5-1.24.64-2.53,1.27-3.63,1.99,0,.01,0,.03-.01.04.86-.39,1.85-.68,2.66-1.11Z"/><path class="i" d="M1389.62,303.08c-1.6-.44-3.26-.82-4.93-1.18-.1.3-.18.59-.29.88-.18.47-.41,1.06-1.11,1.39-.36.17-.72.25-1.18.31-.87.11-1.72.24-2.59.36-1.09.15-2.33.23-3.42.45,1.2.16,2.42.28,3.66.38.53.04,1.06.09,1.59.15,1.74-.15,3.49-.25,5.23-.36,1.02-.07,2.03-.17,3.03-.23.08-.68.18-1.35.19-2.03-.06-.03-.12-.07-.18-.1Z"/><path class="i" d="M1389.61,305.22c.07-.57.18-1.46.19-2.03-.06-.03-.12-.07-.18-.1-1.6-.44-3.26-.82-4.93-1.18-.1.3-.18.59-.29.88-.16.43-.37.95-.92,1.29,1.28.16,5.36,1.04,6.13,1.15Z"/><path class="g" d="M1282.37,311.25c4.18-.36,8.4-.59,12.6-.88,2.44-.17,4.87-.4,7.3-.56.19-1.63.44-3.27.46-4.9-.15-.08-.29-.16-.44-.24-4.16-1.14-8.48-2.11-12.82-3.05-.08-.01-.17-.03-.26-.04-.2.02-.41.03-.61.05-2.65.19-5.31.33-7.94.62-.73.41-1.46.82-2.19,1.19-2.99,1.55-6.09,3.05-8.76,4.78-.22.56-.39,1.13-.54,1.69,3.07.44,6.21.72,9.37.98,1.3.11,2.57.22,3.83.35Z"/><path class="c" d="M1276.08,305.65c2-1.09,3.9-2.2,6.47-2.88,1.62-.43,3.29-.77,4.99-1.06-2.29.15-4.59.3-6.87.55-.73.41-1.46.82-2.19,1.19-2.99,1.55-6.09,3.05-8.76,4.78-.01.03-.02.07-.04.1,2.07-.95,4.46-1.63,6.4-2.68Z"/><path class="i" d="M1302.3,304.67c-3.86-1.06-7.85-1.96-11.86-2.84-.26.71-.44,1.43-.7,2.12-.43,1.14-1,2.55-2.67,3.35-.86.41-1.75.6-2.84.74-2.09.27-4.16.58-6.24.87-2.63.36-5.62.55-8.24,1.07,2.89.39,5.83.67,8.8.91,1.3.11,2.57.22,3.83.35,4.18-.36,8.4-.59,12.6-.88,2.44-.17,4.87-.4,7.3-.56.19-1.63.44-3.27.46-4.9-.15-.08-.29-.16-.44-.24Z"/><path class="i" d="M1302.27,309.81c.17-1.37.44-3.53.46-4.9-.15-.08-.29-.16-.44-.24-3.86-1.06-7.85-1.96-11.86-2.84-.26.71-.44,1.43-.7,2.12-.39,1.03-.9,2.27-2.22,3.1,3.09.39,12.9,2.5,14.76,2.76Z"/><path class="b" d="M103.58,396.86c9.15-.8,18.39-1.29,27.59-1.92,5.34-.37,10.65-.86,15.99-1.23.41-3.58.96-7.15.99-10.73-.31-.18-.63-.35-.95-.52-9.12-2.51-18.57-4.61-28.05-6.68-.19-.03-.38-.06-.57-.09-.45.04-.89.07-1.34.11-5.81.42-11.65.73-17.39,1.37-1.61.89-3.21,1.78-4.82,2.61-6.55,3.39-13.33,6.68-19.16,10.46-.47,1.23-.85,2.47-1.2,3.71,6.74.95,13.6,1.58,20.51,2.14,2.83.23,5.62.48,8.39.78Z"/><path class="c" d="M92.68,383.14c3.75-1.99,7.29-4.5,12.34-5.46,4.9-.93,10.03-1.4,15.23-1.65-.37-.08-.73-.16-1.1-.24-.19-.03-.38-.06-.57-.09-.45.04-.89.07-1.34.11-5.81.42-11.65.73-17.39,1.37-1.61.89-3.21,1.78-4.82,2.61-6.21,3.22-12.61,6.34-18.23,9.88,5.44-2.04,11.13-3.99,15.87-6.51Z"/><path class="j" d="M147.21,382.46c-8.45-2.32-17.19-4.3-25.97-6.22-.55,1.55-.96,3.12-1.54,4.64-.95,2.51-2.18,5.59-5.84,7.34-1.88.91-3.82,1.32-6.22,1.63-4.58.59-9.11,1.27-13.67,1.89-5.75.78-12.3,1.2-18.05,2.36,6.34.86,12.79,1.46,19.27,1.98,2.83.23,5.62.48,8.39.78,9.15-.8,18.39-1.29,27.59-1.92,5.34-.37,10.65-.86,15.99-1.23.41-3.58.96-7.15.99-10.73-.31-.18-.63-.35-.95-.52Z"/><path class="j" d="M147.17,393.71c.37-3,.97-7.72.99-10.73-.31-.18-.63-.35-.95-.52-8.45-2.32-17.19-4.3-25.97-6.22-.55,1.55-.96,3.12-1.54,4.64-.86,2.26-1.97,4.98-4.86,6.78,6.77.84,28.24,5.48,32.33,6.04Z"/><path class="g" d="M129.38,419.53c2.48-.22,4.98-.35,7.46-.52,1.45-.1,2.89-.24,4.33-.33.11-.97.26-1.93.27-2.9-.09-.05-.17-.1-.26-.14-2.47-.68-5.03-1.25-7.59-1.81-.05,0-.1-.02-.15-.03-.13.01-.24.02-.36.03-1.57.12-3.15.2-4.7.37-.45.24-.88.48-1.31.71-1.78.92-3.61,1.81-5.19,2.83-.13.33-.23.67-.32,1,1.82.26,3.68.43,5.55.58.77.06,1.52.13,2.27.21Z"/><path class="c" d="M125.65,416.21c1.19-.65,2.32-1.3,3.83-1.7.96-.25,1.95-.46,2.96-.63-1.36.09-2.72.17-4.07.32-.45.24-.88.48-1.31.71-1.78.92-3.61,1.81-5.19,2.83,0,.02-.01.04-.02.06,1.23-.56,2.65-.97,3.79-1.59Z"/><path class="i" d="M141.18,415.64c-2.29-.63-4.65-1.17-7.03-1.68-.15.42-.26.84-.42,1.26-.26.68-.59,1.51-1.58,1.99-.52.25-1.04.36-1.69.44-1.24.16-2.47.34-3.7.51-1.56.21-3.33.32-4.88.64,1.71.23,3.45.39,5.21.53.77.06,1.52.13,2.27.21,2.48-.22,4.98-.35,7.46-.52,1.45-.1,2.89-.24,4.33-.33.11-.97.26-1.93.27-2.9-.09-.05-.17-.1-.26-.14Z"/><path class="i" d="M141.17,418.68c.1-.81.26-2.09.27-2.9-.09-.05-.17-.1-.26-.14-2.29-.63-4.65-1.17-7.03-1.68-.15.42-.26.84-.42,1.26-.23.61-.53,1.35-1.32,1.84,1.83.23,7.64,1.48,8.75,1.63Z"/><path class="g" d="M158.72,395.73c1.74-.15,3.49-.25,5.23-.36,1.01-.07,2.02-.16,3.04-.23.07-.68.18-1.35.19-2.03-.06-.03-.12-.07-.18-.1-1.73-.48-3.52-.88-5.32-1.27-.04,0-.07-.01-.11-.02-.09,0-.17.02-.26.02-1.1.08-2.21.14-3.3.26-.31.17-.61.34-.91.5-1.24.64-2.53,1.26-3.63,1.98-.09.23-.16.47-.23.7,1.27.18,2.58.3,3.88.41.54.04,1.07.09,1.59.15Z"/><path class="c" d="M156.1,393.4c.84-.45,1.62-.91,2.69-1.2.67-.18,1.37-.32,2.07-.44-.95.06-1.9.13-2.85.23-.31.17-.61.34-.91.5-1.24.64-2.53,1.26-3.63,1.98,0,.01,0,.03-.01.04.86-.39,1.86-.68,2.65-1.11Z"/><path class="i" d="M166.99,393c-1.6-.44-3.26-.82-4.92-1.18-.1.29-.19.59-.29.88-.19.48-.42,1.06-1.11,1.39-.36.17-.72.25-1.18.31-.87.11-1.73.24-2.59.36-1.09.15-2.33.23-3.42.45,1.2.16,2.42.28,3.65.38.54.04,1.07.09,1.59.15,1.74-.15,3.49-.25,5.23-.36,1.01-.07,2.02-.16,3.04-.23.07-.68.18-1.35.19-2.03-.06-.03-.12-.07-.18-.1Z"/><path class="i" d="M166.98,395.13c.07-.57.18-1.46.19-2.03-.06-.03-.12-.07-.18-.1-1.6-.44-3.26-.82-4.92-1.18-.1.29-.19.59-.29.88-.17.43-.38.94-.93,1.28,1.29.16,5.36,1.04,6.13,1.15Z"/><path class="g" d="M139.95,395.15c1.74-.15,3.49-.24,5.24-.36,1.01-.07,2.02-.17,3.03-.23.08-.68.18-1.35.19-2.04-.06-.03-.12-.07-.18-.1-1.73-.48-3.53-.87-5.32-1.27-.04,0-.08,0-.11-.02-.09,0-.17.01-.25.02-1.1.08-2.21.14-3.3.26-.31.17-.61.34-.92.5-1.24.65-2.53,1.27-3.63,1.99-.09.23-.16.47-.23.7,1.28.18,2.58.3,3.89.41.54.04,1.06.09,1.59.15Z"/><path class="c" d="M137.35,392.82c.83-.45,1.61-.91,2.68-1.2.67-.18,1.37-.32,2.08-.44-.96.06-1.91.12-2.85.22-.31.17-.61.34-.92.5-1.24.65-2.53,1.27-3.63,1.99,0,.01,0,.03-.01.04.86-.39,1.85-.68,2.66-1.11Z"/><path class="i" d="M148.23,392.42c-1.6-.44-3.26-.82-4.93-1.18-.1.29-.18.59-.29.88-.18.47-.41,1.06-1.11,1.39-.36.17-.73.25-1.18.31-.87.11-1.72.24-2.59.36-1.1.15-2.34.23-3.42.45,1.2.17,2.42.28,3.66.38.54.04,1.06.09,1.59.15,1.74-.15,3.49-.24,5.24-.36,1.01-.07,2.02-.17,3.03-.23.08-.68.18-1.35.19-2.04-.06-.03-.12-.07-.18-.1Z"/><path class="i" d="M148.22,394.55c.07-.57.18-1.46.19-2.04-.06-.03-.12-.07-.18-.1-1.6-.44-3.26-.82-4.93-1.18-.1.29-.18.59-.29.88-.16.43-.37.95-.92,1.29,1.28.16,5.36,1.04,6.13,1.15Z"/><path class="g" d="M40.98,400.58c4.18-.36,8.4-.59,12.61-.88,2.44-.17,4.86-.4,7.3-.56.19-1.63.44-3.27.46-4.9-.15-.08-.29-.16-.44-.24-4.16-1.14-8.48-2.11-12.82-3.05-.08-.01-.17-.02-.26-.04-.2.02-.41.03-.61.05-2.65.19-5.31.33-7.94.62-.74.41-1.47.82-2.2,1.19-2.99,1.55-6.09,3.05-8.75,4.78-.22.56-.39,1.13-.55,1.69,3.08.43,6.21.72,9.37.98,1.3.11,2.57.22,3.83.35Z"/><path class="c" d="M34.69,394.98c2-1.09,3.9-2.2,6.47-2.88,1.62-.43,3.29-.77,4.99-1.06-2.29.15-4.59.3-6.86.55-.74.41-1.47.82-2.2,1.19-2.99,1.55-6.09,3.05-8.75,4.78-.01.03-.02.07-.04.1,2.07-.94,4.47-1.63,6.4-2.68Z"/><path class="i" d="M60.91,394.01c-3.86-1.06-7.85-1.96-11.86-2.84-.26.71-.44,1.42-.7,2.12-.43,1.14-1,2.55-2.67,3.35-.86.41-1.74.6-2.84.74-2.09.27-4.16.58-6.25.87-2.63.36-5.62.55-8.24,1.07,2.89.39,5.83.67,8.8.91,1.3.11,2.57.22,3.83.35,4.18-.36,8.4-.59,12.61-.88,2.44-.17,4.86-.4,7.3-.56.19-1.63.44-3.27.46-4.9-.15-.08-.29-.16-.44-.24Z"/><path class="i" d="M60.88,399.14c.17-1.37.44-3.53.46-4.9-.15-.08-.29-.16-.44-.24-3.86-1.06-7.85-1.96-11.86-2.84-.26.71-.44,1.42-.7,2.12-.39,1.03-.9,2.27-2.22,3.1,3.09.39,12.9,2.5,14.76,2.76Z"/><path class="b" d="M1101.22,462.67c6.41-.55,12.86-.9,19.31-1.35,3.73-.26,7.45-.6,11.19-.86.29-2.5.67-5,.69-7.5-.22-.13-.45-.25-.66-.36-6.38-1.76-13-3.23-19.63-4.67-.14-.03-.26-.04-.4-.07-.31.03-.63.05-.94.07-4.07.3-8.15.51-12.17.96-1.13.62-2.25,1.24-3.37,1.83-4.58,2.37-9.32,4.67-13.41,7.32-.33.86-.59,1.73-.83,2.59,4.71.67,9.52,1.11,14.35,1.49,1.97.16,3.92.33,5.86.54Z"/><path class="c" d="M1093.6,453.07c2.63-1.39,5.1-3.15,8.63-3.82,3.43-.65,7.02-.98,10.66-1.15-.26-.06-.52-.11-.77-.17-.14-.03-.26-.04-.4-.07-.31.03-.63.05-.94.07-4.07.3-8.15.51-12.17.96-1.13.62-2.25,1.24-3.37,1.83-4.34,2.25-8.82,4.43-12.75,6.91,3.81-1.43,7.79-2.8,11.1-4.56Z"/><path class="j" d="M1131.75,452.6c-5.92-1.63-12.02-3.01-18.18-4.35-.39,1.08-.67,2.18-1.07,3.25-.67,1.75-1.53,3.91-4.09,5.13-1.32.63-2.67.92-4.35,1.14-3.2.41-6.38.89-9.57,1.32-4.02.55-8.6.84-12.62,1.65,4.43.6,8.94,1.02,13.49,1.38,1.97.16,3.92.33,5.86.54,6.41-.55,12.86-.9,19.31-1.35,3.73-.26,7.45-.6,11.19-.86.29-2.5.67-5,.69-7.5-.22-.13-.45-.25-.66-.36Z"/><path class="j" d="M1131.72,460.46c.25-2.1.67-5.4.69-7.5-.22-.13-.45-.25-.66-.36-5.92-1.63-12.02-3.01-18.18-4.35-.39,1.08-.67,2.18-1.07,3.25-.6,1.58-1.38,3.48-3.4,4.74,4.74.59,19.76,3.83,22.62,4.23Z"/><path class="g" d="M1119.27,478.53c1.74-.15,3.48-.25,5.22-.36,1.01-.07,2.02-.17,3.03-.23.08-.68.18-1.35.19-2.03-.06-.03-.12-.07-.18-.1-1.73-.48-3.52-.88-5.32-1.27-.03,0-.07-.01-.1-.02-.09,0-.17.02-.26.02-1.1.08-2.2.14-3.29.26-.31.17-.61.33-.92.49-1.24.64-2.52,1.27-3.63,1.98-.09.23-.16.47-.23.7,1.27.18,2.57.3,3.88.41.54.04,1.07.09,1.59.15Z"/><path class="c" d="M1116.67,476.21c.83-.45,1.61-.91,2.68-1.19.68-.18,1.37-.32,2.07-.44-.95.06-1.9.12-2.84.23-.31.17-.61.33-.92.49-1.24.64-2.52,1.27-3.63,1.98,0,.01-.01.03-.02.04.86-.39,1.85-.68,2.66-1.11Z"/><path class="i" d="M1127.54,475.81c-1.6-.44-3.26-.82-4.92-1.18-.1.29-.18.59-.29.88-.18.47-.42,1.06-1.11,1.39-.36.17-.72.25-1.17.31-.87.11-1.73.24-2.59.36-1.09.15-2.33.23-3.41.45,1.2.16,2.42.28,3.64.38.54.04,1.07.09,1.59.15,1.74-.15,3.48-.25,5.22-.36,1.01-.07,2.02-.17,3.03-.23.08-.68.18-1.35.19-2.03-.06-.03-.12-.07-.18-.1Z"/><path class="i" d="M1127.53,477.94c.06-.57.18-1.46.19-2.03-.06-.03-.12-.07-.18-.1-1.6-.44-3.26-.82-4.92-1.18-.1.29-.18.59-.29.88-.16.43-.37.94-.92,1.29,1.29.16,5.35,1.04,6.13,1.14Z"/><path class="g" d="M1139.8,461.88c1.21-.1,2.44-.17,3.66-.25.7-.05,1.41-.12,2.12-.16.05-.47.13-.95.13-1.42-.04-.02-.09-.05-.13-.07-1.21-.33-2.47-.61-3.72-.89-.02,0-.05,0-.08-.01-.06,0-.11,0-.18.01-.77.06-1.55.1-2.31.18-.21.12-.43.24-.64.35-.87.45-1.77.88-2.55,1.39-.06.16-.11.33-.16.49.9.13,1.8.21,2.72.28.38.03.75.06,1.12.1Z"/><path class="c" d="M1137.97,460.25c.58-.32,1.14-.64,1.88-.84.47-.12.96-.22,1.45-.31-.66.04-1.33.09-1.99.16-.21.12-.43.24-.64.35-.87.45-1.77.88-2.55,1.39,0,0,0,.02-.01.03.6-.27,1.3-.47,1.86-.78Z"/><path class="i" d="M1145.59,459.97c-1.12-.31-2.28-.57-3.45-.83-.07.21-.13.41-.2.62-.13.33-.3.74-.78.97-.25.12-.51.18-.83.21-.61.08-1.21.17-1.81.25-.76.1-1.63.16-2.4.31.85.11,1.7.19,2.56.26.38.03.75.06,1.12.1,1.21-.1,2.44-.17,3.66-.25.7-.05,1.41-.12,2.12-.16.05-.47.13-.95.13-1.42-.04-.02-.09-.05-.13-.07Z"/><path class="i" d="M1145.58,461.46c.05-.4.13-1.02.13-1.42-.04-.02-.09-.05-.13-.07-1.12-.31-2.28-.57-3.45-.83-.07.21-.13.41-.2.62-.12.3-.26.66-.65.9.9.11,3.75.73,4.29.8Z"/><path class="g" d="M1126.67,461.47c1.21-.11,2.44-.17,3.66-.26.71-.05,1.41-.12,2.12-.16.05-.48.13-.95.14-1.42-.05-.02-.09-.05-.13-.07-1.21-.33-2.47-.61-3.73-.89-.02,0-.05,0-.07-.01-.06,0-.12.01-.18.02-.77.05-1.54.09-2.3.18-.22.12-.43.24-.64.35-.87.45-1.77.89-2.54,1.39-.06.16-.11.32-.16.49.9.13,1.81.21,2.72.28.38.03.74.06,1.11.1Z"/><path class="c" d="M1124.85,459.84c.58-.32,1.13-.64,1.88-.84.47-.13.96-.23,1.45-.31-.67.04-1.33.09-1.99.16-.22.12-.43.24-.64.35-.87.45-1.77.89-2.54,1.39,0,0,0,.02-.01.03.6-.27,1.3-.47,1.86-.78Z"/><path class="i" d="M1132.46,459.56c-1.13-.31-2.28-.57-3.45-.83-.07.21-.12.41-.2.62-.13.33-.28.74-.78.97-.25.12-.51.17-.82.22-.61.08-1.21.17-1.81.25-.76.1-1.63.16-2.4.31.84.11,1.69.19,2.56.26.38.03.74.06,1.11.1,1.21-.11,2.44-.17,3.66-.26.71-.05,1.41-.12,2.12-.16.05-.48.13-.95.14-1.42-.05-.02-.09-.05-.13-.07Z"/><path class="i" d="M1132.45,461.05c.05-.4.13-1.02.14-1.42-.05-.02-.09-.05-.13-.07-1.13-.31-2.28-.57-3.45-.83-.07.21-.12.41-.2.62-.11.3-.26.66-.64.9.9.11,3.74.73,4.28.8Z"/><path class="g" d="M1057.42,465.27c2.92-.25,5.88-.41,8.82-.61,1.71-.12,3.41-.28,5.11-.39.13-1.14.3-2.28.32-3.43-.1-.06-.2-.11-.3-.17-2.92-.8-5.94-1.47-8.97-2.14-.06,0-.12-.02-.18-.03-.14.01-.28.02-.43.03-1.85.14-3.72.23-5.55.44-.52.28-1.03.57-1.54.83-2.09,1.09-4.26,2.14-6.13,3.35-.15.39-.27.79-.38,1.18,2.15.3,4.35.51,6.55.68.91.07,1.8.15,2.68.25Z"/><path class="c" d="M1053.02,461.35c1.4-.76,2.73-1.54,4.53-2.01,1.13-.3,2.31-.54,3.49-.74-1.61.11-3.22.21-4.8.38-.52.28-1.03.57-1.54.83-2.09,1.09-4.26,2.14-6.13,3.35-.01.02-.01.05-.02.07,1.44-.66,3.12-1.14,4.47-1.88Z"/><path class="i" d="M1071.37,460.67c-2.71-.74-5.5-1.37-8.3-1.99-.18.49-.31,1-.49,1.48-.3.8-.7,1.78-1.87,2.34-.6.29-1.22.42-1.99.52-1.46.19-2.91.41-4.36.61-1.84.25-3.93.38-5.77.75,2.02.28,4.08.47,6.15.63.91.07,1.8.15,2.68.25,2.92-.25,5.88-.41,8.82-.61,1.71-.12,3.41-.28,5.11-.39.13-1.14.3-2.28.32-3.43-.1-.06-.2-.11-.3-.17Z"/><path class="i" d="M1071.35,464.27c.12-.96.31-2.47.32-3.43-.1-.06-.2-.11-.3-.17-2.71-.74-5.5-1.37-8.3-1.99-.18.49-.31,1-.49,1.48-.27.72-.63,1.59-1.55,2.17,2.17.27,9.03,1.75,10.33,1.93Z"/><path class="b" d="M1365.92,469.85c6.4-.56,12.86-.9,19.3-1.35,3.73-.26,7.46-.6,11.19-.86.29-2.5.67-5,.69-7.5-.22-.12-.44-.25-.66-.36-6.38-1.76-13-3.23-19.63-4.67-.14-.02-.27-.04-.39-.07-.32.03-.63.05-.94.08-4.07.29-8.15.51-12.16.95-1.13.62-2.24,1.24-3.37,1.82-4.58,2.37-9.32,4.67-13.41,7.32-.33.86-.6,1.73-.84,2.59,4.72.67,9.52,1.11,14.36,1.5,1.98.16,3.92.33,5.87.54Z"/><path class="c" d="M1358.29,460.25c2.63-1.39,5.1-3.15,8.64-3.82,3.43-.65,7.02-.98,10.65-1.15-.26-.06-.51-.11-.77-.17-.14-.02-.27-.04-.39-.07-.32.03-.63.05-.94.08-4.07.29-8.15.51-12.16.95-1.13.62-2.24,1.24-3.37,1.82-4.35,2.25-8.82,4.43-12.76,6.91,3.81-1.43,7.79-2.8,11.1-4.56Z"/><path class="j" d="M1396.44,459.78c-5.91-1.63-12.02-3.01-18.17-4.35-.39,1.08-.67,2.18-1.07,3.25-.67,1.76-1.53,3.91-4.09,5.14-1.32.63-2.67.92-4.35,1.14-3.2.41-6.37.89-9.57,1.32-4.02.55-8.6.84-12.62,1.65,4.43.61,8.94,1.02,13.48,1.39,1.98.16,3.92.33,5.87.54,6.4-.56,12.86-.9,19.3-1.35,3.73-.26,7.46-.6,11.19-.86.29-2.5.67-5,.69-7.5-.22-.12-.44-.25-.66-.36Z"/><path class="j" d="M1396.41,467.64c.26-2.1.68-5.4.69-7.5-.22-.12-.44-.25-.66-.36-5.91-1.63-12.02-3.01-18.17-4.35-.39,1.08-.67,2.18-1.07,3.25-.6,1.59-1.38,3.49-3.4,4.75,4.74.59,19.76,3.83,22.62,4.23Z"/><path class="g" d="M1383.96,485.71c1.73-.15,3.49-.24,5.22-.37,1.02-.07,2.02-.16,3.04-.23.08-.68.18-1.35.19-2.03-.06-.03-.12-.07-.18-.1-1.73-.47-3.51-.88-5.31-1.26-.04,0-.08-.01-.11-.02-.08,0-.16.02-.25.02-1.1.08-2.2.14-3.29.26-.31.17-.61.34-.91.49-1.24.64-2.53,1.26-3.63,1.98-.09.23-.16.47-.23.7,1.27.18,2.57.3,3.88.41.53.04,1.06.09,1.59.15Z"/><path class="c" d="M1381.36,483.39c.82-.45,1.61-.91,2.68-1.19.68-.18,1.37-.32,2.07-.44-.96.06-1.91.12-2.85.23-.31.17-.61.34-.91.49-1.24.64-2.53,1.26-3.63,1.98,0,.01,0,.03-.01.04.86-.39,1.85-.68,2.66-1.11Z"/><path class="i" d="M1392.22,482.99c-1.6-.44-3.25-.82-4.92-1.18-.1.29-.18.59-.29.88-.18.47-.41,1.06-1.11,1.39-.36.17-.72.25-1.18.31-.86.11-1.72.24-2.59.36-1.09.15-2.33.23-3.42.45,1.2.16,2.42.28,3.65.38.53.04,1.06.09,1.59.15,1.73-.15,3.49-.24,5.22-.37,1.02-.07,2.02-.16,3.04-.23.08-.68.18-1.35.19-2.03-.06-.03-.12-.07-.18-.1Z"/><path class="i" d="M1392.22,485.12c.06-.57.18-1.46.19-2.03-.06-.03-.12-.07-.18-.1-1.6-.44-3.25-.82-4.92-1.18-.1.29-.18.59-.29.88-.16.43-.37.94-.92,1.28,1.28.16,5.34,1.04,6.12,1.14Z"/><path class="g" d="M1404.49,469.06c1.21-.11,2.44-.17,3.66-.25.7-.05,1.41-.12,2.12-.16.06-.47.13-.95.14-1.42-.04-.02-.09-.05-.13-.07-1.21-.33-2.47-.61-3.72-.89-.02,0-.05,0-.07-.01-.06,0-.12.01-.18.02-.77.05-1.54.1-2.31.18-.22.12-.43.24-.64.35-.87.45-1.77.89-2.55,1.39-.06.16-.11.33-.16.49.89.12,1.8.21,2.72.28.37.03.74.06,1.11.1Z"/><path class="c" d="M1402.66,467.43c.59-.32,1.14-.64,1.88-.84.47-.12.96-.22,1.45-.31-.66.04-1.33.09-1.99.16-.22.12-.43.24-.64.35-.87.45-1.77.89-2.55,1.39,0,0,0,.02-.01.03.6-.27,1.3-.47,1.86-.78Z"/><path class="i" d="M1410.28,467.15c-1.12-.31-2.28-.57-3.44-.83-.08.21-.13.41-.2.62-.13.33-.3.74-.78.97-.25.12-.51.18-.82.21-.61.08-1.21.17-1.82.25-.76.1-1.63.16-2.4.31.85.12,1.7.19,2.56.26.37.03.74.06,1.11.1,1.21-.11,2.44-.17,3.66-.25.7-.05,1.41-.12,2.12-.16.06-.47.13-.95.14-1.42-.04-.02-.09-.05-.13-.07Z"/><path class="i" d="M1410.27,468.64c.05-.4.13-1.02.14-1.42-.04-.02-.09-.05-.13-.07-1.12-.31-2.28-.57-3.44-.83-.08.21-.13.41-.2.62-.12.3-.26.66-.65.9.9.11,3.75.73,4.29.8Z"/><path class="g" d="M1391.36,468.65c1.21-.11,2.44-.17,3.66-.26.71-.05,1.41-.12,2.12-.16.05-.48.13-.95.14-1.42-.04-.02-.09-.05-.13-.07-1.21-.33-2.47-.61-3.73-.88-.02,0-.05,0-.07-.01-.06,0-.12.01-.18.01-.77.05-1.54.1-2.31.18-.21.12-.43.24-.64.35-.87.45-1.77.89-2.54,1.39-.07.16-.12.33-.16.49.9.13,1.81.21,2.73.28.38.03.74.06,1.11.1Z"/><path class="c" d="M1389.54,467.02c.58-.32,1.12-.64,1.87-.84.47-.12.96-.23,1.45-.31-.67.04-1.34.09-2,.16-.21.12-.43.24-.64.35-.87.45-1.77.89-2.54,1.39,0,0,0,.02-.01.03.6-.27,1.3-.47,1.86-.78Z"/><path class="i" d="M1397.15,466.74c-1.12-.31-2.28-.57-3.45-.82-.07.21-.12.41-.2.62-.13.33-.29.74-.78.97-.25.12-.51.17-.82.22-.61.08-1.21.17-1.81.25-.76.1-1.63.16-2.4.31.84.11,1.69.19,2.56.26.38.03.74.06,1.11.1,1.21-.11,2.44-.17,3.66-.26.71-.05,1.41-.12,2.12-.16.05-.48.13-.95.14-1.42-.04-.02-.09-.05-.13-.07Z"/><path class="i" d="M1397.14,468.23c.05-.4.13-1.02.14-1.42-.04-.02-.09-.05-.13-.07-1.12-.31-2.28-.57-3.45-.82-.07.21-.12.41-.2.62-.11.3-.26.66-.64.9.89.11,3.74.73,4.28.8Z"/><path class="g" d="M1322.12,472.45c2.92-.25,5.88-.41,8.82-.61,1.71-.12,3.41-.28,5.11-.39.13-1.14.3-2.28.32-3.43-.1-.06-.2-.11-.3-.17-2.92-.8-5.94-1.47-8.97-2.14-.06,0-.12-.02-.18-.03-.14.01-.28.02-.43.03-1.85.13-3.72.23-5.56.44-.51.28-1.03.57-1.54.83-2.09,1.09-4.27,2.14-6.13,3.34-.16.39-.28.79-.38,1.19,2.15.3,4.34.5,6.55.68.91.08,1.8.15,2.68.25Z"/><path class="c" d="M1317.72,468.53c1.4-.76,2.73-1.54,4.53-2.01,1.13-.3,2.31-.54,3.49-.74-1.6.11-3.22.21-4.8.38-.51.28-1.03.57-1.54.83-2.09,1.09-4.27,2.14-6.13,3.34-.01.03-.01.05-.03.07,1.44-.66,3.12-1.14,4.48-1.88Z"/><path class="i" d="M1336.06,467.85c-2.7-.74-5.5-1.37-8.3-1.99-.18.49-.31,1-.49,1.49-.31.8-.7,1.78-1.87,2.34-.6.29-1.22.42-1.99.52-1.47.19-2.91.41-4.37.61-1.83.25-3.93.38-5.76.75,2.02.28,4.08.47,6.15.63.91.08,1.8.15,2.68.25,2.92-.25,5.88-.41,8.82-.61,1.71-.12,3.41-.28,5.11-.39.13-1.14.3-2.28.32-3.43-.1-.06-.2-.11-.3-.17Z"/><path class="i" d="M1336.04,471.45c.12-.96.31-2.47.32-3.43-.1-.06-.2-.11-.3-.17-2.7-.74-5.5-1.37-8.3-1.99-.18.49-.31,1-.49,1.49-.28.72-.63,1.59-1.56,2.17,2.17.27,9.03,1.75,10.33,1.93Z"/><path class="b" d="M1227.99,356.12c6.4-.56,12.87-.9,19.3-1.35,3.73-.26,7.45-.6,11.19-.86.29-2.5.67-5,.69-7.51-.22-.12-.44-.25-.66-.36-6.38-1.76-12.99-3.23-19.63-4.67-.14-.02-.27-.04-.4-.07-.31.03-.63.05-.94.08-4.07.29-8.15.51-12.17.95-1.13.62-2.25,1.25-3.37,1.83-4.58,2.37-9.32,4.67-13.41,7.32-.33.86-.59,1.73-.84,2.59,4.72.67,9.52,1.11,14.35,1.5,1.98.16,3.93.33,5.87.54Z"/><path class="c" d="M1220.37,346.52c2.62-1.39,5.1-3.15,8.63-3.82,3.43-.65,7.02-.98,10.66-1.15-.26-.06-.52-.11-.77-.17-.14-.02-.27-.04-.4-.07-.31.03-.63.05-.94.08-4.07.29-8.15.51-12.17.95-1.13.62-2.25,1.25-3.37,1.83-4.34,2.25-8.82,4.43-12.75,6.91,3.81-1.43,7.79-2.8,11.1-4.56Z"/><path class="j" d="M1258.52,346.05c-5.92-1.63-12.03-3.01-18.18-4.35-.38,1.08-.67,2.18-1.07,3.25-.67,1.75-1.54,3.91-4.09,5.14-1.32.63-2.67.92-4.35,1.14-3.2.41-6.37.89-9.57,1.32-4.02.55-8.6.84-12.62,1.65,4.43.6,8.94,1.02,13.48,1.38,1.98.16,3.93.33,5.87.54,6.4-.56,12.87-.9,19.3-1.35,3.73-.26,7.45-.6,11.19-.86.29-2.5.67-5,.69-7.51-.22-.12-.44-.25-.66-.36Z"/><path class="j" d="M1258.49,353.91c.25-2.1.68-5.4.69-7.51-.22-.12-.44-.25-.66-.36-5.92-1.63-12.03-3.01-18.18-4.35-.38,1.08-.67,2.18-1.07,3.25-.6,1.59-1.38,3.49-3.41,4.75,4.74.59,19.76,3.83,22.62,4.23Z"/><path class="g" d="M1246.04,371.98c1.74-.15,3.48-.24,5.22-.36,1.01-.07,2.02-.16,3.03-.23.08-.68.18-1.35.19-2.03-.06-.03-.12-.07-.18-.1-1.73-.47-3.52-.88-5.31-1.27-.04,0-.08,0-.11-.02-.09,0-.17.02-.25.02-1.1.08-2.2.14-3.29.26-.31.17-.61.34-.92.49-1.24.64-2.52,1.27-3.63,1.98-.09.23-.16.47-.22.7,1.27.18,2.57.3,3.88.4.53.04,1.06.09,1.59.15Z"/><path class="c" d="M1243.43,369.66c.83-.45,1.62-.91,2.68-1.19.68-.18,1.37-.32,2.07-.44-.95.06-1.9.12-2.84.23-.31.17-.61.34-.92.49-1.24.64-2.52,1.27-3.63,1.98,0,.01-.01.03-.01.04.86-.39,1.85-.68,2.65-1.11Z"/><path class="i" d="M1254.31,369.26c-1.6-.44-3.26-.82-4.92-1.18-.1.29-.18.59-.29.88-.18.47-.42,1.06-1.11,1.39-.35.17-.73.25-1.18.31-.87.11-1.73.24-2.59.36-1.09.15-2.33.22-3.41.45,1.2.16,2.42.28,3.64.37.53.04,1.06.09,1.59.15,1.74-.15,3.48-.24,5.22-.36,1.01-.07,2.02-.16,3.03-.23.08-.68.18-1.35.19-2.03-.06-.03-.12-.07-.18-.1Z"/><path class="i" d="M1254.3,371.39c.06-.57.18-1.46.19-2.03-.06-.03-.12-.07-.18-.1-1.6-.44-3.26-.82-4.92-1.18-.1.29-.18.59-.29.88-.16.43-.37.94-.92,1.28,1.28.16,5.35,1.04,6.12,1.14Z"/><path class="g" d="M1266.57,355.33c1.21-.1,2.44-.17,3.66-.25.7-.05,1.41-.11,2.12-.16.06-.47.13-.95.13-1.42-.04-.02-.09-.05-.13-.07-1.21-.33-2.47-.61-3.72-.89-.03,0-.05,0-.08-.01-.06,0-.12.01-.18.01-.77.06-1.55.1-2.31.18-.22.11-.43.24-.64.34-.87.45-1.77.89-2.55,1.39-.06.16-.11.33-.16.49.89.13,1.8.21,2.72.28.38.03.74.06,1.11.1Z"/><path class="c" d="M1264.74,353.7c.58-.32,1.14-.64,1.88-.84.47-.12.96-.23,1.45-.31-.66.04-1.33.09-1.99.16-.22.11-.43.24-.64.34-.87.45-1.77.89-2.55,1.39,0,0,0,.02-.01.03.6-.27,1.3-.47,1.86-.78Z"/><path class="i" d="M1272.36,353.42c-1.12-.31-2.28-.57-3.45-.83-.07.21-.13.41-.2.62-.13.33-.29.74-.78.97-.25.12-.51.18-.82.22-.61.08-1.21.17-1.82.25-.76.1-1.63.16-2.39.31.84.11,1.69.19,2.56.26.38.03.74.06,1.11.1,1.21-.1,2.44-.17,3.66-.25.7-.05,1.41-.11,2.12-.16.06-.47.13-.95.13-1.42-.04-.02-.09-.05-.13-.07Z"/><path class="i" d="M1272.35,354.91c.05-.4.13-1.02.13-1.42-.04-.02-.09-.05-.13-.07-1.12-.31-2.28-.57-3.45-.83-.07.21-.13.41-.2.62-.12.3-.26.66-.64.9.9.11,3.75.73,4.29.8Z"/><path class="g" d="M1253.44,354.92c1.21-.11,2.44-.17,3.66-.26.71-.05,1.41-.11,2.12-.16.06-.48.13-.95.13-1.42-.04-.02-.08-.05-.12-.07-1.21-.33-2.47-.61-3.73-.88-.02,0-.05,0-.07-.01-.06,0-.12.01-.18.02-.77.05-1.54.1-2.31.18-.21.12-.43.24-.64.35-.87.45-1.77.88-2.54,1.39-.07.16-.12.32-.16.49.9.13,1.8.21,2.73.28.37.03.74.06,1.11.1Z"/><path class="c" d="M1251.62,353.29c.58-.32,1.13-.64,1.87-.84.47-.13.96-.23,1.45-.31-.67.04-1.34.09-2,.16-.21.12-.43.24-.64.35-.87.45-1.77.88-2.54,1.39,0,0,0,.02-.01.03.6-.27,1.3-.47,1.86-.78Z"/><path class="i" d="M1259.23,353.01c-1.12-.31-2.28-.57-3.45-.83-.07.21-.13.41-.2.62-.13.33-.29.74-.78.97-.25.12-.51.17-.82.22-.61.08-1.21.17-1.81.25-.76.11-1.63.16-2.4.31.84.11,1.7.19,2.57.26.37.03.74.06,1.11.1,1.21-.11,2.44-.17,3.66-.26.71-.05,1.41-.11,2.12-.16.06-.48.13-.95.13-1.42-.04-.02-.08-.05-.12-.07Z"/><path class="i" d="M1259.22,354.5c.05-.4.13-1.02.13-1.42-.04-.02-.08-.05-.12-.07-1.12-.31-2.28-.57-3.45-.83-.07.21-.13.41-.2.62-.11.3-.26.66-.65.9.9.11,3.75.73,4.29.8Z"/><path class="g" d="M1184.19,358.72c2.92-.25,5.88-.41,8.82-.61,1.71-.12,3.41-.28,5.11-.39.13-1.14.31-2.28.32-3.43-.1-.05-.2-.11-.3-.17-2.92-.8-5.94-1.47-8.97-2.13-.06-.01-.12-.02-.18-.03-.15.01-.28.02-.43.03-1.86.13-3.72.23-5.56.43-.51.29-1.02.57-1.54.84-2.09,1.08-4.26,2.13-6.13,3.34-.15.39-.27.79-.38,1.18,2.15.3,4.35.51,6.55.68.92.07,1.8.15,2.68.25Z"/><path class="c" d="M1179.8,354.8c1.4-.76,2.73-1.54,4.53-2.01,1.13-.3,2.31-.54,3.49-.74-1.6.11-3.22.21-4.8.38-.51.29-1.02.57-1.54.84-2.09,1.08-4.26,2.13-6.13,3.34-.01.02-.01.05-.02.07,1.45-.66,3.12-1.14,4.48-1.88Z"/><path class="i" d="M1198.14,354.12c-2.71-.74-5.5-1.37-8.3-1.99-.18.49-.31,1-.49,1.48-.3.8-.7,1.78-1.86,2.34-.6.29-1.23.42-1.99.52-1.47.19-2.91.41-4.37.61-1.84.25-3.93.38-5.76.75,2.02.28,4.08.47,6.15.63.92.07,1.8.15,2.68.25,2.92-.25,5.88-.41,8.82-.61,1.71-.12,3.41-.28,5.11-.39.13-1.14.31-2.28.32-3.43-.1-.05-.2-.11-.3-.17Z"/><path class="i" d="M1198.12,357.72c.12-.96.31-2.47.32-3.43-.1-.05-.2-.11-.3-.17-2.71-.74-5.5-1.37-8.3-1.99-.18.49-.31,1-.49,1.48-.28.72-.62,1.59-1.55,2.17,2.17.27,9.03,1.75,10.33,1.93Z"/></g></g></svg>