<?xml version="1.0" encoding="utf-8"?>
<!-- Generator: Adobe Illustrator 27.9.4, SVG Export Plug-In . SVG Version: 9.03 Build 54784)  -->
<svg version="1.1" id="Calque_1" xmlns="http://www.w3.org/2000/svg" xmlns:xlink="http://www.w3.org/1999/xlink" x="0px" y="0px"
	 viewBox="0 0 1807.6 354" style="enable-background:new 0 0 1807.6 354;" xml:space="preserve">
<style type="text/css">
	.st0{opacity:0.1;}
	.st1{fill:#D94140;}
</style>
<g>
	<g class="st0">
		<rect x="1229.2" y="122.7" width="125.3" height="231.4"/>
		<polygon points="1658.5,102.8 1619.6,70.5 1580.7,102.8 1564.9,102.8 1525.9,70.5 1487,102.8 1471.2,102.8 1432.3,70.5 
			1393.4,102.8 1386,102.8 1386,354 1665.9,354 1665.9,102.8 		"/>
		<rect x="746.2" y="61.1" width="292.9" height="292.9"/>
		<rect x="1110.3" width="84.5" height="354"/>
		<rect x="441.8" y="55.1" width="147.8" height="299"/>
		<polygon points="317.5,172.5 317.5,110.5 307.1,110.5 307.1,103.6 271.1,103.6 271.1,110.5 262.2,110.5 262.2,103.6 203,103.6 
			203,110.5 190.2,110.5 190.2,172.5 141.8,172.5 141.8,354 413.2,354 413.2,172.5 		"/>
	</g>
	<g>
		<rect x="1711.9" y="228.2" class="st1" width="95.8" height="125.9"/>
		<rect x="1540.2" y="187.8" class="st1" width="144.8" height="166.2"/>
		<rect x="795.9" y="140.4" class="st1" width="100" height="213.6"/>
		<g>
			<rect x="1253.2" y="162.7" class="st1" width="63.2" height="191.3"/>
			<g>
				<rect x="1260.6" y="150.6" class="st1" width="10.4" height="12.1"/>
				<rect x="1298.6" y="150.6" class="st1" width="10.4" height="12.1"/>
			</g>
			<rect x="1344.9" y="162.7" class="st1" width="63.2" height="191.3"/>
			<g>
				<rect x="1352.3" y="150.6" class="st1" width="10.4" height="12.1"/>
				<rect x="1390.3" y="150.6" class="st1" width="10.4" height="12.1"/>
			</g>
			<rect x="1436.6" y="162.7" class="st1" width="63.2" height="191.3"/>
			<g>
				<rect x="1444" y="150.6" class="st1" width="10.4" height="12.1"/>
				<rect x="1482" y="150.6" class="st1" width="10.4" height="12.1"/>
			</g>
		</g>
		<g>
			<g>
				<path class="st1" d="M103.2,317c-47.7,0-86.4-38.8-86.4-86.4c0-47.7,38.8-86.4,86.4-86.4c47.7,0,86.4,38.8,86.4,86.4
					C189.6,278.3,150.9,317,103.2,317z M103.2,149c-45,0-81.6,36.6-81.6,81.6s36.6,81.6,81.6,81.6c45,0,81.6-36.6,81.6-81.6
					S148.2,149,103.2,149z"/>
			</g>
			<g>
				<path class="st1" d="M103.2,264.3c-18.6,0-33.7-15.1-33.7-33.7c0-18.6,15.1-33.7,33.7-33.7s33.7,15.1,33.7,33.7
					C136.9,249.2,121.8,264.3,103.2,264.3z M103.2,201.7c-15.9,0-28.9,12.9-28.9,28.8c0,15.9,12.9,28.9,28.9,28.9
					s28.9-12.9,28.9-28.9C132,214.7,119.1,201.7,103.2,201.7z"/>
			</g>
			<g>
				<circle class="st1" cx="103.2" cy="230.6" r="8.8"/>
			</g>
			<g>
				<path class="st1" d="M206.4,226c0-7.4-6-13.5-13.5-13.5l0,0c-7.4,0-13.5,6-13.5,13.5v1.5h2.1v14.8c0,3.4,2.8,6.2,6.2,6.2h10.3
					c3.4,0,6.2-2.8,6.2-6.2v-14.8h2.1V226z M186,242.6v-15h2.4v15H186z M191.7,242.6v-15h2.4v15H191.7z M199.8,242.6h-2.4v-15h2.4
					V242.6z"/>
			</g>
			<g>
				<rect x="103.2" y="228.2" class="st1" width="84" height="4.9"/>
			</g>
			<g>
				<path class="st1" d="M180.9,162.3c0-7.4-6-13.5-13.5-13.5l0,0c-7.4,0-13.5,6-13.5,13.5v1.5h2.1v14.8c0,3.4,2.8,6.2,6.2,6.2h10.3
					c3.4,0,6.2-2.8,6.2-6.2v-14.8h2.1V162.3z M160.5,178.8v-15h2.4v15H160.5z M166.2,178.8v-15h2.4v15H166.2z M174.3,178.8H172v-15
					h2.4V178.8z"/>
			</g>
			<g>
				
					<rect x="90.9" y="198.4" transform="matrix(0.7071 -0.7071 0.7071 0.7071 -103.1233 152.8196)" class="st1" width="84" height="4.9"/>
			</g>
			<g>
				<path class="st1" d="M116.7,136.3c0-7.4-6-13.5-13.5-13.5l0,0c-7.4,0-13.5,6-13.5,13.5v1.5h2.1v14.8c0,3.4,2.8,6.2,6.2,6.2h10.3
					c3.4,0,6.2-2.8,6.2-6.2v-14.8h2.1V136.3z M96.3,152.8v-15h2.4v15H96.3z M102,152.8v-15h2.4v15H102z M110.1,152.8h-2.4v-15h2.4
					V152.8z"/>
			</g>
			<g>
				<rect x="100.8" y="146.6" class="st1" width="4.9" height="84"/>
			</g>
			<g>
				<path class="st1" d="M54,160.8c0-7.4-6-13.5-13.5-13.5l0,0c-7.4,0-13.5,6-13.5,13.5v1.5h2.1v14.8c0,3.4,2.8,6.2,6.2,6.2h10.3
					c3.4,0,6.2-2.8,6.2-6.2v-14.8H54V160.8z M33.6,177.3v-15H36v15H33.6z M39.3,177.3v-15h2.4v15H39.3z M47.4,177.3h-2.4v-15h2.4
					V177.3z"/>
			</g>
			<g>
				
					<rect x="71.1" y="158.9" transform="matrix(0.7071 -0.7071 0.7071 0.7071 -120.5214 110.8079)" class="st1" width="4.9" height="84"/>
			</g>
			<g>
				<path class="st1" d="M0,227.6h2.1v14.8c0,3.4,2.8,6.2,6.2,6.2h10.3c3.4,0,6.2-2.8,6.2-6.2v-14.8H27V226c0-7.4-6-13.5-13.5-13.5
					l0,0C6,212.6,0,218.6,0,226V227.6z M18,242.6v-15h2.4v15H18z M12.3,242.6v-15h2.4v15H12.3z M6.6,227.6h2.4v15H6.6V227.6z"/>
			</g>
			<g>
				<rect x="19.2" y="228.2" class="st1" width="84" height="4.9"/>
			</g>
			<g>
				<path class="st1" d="M52.5,287.6c0-7.4-6-13.5-13.5-13.5l0,0c-7.4,0-13.5,6-13.5,13.5v1.5h2.1V304c0,3.4,2.8,6.2,6.2,6.2h10.3
					c3.4,0,6.2-2.8,6.2-6.2v-14.8h2.1V287.6z M32.1,304.2v-15h2.4v15H32.1z M37.8,304.2v-15h2.4v15H37.8z M45.9,304.2h-2.4v-15h2.4
					V304.2z"/>
			</g>
			<g>
				
					<rect x="31.5" y="257.9" transform="matrix(0.7071 -0.7071 0.7071 0.7071 -162.5221 128.1985)" class="st1" width="84" height="4.9"/>
			</g>
			<g>
				<path class="st1" d="M116.7,315.8c0-7.4-6-13.5-13.5-13.5l0,0c-7.4,0-13.5,6-13.5,13.5v1.5h2.1v14.8c0,3.4,2.8,6.2,6.2,6.2h10.3
					c3.4,0,6.2-2.8,6.2-6.2v-14.8h2.1V315.8z M96.3,332.3v-15h2.4v15H96.3z M102,332.3v-15h2.4v15H102z M110.1,332.3h-2.4v-15h2.4
					V332.3z"/>
			</g>
			<g>
				<rect x="100.8" y="230.6" class="st1" width="4.9" height="84"/>
			</g>
			<g>
				<path class="st1" d="M179.4,289.2c0-7.4-6-13.5-13.5-13.5l0,0c-7.4,0-13.5,6-13.5,13.5v1.5h2.1v14.8c0,3.4,2.8,6.2,6.2,6.2H171
					c3.4,0,6.2-2.8,6.2-6.2v-14.8h2.1V289.2z M159,305.7v-15h2.4v15H159z M164.7,305.7v-15h2.4v15H164.7z M172.8,305.7h-2.4v-15h2.4
					V305.7z"/>
			</g>
			<g>
				
					<rect x="130.5" y="218.3" transform="matrix(0.7071 -0.7071 0.7071 0.7071 -145.1264 170.2093)" class="st1" width="4.9" height="84"/>
			</g>
			<g>
				<path class="st1" d="M171.3,354H35.1l68.1-129.4L171.3,354z M43.2,349.2h120.1l-60-114L43.2,349.2z"/>
			</g>
		</g>
		<polygon class="st1" points="630.1,116.8 605.5,116.8 598.9,133.1 571.2,133.1 564.6,116.8 554.6,116.8 542.5,87.1 497.4,87.1 
			485.4,116.8 475.3,116.8 468.7,133.1 441.1,133.1 434.5,116.8 409.9,116.8 403.3,133.1 403.3,354 485.4,354 554.6,354 636.7,354 
			636.7,133.1 		"/>
		<rect x="928.4" y="108.5" class="st1" width="275.9" height="245.5"/>
		<path class="st1" d="M376.1,301h4.7v-14.4h-7.4L363,233.7h5.6v-5.3H363c0,0-21.5-121.9-19.7-176.1h4.4v-4.8H344v-8.8h-2.9
			c0-2.3-1.4-4.1-3.5-4.8l-1.2-12.5c0.8-0.1,1.4-0.7,1.4-1.5c0-0.9-0.7-1.5-1.5-1.5s-1.5,0.7-1.5,1.5c0,0.8,0.6,1.4,1.4,1.5
			L335,33.9c-2,0.7-3.5,2.6-3.5,4.8h-2.9v8.8h-3.7v4.8h4.4c1.8,54.1-19.7,176.1-19.7,176.1h-5.6v5.3h5.6l-10.4,52.9h-7.4V301h4.7
			l-16.6,53h22.3l4.5-17.8c3.4-13.6,15.6-23.1,29.5-23.3c14,0.2,26.1,9.7,29.5,23.3l4.5,17.8h22.3L376.1,301z M336.3,33.6
			L336.3,33.6L336.3,33.6C336.4,33.6,336.4,33.6,336.3,33.6C336.3,33.6,336.3,33.6,336.3,33.6z M325,256.7c0.9-5.6,5.6-9.8,11.3-10
			c5.7,0.2,10.4,4.3,11.3,10l4.7,29.9h-9.2h-6.4h-16.3L325,256.7z"/>
		<g>
			<rect x="651.8" y="162.8" class="st1" width="89.7" height="191.2"/>
			<rect x="664.1" y="142.4" class="st1" width="42.9" height="20.3"/>
		</g>
	</g>
</g>
</svg>
