<?xml version="1.0" encoding="UTF-8"?><svg xmlns="http://www.w3.org/2000/svg" xmlns:xlink="http://www.w3.org/1999/xlink" viewBox="0 0 4038.22 1690.74"><defs><style>.c{fill:#95663c;}.c,.d,.e,.f,.g,.h,.i,.j,.k,.l,.m,.n,.o,.p,.q{stroke-width:0px;}.c,.e,.h,.l{mix-blend-mode:multiply;}.d{opacity:.75;}.d,.e,.q{fill:#753a2e;}.d,.g,.k,.q{mix-blend-mode:screen;}.f{fill:none;}.g{fill:#854437;}.h,.j,.k{fill:#c38551;}.i{fill:#ab5949;}.r{clip-path:url(#b);}.l{opacity:.61;}.l,.s{fill:#e0e1e2;}.m{fill:#abe1fa;}.t{isolation:isolate;}.s,.u{stroke:#231f20;stroke-miterlimit:10;stroke-width:7px;}.n{fill:#fff;}.o{fill:#5c2b1f;}.p{fill:#231f20;}.u{fill:#d1d3d7;}.q{opacity:.96;}</style><clipPath id="b"><rect class="f" width="4037.64" height="1690.74"/></clipPath></defs><g class="t"><g id="a"><g class="r"><rect class="m" x="0" width="4037.64" height="1690.74"/><path class="p" d="M10.95,1351.57c22.38.42,44.36.71,66.1.4,40.22-.57,82.86-4.31,134.16-11.78l7.1-1.04c43.75-6.39,88.99-13,134.02-10.64,39.46,2.08,77.25,13.17,113.81,23.9,6.34,1.86,12.89,3.78,19.32,5.62,10.28,2.94,20.56,5.9,30.83,8.86,29.45,8.49,59.9,17.26,90.15,25.35,93.04,24.89,170.92,38.36,245.08,42.42,53.77,2.94,97.81,6.9,138.61,12.47l8.98,1.23c39.98,5.48,81.31,11.14,122.69,12.44,88.84,2.78,179.45-2.21,267.06-7.03,8.27-.46,16.54-.91,24.79-1.36,16.65-.9,32.37-1.77,47.25-2.58,118.39-6.5,183.6-10.07,243.87-8.94,33.16.62,49.19,1.67,73.45,3.26,29.22,1.91,69.23,4.54,163.04,8.28,134.68,5.38,181.07,3.22,217.05.55l11.27-.84c24.6-1.83,50.04-3.72,75.09-5.33,17.93-.04,31.7.02,44.63.2,49.9.69,90.19,3.09,129.15,5.42,48.03,2.87,93.4,5.57,147.64,4.17,19.12-.5,26.34-1.11,33.31-1.7,6.99-.59,14.22-1.21,33.69-1.73,68.5-1.86,112.86,1.95,159.82,5.99,18.82,1.62,38.29,3.29,59.41,4.56,75.97,4.58,151.46,3,224.39-4.68,75.8-7.98,145.86-28.33,210.27-49.12,3.94-1.27,7.88-2.55,11.82-3.83,64.9-21.02,132.01-42.76,203.92-46.57,41.54-2.19,83.34,1.69,123.78,5.45,26.82,2.49,54.54,5.07,82.08,5.88,64.32,1.88,129.35-4.3,192.24-10.27,42.12-4,85.58-8.12,128.48-9.79,2.54-3.24,5.59-5.95,8.93-8.32l-.71.02c-45.88,1.42-92.44,5.85-137.46,10.12-62.65,5.95-127.43,12.11-191.25,10.24-27.28-.8-54.88-3.36-81.57-5.84-40.72-3.79-82.82-7.7-124.94-5.47-72.96,3.86-140.57,25.76-205.96,46.94-3.94,1.28-7.88,2.55-11.82,3.82-64,20.66-133.58,40.87-208.65,48.78-72.49,7.63-147.54,9.2-223.07,4.65-21.01-1.27-40.43-2.93-59.2-4.55-47.19-4.06-91.77-7.89-160.72-6.01-19.7.54-27.05,1.16-34.15,1.76-7.17.61-13.95,1.18-32.84,1.67-53.9,1.39-99.1-1.3-146.96-4.15-39.05-2.33-79.43-4.74-129.51-5.43-13.01-.18-26.85-.25-44.89-.2h-.25c-25.13,1.62-50.63,3.51-75.29,5.35l-11.27.84c-35.75,2.65-81.88,4.8-216.14-.56-93.7-3.74-133.66-6.36-162.84-8.27-24.38-1.6-40.48-2.65-73.83-3.28-60.57-1.14-125.88,2.45-244.46,8.96-14.88.82-30.6,1.68-47.24,2.58-8.26.45-16.52.9-24.8,1.36-87.45,4.82-177.87,9.8-266.37,7.03-40.96-1.28-82.08-6.92-121.86-12.37l-8.99-1.23c-41.02-5.6-85.27-9.58-139.25-12.53-73.59-4.02-150.95-17.42-243.45-42.16-30.18-8.07-60.59-16.83-90.01-25.31-10.28-2.96-20.56-5.92-30.85-8.86-6.4-1.83-12.94-3.75-19.26-5.6-36.99-10.86-75.25-22.09-115.64-24.22-45.82-2.41-91.46,4.26-135.6,10.71l-7.09,1.04c-50.96,7.42-93.26,11.14-133.12,11.7-23.75.33-47.83-.04-72.42-.53,1.34,3.03,3.86,5.77,6.42,8.13Z"/><path class="j" d="M3708.69,1366.84c-68.99-2.02-136.79-14.99-206.18-11.32-76.78,4.06-147.23,28.13-216.76,50.58-67.86,21.9-135.72,41.18-209.46,48.95-94.93,10-176.2,7.53-223.73,4.66-72.24-4.35-122.56-13.2-219.57-10.56-39.12,1.06-28.93,2.45-66.99,3.43-96.83,2.51-163.42-8.02-276.63-9.59-14.94-.21-29.88-.24-44.82-.2-28.87,1.85-57.71,4.04-86.52,6.18-38.51,2.86-86.3,4.64-216.59-.56-174.89-6.98-164.9-10.2-236.58-11.54-68.02-1.28-142.43,3.44-291.41,11.53-96.63,5.25-194.56,11.43-291.51,8.39-44.22-1.38-87.85-7.71-131.26-13.63-46.32-6.32-92.02-9.94-138.93-12.5-84.08-4.6-165.29-21.17-244.26-42.29-40.59-10.86-80.67-22.69-120.92-34.19-43.31-12.37-87.15-27.21-134.01-29.67-47.84-2.52-95.24,4.92-141.9,11.71-44.37,6.46-88.35,11.1-133.64,11.74-25.59.36-51.28-.1-76.99-.62v343.38h4037.64v-344.27c-109.61,3.4-218.98,23.58-328.94,20.36Z"/><path class="c" d="M4026.81,1392.99c-27.91,2.2-55.5,5.99-83.17,9.42,16.84,14.29,35.48,28.58,41.59,47.52.23.73-.45,1.27-1.39,1.34-9.47.77-18.96,1.2-28.49,1.29-78.27.73-153.98-18.44-229.72-30.32-38.6-6.05-77.99-10.62-117.57-9.69-18.16.43-35.41,2.29-52.09,7.8-14.43,4.77-27.59,11.33-40.41,18.08-26.16,13.77-52.8,29.28-85.13,34.04-39.11,5.75-80.1,2.82-119.39-.29-29.78-2.35-59.89-5.51-89.98-6.24-13.86.41-27.72,1.3-41.71,2.86-45.01,5.01-89.22,12.85-133.14,21.53-33.97,7.91-68.39,16.03-103.32,21.04-48.27,9.62-96.89,18.32-146.46,23.45-69.79,7.23-139.95,4.58-210.17,3.72-153.27-1.87-306.56-3.52-459.84-4.89-152.88-1.36-305.76-2.45-458.65-3.19-43.17-.21-86.34-.38-129.51-.54,116.2,7.61,232.81,12.96,349.13,5.71,1.85-.12,1.83,2.01,0,2.12-95.75,5.97-192.09,3.16-287.77-2.1-31.9-1.75-63.78-3.74-95.64-5.84-98.45-.32-196.91-.5-295.36-.5-1.85,0-1.85-2.12,0-2.12,19.23,0,38.45,0,57.68.02,68.15.04,136.31.18,204.46.37-42.01-2.86-84.01-5.85-126.01-8.72-87.93-6.01-175.72-13.17-263.19-22.13-44.49-4.56-88.8-10.53-133.47-14.05-43.14-3.41-86.49-4.95-129.77-6.94-41.56-1.91-83.16-4.24-124.33-9.01-21.63-2.51-43.13-5.69-64.31-9.83-2.58-.51-13.23-3.88-15.46-2.77-.83.41-1.22,4.97-1.63,6.09-2.4,6.51-6.37,12.66-6.84,19.49-.04.56-.63,1.08-1.44,1.06-40.32-1.05-71.94-14.24-97.55-36.7-22.08-19.36-39.74-41.36-65.45-58.41-15.8-10.47-34.64-19.66-55.5-23.38-25.74-4.58-53.03-2.15-78.67,1.55C202.51,1378.98,102.77,1406.87,0,1426.92v263.82h4037.64v-298.53c-3.62.23-7.23.5-10.83.78Z"/><path class="h" d="M3170.16,1467.54c-20.74,1.89-41.22,5.15-61.46,9.09,6.98-1.17,13.98-2.31,20.99-3.38,13.35-2.04,26.87-4.03,40.47-5.71Z"/><path class="k" d="M44.84,1356.82c52.23,1.93,104.74,1.83,156.71-2.9,48.87-4.44,98.9-16.34,148.25-8.82,1.46.22,1.27,1.75,0,2.04-38.26,8.88-78.28,16.48-113.43,31.1-32.48,13.52-57.25,33.89-85.85,51.06,30.09-10.41,53.47-28.67,82.1-41.02,14.71-6.35,29.65-9.56,46.12-12.43,20.3-3.53,40.16-8.34,60.56-11.59,17-2.71,33.66-4.22,51.02-2.69,17.73,1.56,35.05,5.13,52.01,9.15,17.07,4.05,34.06,8.42,50.93,12.9,13.49,3.58,25.66,9.18,35.21,17.12,18.97,15.77,27.89,36.65,44.97,53.51.37-17.59-9.36-34.45-11.6-51.87-.07-.53.71-1.12,1.44-1.06,26.48,2.07,47.14,16.58,72.96,20.29,29.95,4.3,60.21,7.4,90.54,9.85,54.08,4.37,108.44,5.75,162.56,10.02,55.02,4.34,110.05,8.07,165.15,11.75,26.17,1.75,52.31,4.25,78.6,4.76,15.22.29,30.44.1,45.65-.4-18.95.03-37.89-.2-56.79-.79-44.22-1.38-87.85-7.71-131.26-13.63-46.32-6.32-92.02-9.94-138.93-12.5-84.08-4.6-165.29-21.17-244.26-42.29-40.58-10.86-80.67-22.69-120.92-34.19-43.31-12.37-87.15-27.21-134.01-29.67-47.84-2.52-95.24,4.92-141.9,11.71-44.37,6.46-88.35,11.1-133.64,11.74C51.41,1348.34,25.71,1347.88,0,1347.36v7.37c14.93.82,29.88,1.54,44.84,2.09Z"/><path class="k" d="M3171.48,1443.11c44.79-6.04,89.28-13.41,134.62-16.95,42.41-3.31,84.99-3.31,127.51-1.33-30.97-8.38-64.72-9.91-94.89-20.11-.98-.33-.9-1.48,0-1.83,36.4-14.2,76.1-22.41,116.85-26.29,37.38-3.56,75.18-3.72,112.8-2.95,37.97.78,75.44,2.7,112.79,8.03,72.91,10.39,142.41,30.23,213.19,46.29-38.42-22.85-88.45-30.68-131.76-47.15-1.07-.41-.86-1.76.34-1.94,25.66-3.72,51.66-5.88,77.68-7.69,48.29-3.36,96.5-6.32,144.9-8.7,17.25-.85,34.66-4.21,52.12-7.15v-8.85c-109.61,3.4-218.98,23.58-328.94,20.36-68.99-2.02-136.79-14.99-206.18-11.32-76.78,4.06-147.23,28.13-216.76,50.58-57.7,18.63-115.42,35.33-176.74,44.69,20.91-2.27,41.75-4.89,62.47-7.68Z"/><path class="i" d="M3924.45,1484.21c-164.45,4.32-329.03-5.65-493.55-1.99-74.68,1.66-149.18,5.93-223.89,7.31-74.7,1.38-149.43,1.39-224.14.78-149.39-1.23-298.72-5.02-448.12-5.54-146.35-.51-292.2.92-438.51-3.35-148.84-4.34-297.67-10.37-446.68-9.9-148.91.47-297.11,11.49-446.06,12.02-148.99.53-297.9-3.86-446.86-4.95-73.81-.54-147.49,1.04-221.28,1.42-72.27.37-144.48-2.39-216.63-5C212.55,1471.18,105.75,1467.81,0,1474.81v215.93h4037.64v-211.08c-37.74,1.84-75.48,3.57-113.19,4.56Z"/><path class="d" d="M3924.45,1484.21c-164.45,4.32-329.03-5.65-493.55-1.99-74.68,1.66-149.18,5.93-223.89,7.31-74.7,1.38-149.43,1.39-224.14.78-149.39-1.23-298.72-5.02-448.12-5.54-146.35-.51-292.2.92-438.51-3.35-148.84-4.34-297.67-10.37-446.68-9.9-148.91.47-297.11,11.49-446.06,12.02-148.99.53-297.9-3.86-446.86-4.95-73.81-.54-147.49,1.04-221.28,1.42-72.27.37-144.48-2.39-216.63-5C212.55,1471.18,105.75,1467.81,0,1474.81v215.93h4037.64v-211.08c-37.74,1.84-75.48,3.57-113.19,4.56Z"/><path class="q" d="M3929.11,1645.9c-147.57.81-295-8.85-442.26-14.49-296.44-11.35-592.4,10.44-888.52,17.04-300.48,6.69-601.4-1.34-901.94-1.6-150.24-.13-300.23,4.03-450.41,5.3-150.74,1.27-301.39-3.89-451.88-9.67-150.53-5.78-301.03-11.64-451.62-16.4-74.33-2.35-148-7.78-222.48-5.94C79.98,1621.12,39.97,1622.79,0,1622.93v67.81h4037.64v-48.31c-36.12,1.85-72.26,3.27-108.53,3.47Z"/><path class="g" d="M175.96,1622.92c19.82-2.23,39.69-4.01,59.7-5.02,35.52-1.79,70.99-4.37,106.39-7.17,64.34-5.08,128.53-11.12,192.84-16.39-42.33-.96-84.61-2.95-126.85-5.18-47.09-2.49-94.16-5.29-141.26-7.68-47.02-2.39-94.09-4.42-141.22-5.28C83.71,1575.44,41.78,1575.59,0,1577.6v67.65c10.83-1.21,21.64-2.49,32.42-3.83,47.9-5.93,95.52-13.1,143.54-18.5Z"/><path class="o" d="M556.17,1529.62c203.69-18.76,408.94-29.3,614.25-29.81,203.19-.51,404.69,18.99,606.9,30.88,206.8,12.16,413.76,6.88,620.99,7.59,171.41.59,342.8,2.82,514.14,6.61,27.52-.76,55.03-1.53,82.55-2.26,114.36-3.02,228.51-4.17,342.93-2.94,112.09,1.21,224.19.69,336.28.15,110.76-.54,221.52.12,332.21-3.19,10.4-.31,20.81-.63,31.22-.94v-56.05c-37.74,1.84-75.48,3.57-113.19,4.56-164.45,4.32-329.03-5.65-493.55-1.99-74.68,1.66-149.18,5.93-223.89,7.31-74.7,1.38-149.43,1.39-224.14.78-149.39-1.23-298.72-5.02-448.12-5.54-146.35-.51-292.2.92-438.51-3.35-148.84-4.34-297.67-10.37-446.68-9.9-148.91.47-297.11,11.49-446.06,12.02-148.99.53-297.9-3.86-446.86-4.95-73.81-.54-147.49,1.04-221.28,1.42-72.27.37-144.48-2.39-216.63-5C212.55,1471.18,105.75,1467.81,0,1474.81v45.86c185.14,12.09,370.74,26.02,556.17,8.95Z"/><path class="g" d="M3794.43,1587c-81.09-2.05-162.99-2.23-242.82,9.7,4.14.9,8.29,1.78,12.47,2.59,51.24,9.93,104.47,13.04,157.27,14.11,53.24,1.08,106.49-.08,159.74.29,52.24.37,104.43,3.02,156.56,5.57v-32.96c-39.72,1.28-79.42,2.92-119.18,3.22-41.37.32-82.7-1.48-124.03-2.53Z"/><path class="e" d="M1846.07,1577.72c52.31,4.32,104.86,7.01,157.47,8.34,106.72,2.71,213.55-.1,320.07-5.21,15.53-.75,31.05-1.55,46.57-2.39-75.46-4.37-150.95-8.51-226.67-8.99-99.3-.63-198.21,7.11-297.43,8.25Z"/><path class="g" d="M1066.67,1586.19c-53.47,2.49-106.84,6.06-160.36,7.95-21.14.75-42.33,1.21-63.51,1.23,28.72,1.16,57.47,1.82,86.24,2.04,104.51.8,208.87-4.06,313.07-9.41,8.99-.46,17.97-.93,26.96-1.39-14-.78-28.01-1.45-42.04-1.96-53.51-1.96-106.92-.96-160.37,1.54Z"/><path class="g" d="M2983.37,1623.64c-33.82-.28-67.66-.12-101.46.8-34.42.94-68.79,2.41-103.23,3.17-134.99,2.96-270.06,1.47-405.07,3.54,3.99.65,7.98,1.29,11.98,1.89,63.66,9.66,128.67,13.82,193.55,15.5,65.41,1.7,130.88.78,196.28-.54,67.2-1.36,134.44-2.25,201.56-5.15,71.74-3.1,143.32-7.91,214.79-13.37,4.75-.36,9.5-.75,14.24-1.12-4.9-.09-9.79-.18-14.69-.28-69.32-1.47-138.61-3.87-207.96-4.44Z"/><path class="u" d="M3771.5,568.73c-3.86-19.95-9.67-43.86-28.96-54.44-9.59-5.26-20.39-5.89-31.01-4.28-.66,0-1.31,0-1.97,0-5.01.02-10.01.52-14.95,1.31-4.97.79-9.85,1.97-14.76,3.06-4.45.98-8.94,1.81-13.35,2.96-2.83.74-5.59,1.64-8.25,2.75-28.58,6.86-56.08,20.75-79.05,36.78-17.2,12.01-31.99,26.03-44.79,42.67-13.55,17.62-25.57,37.38-32.14,58.79-6.14,20-6.43,42.28,8.24,58.28-18.49-1.64-37.12,1.7-53.51,10.7-16.72,9.17-30.21,23.37-39.79,39.82-5.14,8.82-9.96,18.72-12.26,28.72-2.29,9.99-1.61,20.53-1.25,30.68.34,9.57,1.53,20.52-1.9,29.69-.14.37-.3.74-.45,1.11-23.8-5.21-48.59-5.59-72.66-1.93-29.04,4.42-57.4,13.78-83.92,26.4-26.2,12.47-50.22,28.58-73.14,46.36-22.45,17.41-43.72,36.7-61.32,59.15-8.57,10.93-16.16,22.64-23.05,34.71-6.73,11.79-12.86,24.59-14.88,38.16-4.35-2.17-9.09-3.56-13.83-4.55-12.64-2.64-26-2.19-38.46,1.21-19.82,5.41-39.06,17.26-51.21,34.12-1.69,2.34-3.23,4.81-4.59,7.37-.89-.29-1.77-.59-2.64-.79-3.01-.72-6.08-1.2-9.16-1.47-5.83-.49-11.63.16-17.39,1.05-10.59,1.65-21.1,4.52-30.8,9.15-9.38,4.48-18.42,10.75-24.56,19.3-5.54,7.72-8.72,17.83-6.09,27.25,2.66,9.53,10.79,15.98,19.51,19.73,9.1,3.92,19.18,5.27,29.01,5.72,18.45.83,37.14-.95,54.88-6.22,9.29-2.76,18.38-6.36,26.84-11.13,6.28-3.55,12.44-7.81,17.57-13.01,7.99,14.61,29.75,18.79,46.21,19.17,30.8.72,59.6-10.81,83.9-29.6,16.48-12.74,30.58-28.69,40.42-47.15,11.75,17.04,31.58,25.87,51.08,30.61,23.8,5.79,48.72,6.55,73.09,5.65,55.52-2.06,112.04-11.61,163.36-33.47,18.12-7.72,35.8-16.95,52.09-28.09,15.21-10.4,27.16-25.52,43.36-34.47,9.25,20.71,27.31,33.65,49.49,37.39,22.02,3.71,45.58-.14,66.38-7.85,44.71-16.57,65.2-62.59,76.32-105.91,6.1-23.75,10.45-48.1,14.26-72.31,5.46-34.74,8.33-69.87,9.02-105.03,1.38-69.79-5.66-139.67-18.91-208.14Z"/><path class="n" d="M3770.47,930.38c-8.71,42.61-22.07,91.7-59.89,117.6-18.83,12.89-43.28,18.83-65.86,19.38-21.78.53-44.57-5.44-58.86-23.03-3.82-4.7-6.83-9.97-9.23-15.53-.21-.5-.78-.65-1.27-.39-13.7,7.31-24.41,19.14-36.32,28.89-13.44,11-29.06,19.58-44.61,27.15-31.73,15.46-65.82,25.72-100.49,31.9-22.03,3.93-44.41,6.53-66.74,7.86-24.11,1.44-48.66,1.39-72.51-2.87-23.2-4.14-48.27-12.82-61.75-33.6-.43-.66-1.56-.14-1.83.4-16.88,32.82-47.58,58.68-82.13,70.93-21.1,7.49-47.58,9.47-68.79,1.36-6.68-2.56-12.21-6.54-15.71-11.85-.38-.33-.78-.65-1.15-1-1.69-1.62-2.77-3.73-4.18-5.58.36,1.45.81,2.85,1.39,4.14-10.17,10.46-23.86,17.31-37.48,22.02-16.99,5.87-34.66,8.16-52.57,8.21-9.58.03-19.3-.62-28.58-3.17-8.94-2.46-18.15-7.02-23.28-15.13-5.23-8.27-4.37-18.62.02-27.05,4.72-9.07,13.03-15.87,21.83-20.73,9.26-5.11,19.45-8.35,29.8-10.34,5.19-1,10.54-1.86,15.83-2.02,5.89-.18,11.65.86,17.41,1.96-1.07,2.17-1.95,4.43-2.74,6.72,1.72-3.21,3.97-6.07,6.09-9.02.6-1.09,1.22-2.16,1.89-3.21,5.52-8.52,12.96-15.68,21.24-21.47,18.44-12.91,41.18-19.52,63.6-16.18,6.28.94,12.81,2.54,18.51,5.5-.18,1.57-.3,3.14-.36,4.72.51-2.55,1.2-5.05,2.23-7.45,2.01-10.12,6.13-19.88,10.88-28.93,6.41-12.23,13.85-24.09,21.98-35.24,16.48-22.59,36.81-42.07,58.51-59.53,22.16-17.84,45.5-34.37,70.82-47.37,25.57-13.13,52.85-23.07,81.04-28.69,24.36-4.86,49.2-5.74,73.57-1.76,5.26.08,10.52.27,15.77.62-1.18-.3-2.36-.63-3.54-.9.9-2.22,1.51-4.53,1.88-6.58,3.65-20.02-3.42-40.99,3.41-60.62,13.65-39.27,46.25-71.26,89.2-72.62,5.05-.16,10.08.11,15.1.69.76.09,1.6-.95.97-1.56-31.69-31.06-2.4-83.08,18.23-111.58,27.67-38.21,68.41-65.79,113.12-80,4.4-1.4,8.87-2.64,13.37-3.73,2.6-.89,5.31-1.49,7.95-2.05,4.92-1.05,9.78-2.26,14.66-3.37-1.47.14-2.93.27-4.4.45.62-.13,1.24-.25,1.86-.38,7.72-1.62,15.34-3.4,23.16-4.18-1.17.32-2.32.68-3.48,1.03,3.84-.44,7.67-.77,11.52-.95,1.14-.19,2.27-.37,3.41-.51,1.04,0,2.08.01,3.11.01,2.75,0,5.66.2,8.38-.25,2.54.21,5.08.58,7.58,1.21,19.68,4.96,29.33,24.14,34.11,42.42,3.94,15.06,6.25,30.69,8.76,46.04,2.67,16.28,4.97,32.62,6.88,49,3.92,33.69,6.19,67.58,6.52,101.51.59,60.21-5.79,119.78-17.84,178.72Z"/><path class="l" d="M3512.59,718.55c-5.01-.58-10.05-.85-15.1-.69-17.85.57-33.89,6.43-47.55,15.9,11.21-3.54,23.12-5.1,34.71-2.91,6.93,1.31,14.03,4.04,19.63,8.43,5.3,4.15,7.34,10.03,6.2,16.62-1.2,6.92-4.76,13.29-7.54,19.66-2.32,5.3-4.59,11.2-4.21,17.07,1.63-4.12,3.33-8.2,5.25-12.19,4.67-9.68,10.49-19.38,18.76-26.39,8.19-6.94,18.23-9.96,28.81-7.86.67.13,1.08,1.09.67,1.66-7.43,10.42-11.9,22.92-11.88,35.81.02,12.34,4.41,24.07,12.18,33.5.58-11.43.03-22.86.23-34.29.18-10.21,1.16-20.47,4.33-30.22,3.49-10.72,9.47-20.17,16.79-28.65,12.59-14.58,28.77-24.58,46.75-30.89-9.09-3.95-18.77-4.5-28.5-2.21-9.88,2.32-19.16,6.63-28.64,10.18-.52.19-1.3-.22-1.38-.79-1.5-10.43,1.42-20.97,5.3-30.57,4-9.89,9.23-19.23,14.76-28.33,10.88-17.9,23.41-34.28,38.59-48.73,15.12-14.4,32.18-27.06,50.65-36.77,26.19-13.77,55.94-22.64,85.71-23.25-5.67-9.46-13.68-17.09-25.07-19.96-2.5-.63-5.03-1-7.58-1.21-2.72.45-5.63.25-8.38.25-1.04,0-2.07,0-3.11-.01-1.14.13-2.28.32-3.41.51-3.84.17-7.68.51-11.52.95,1.16-.35,2.3-.71,3.48-1.03-7.81.78-15.44,2.56-23.16,4.18-.62.13-1.24.26-1.86.38,1.46-.18,2.93-.31,4.4-.45-4.88,1.12-9.74,2.33-14.66,3.37-2.64.56-5.35,1.16-7.95,2.05-4.51,1.09-8.97,2.33-13.37,3.73-44.71,14.21-85.45,41.79-113.12,80-20.63,28.5-49.92,80.51-18.23,111.58.62.61-.21,1.65-.97,1.56Z"/><path class="l" d="M3724.63,1000.24c-16.72,2.23-43.16-1.78-48.46-20.86-5.03,9.1-11.95,17.2-20.71,22.83-16.73,10.77-39.64,10.38-55.31-2.34-11.91-9.67-15.65-24.76-16.36-39.58-5.76,19.44-19.88,36.09-35.29,48.63-17.26,14.05-38.3,24.83-60.52,27.65-9.92,1.26-20.22.77-29.74-2.47-9.51-3.23-17.88-9.17-24.13-17.06-3.58-4.52-6.59-9.57-8.8-14.9-3.5-8.46-4.59-17.73-4.18-26.84.65-14.39,4.87-28.24,9.36-41.82,1.59-4.82,3.33-10.59,6.98-14.28,3.45-3.5,8.92-2.22,12.92-.45,10.47,4.64,19.61,15.7,31.5,16.52-4.44-3.93-9.11-7.59-13.49-11.59-4.49-4.09-8.61-8.64-11.69-13.91-3.64-6.25-5.67-13.36-6.69-20.5-1.91-13.48,0-27.11,3.42-40.2-9.04,10.61-15.03,24.53-14.47,38.56.04,1.08-1.22,1.35-1.92.8-9.13-7.14-16.7-16.14-22.24-26.34-3.94-7.26-6.85-15.02-8.82-23.02-.07,4.04-.36,8.06-1.09,12.05-.37,2.06-.98,4.37-1.88,6.58,1.19.27,2.36.61,3.54.9-5.25-.35-10.51-.55-15.77-.62-24.37-3.99-49.21-3.1-73.57,1.76-13.62,2.71-27.01,6.46-40.12,11.06,9.65-1.39,19.4-2.09,29.16-1.83,15.22.4,30.45,2.98,44.5,9.05,12.16,5.25,23.21,13.27,30.95,24.17,7.44,10.48,11.44,23.3,11.74,36.15.28,12-2.37,24.03-6.9,35.09-4.63,11.29-11.25,21.82-19.76,30.56-8.1,8.33-18.07,15.08-29.29,18.27-10.16,2.89-20.81,2.52-30.77-.66,1.83,1.86,3.76,3.61,5.79,5.25,6.5,5.26,13.95,9.66,21.88,12.34,7.08,2.4,15.21,3.61,22.31.58.78-.33,2.06.24,1.65,1.28-.65,1.63-1.36,3.23-2.15,4.79-6.61,13.01-18.31,22.67-31.17,29.05-14,6.94-29.59,10.5-45.13,11.31-15.12.79-30.73-.97-44.91-6.5-6.31-2.46-12.62-5.66-17.82-10.07-6.95-5.9-14.1-12.81-18.12-21.15-1.7-3.52-2.79-7.45-1.92-11.35.86-3.8,4.08-6.5,6.75-9.09,1.58-1.53,3.2-3.07,4.57-4.8,1.57-2,2.32-4.4,3.07-6.8,1.59-5.08,2.56-10.32,3.19-15.6-3.63,4.41-7.34,8.75-11.33,12.84-7.06,7.24-15.36,14.13-25.34,16.65-10.16,2.56-20.27-.24-29.22-5.16,2.11,6.06,5.14,11.89,9.61,16.52,5.27,5.46,12.2,8.38,19.76,8.43.73,0,1.28.72,1.08,1.43-.72,2.56-1.62,5.05-2.67,7.49-4.67,10.87-12.21,20.53-20.88,28.47-8.67,7.94-18.9,14.58-30.17,18.07-13.87,4.3-33.04,3.73-42.96-8.56-8.33-10.32-8.39-25.04-6.8-37.57.67-5.24,1.68-10.43,2.92-15.57-2.01,5.07-3.66,10.29-4.72,15.62-1.02,2.4-1.72,4.9-2.23,7.45.06-1.58.18-3.15.36-4.72-2.29-1.19-4.72-2.11-7.21-2.9,2.3,5.88,2.94,12.41,2.43,18.68-.73,9-3.57,17.87-7.97,25.74-3.59,6.41-8.55,13.01-15.25,16.36-5.87,2.93-12.15,2.06-16.72-2.78-.4-.43-.46-1.18,0-1.6,7.67-7.1,14.34-19,11.59-29.75-.01.01-.02.03-.03.04-5.16,6.97-11.08,13.39-17.23,19.48-7.75,7.67-16.03,14.85-24.87,21.22-8.45,6.09-17.56,11.59-27.43,15-8.03,2.78-17.14,4.19-25.33,1.21-7.09-2.58-12.15-8.02-15.73-14.41,1.02,8.58,3.43,17.04,10.85,22.31.82.58.66,1.71-.27,2.07-7.11,2.74-15.26,2.93-22.73,1.98-7.19-.91-14.52-3.01-20.55-7.17-5.82-4.02-10.42-10.41-10.44-17.75-.01-4.27,1.56-8.2,3.82-11.74-4.19,3.64-7.83,7.87-10.4,12.8-4.39,8.43-5.25,18.78-.02,27.05,5.13,8.1,14.34,12.67,23.28,15.13,9.28,2.56,19,3.2,28.58,3.17,17.91-.05,35.58-2.34,52.57-8.21,13.63-4.71,27.32-11.55,37.48-22.02-.58-1.3-1.02-2.69-1.39-4.14,1.4,1.85,2.49,3.96,4.18,5.58.37.35.76.67,1.15,1,3.51,5.31,9.03,9.3,15.71,11.85,21.21,8.12,47.69,6.13,68.79-1.36,34.55-12.26,65.25-38.11,82.13-70.93.28-.54,1.4-1.06,1.83-.4,13.48,20.78,38.55,29.45,61.75,33.6,23.85,4.26,48.39,4.31,72.51,2.87,22.33-1.33,44.71-3.93,66.74-7.86,34.67-6.18,68.76-16.44,100.49-31.9,15.55-7.57,31.17-16.16,44.61-27.15,11.91-9.75,22.62-21.58,36.32-28.89.49-.26,1.05-.11,1.27.39,2.4,5.57,5.41,10.83,9.23,15.53,14.29,17.59,37.08,23.56,58.86,23.03,22.59-.55,47.03-6.49,65.86-19.38,20.62-14.12,33.95-35.13,43.24-58.23-8.97,5.28-18.71,9.1-29.2,10.5Z"/><path class="s" d="M3456.25,582.76c-.57-10.29-4.59-20.25-11.67-27.76-7.36-7.82-17.35-12.46-27.92-13.79-10.31-1.29-20.87.67-30.58,4.17-9.31,3.35-18.9,8.64-24.78,16.9.73-6.5-.61-13.07-5.78-17.71-7.17-6.44-17.9-6.09-26.6-3.71-10.21,2.79-19.68,7.96-27.13,15.56-7,7.13-11.96,16.05-15.19,25.48-1.12,3.28-2.01,6.61-2.73,9.95-3.88-1.68-8.51-1.58-12.88-.59-8.38,1.91-16.23,6.54-23.23,11.4-6.25,4.34-11.97,9.21-16.78,15.13-7.21,8.89-13.2,19.12-16.51,30.14-3.36,11.18-3.51,23.43,2.79,33.45-9.17-1.48-18.36,4.09-24.99,9.99-8.3,7.41-15.39,17.61-17.93,28.6-1.07,4.63-1.23,9.48.43,13.94-11.74,1.67-23.15,4.64-33.48,10.69-7.31,4.28-13.79,9.87-19.77,15.85-6.3,6.3-12.4,13.34-16.28,21.44-3.11,6.48-4.66,14.34.21,20.39,8.35,10.37,22.99,8.42,34.15,4.68,15.58-5.22,29.98-14.67,42.67-25,6.07-4.94,11.9-10.24,17.22-16,3.93-4.26,7.87-8.85,10.52-14.05.23-.45.41-.93.62-1.4,17.83,16.43,45.81,7.48,65.36-.89,9.03-3.87,17.54-8.52,25.58-14.2,9.1-6.43,17.78-13.92,24.42-22.96,5.87-8,10.11-17.98,7.78-27.85,7.49,4.02,15.85,5.97,24.38,5.52,9.58-.51,18.84-3.7,27.28-8.16,19.16-10.12,35.09-26.26,47.89-43.59,5.99-8.1,11.38-16.7,15.75-25.8,4.49-9.37,7.75-19.28,7.17-29.82Z"/><path class="n" d="M3435.43,632.32c-11.69,17.12-26.38,32.99-43.92,44.14-15.56,9.89-34.82,15.86-52.57,8.26-2.17-.93-4.26-2.06-6.27-3.3-.69-.43-2.17.4-1.84,1.29,3.42,9.24.34,18.72-4.84,26.62-5.91,9.01-14.16,16.43-22.74,22.8-7.41,5.51-15.3,10.29-23.7,14.09-10.46,4.73-21.36,8.9-32.72,10.78-12.66,2.1-26.2.8-35.76-8.63-.47-.46-1.32.23-1.48.67-1.7,4.67-5.05,8.79-8.24,12.51-4.64,5.4-9.8,10.34-15.19,14.96-12.07,10.36-25.48,19.72-40.12,26.01-10.41,4.47-25.12,9.08-35.25,1.48-14.16-10.62-.33-28.72,8.14-38.07,4.84-5.35,10.14-10.4,15.89-14.76,9.65-7.32,20.65-11.67,32.44-14.04,2.99-.6,5.99-1.09,9.01-1.53.73-.11,1.39-.94,1.04-1.65-4.22-8.58-.15-19.34,4.26-26.97,5.18-8.98,12.88-17.46,22.34-21.91,4.62-2.17,9.82-3.23,14.81-1.75.57.17,1.63-.6,1.17-1.23-13.56-18.66-2.46-43.93,9.58-60.25,4.53-6.14,9.7-11.28,15.78-15.86,6.6-4.97,13.81-9.47,21.61-12.25,5.37-1.92,11.71-3.03,16.76-.7-.6,2.96-1.03,5.95-1.39,8.96,1.14-5.24,2.76-10.36,4.96-15.21,2.52-9.04,6.45-17.79,12.33-25.13,6.15-7.67,14.2-13.43,23.34-16.93,8.64-3.32,19.37-5.55,27.9-.69,9.25,5.27,9.92,16.24,6.82,25.46-.46,1.41,1.73,1.1,2.09.04,3.14-9.66,12.2-15.97,20.99-20.02,8.91-4.1,18.95-6.73,28.8-6.72,10.59,0,21.11,3.26,29.37,10.03,7.72,6.32,12.89,15.37,14.64,25.21,3.49,19.62-7.39,38.7-18.04,54.3Z"/><path class="l" d="M3453.47,578.03c-1.75-9.84-6.92-18.88-14.64-25.21-8.26-6.77-18.78-10.03-29.37-10.03-9.84,0-19.88,2.62-28.8,6.72-3.96,1.82-7.97,4.11-11.48,6.96,7.18-2.21,14.9-2.84,22.34-2.25,8.66.68,17.53,2.94,24.96,7.6,6.41,4.03,11.14,10.11,13.46,17.35,2.28,7.1,2.26,14.77,1.05,22.07-2.45,14.74-9.99,28.04-19.46,39.36-5.25,6.28-11.17,12.08-17.88,16.78-6.02,4.22-12.97,7.69-20.39,8.21-4.77.34-15.39-.78-13.43-8,.79-2.9,3.09-5.37,5.2-7.39.52-.5,1.08-.95,1.62-1.42-5.35,1.82-10.74,3.55-16.34,4.38-6.38.95-13.01.61-18.74-2.63-6.5-3.67-11.6-10.69-13-18.06-2.18-11.46,3.84-22.28,11.6-30.8-2.03,1.54-4.02,3.16-5.93,4.86-4.58,4.08-8.8,8.74-13.81,12.3-3.41,2.42-7.66,4.14-11.68,2.12-4.08-2.05-6.88-6.86-8.21-11.1-2.85-9.05-.46-19.22,2.83-27.8,3.61-9.39,8.82-18.16,15.21-25.9,2.47-2.99,5.14-5.78,7.89-8.5-6.51,3.47-12.29,8.19-16.96,14.01-5.88,7.34-9.81,16.1-12.33,25.13-2.2,4.85-3.82,9.97-4.96,15.21.35-3,.79-5.99,1.39-8.96-5.04-2.33-11.38-1.22-16.76.7-2.58.92-5.08,2.04-7.53,3.29.33.09.66.15.98.26,11.01,3.74,17.31,15.86,19.91,26.52,2.17,8.88,2.46,19.34-1.4,27.88,4.55-3.21,9.84-5.42,15.38-5.51,6.96-.11,13.47,3.84,16.79,10,2.32,4.31,3.03,9.68,3.53,14.48.61,5.93.63,12.15-.83,17.97-1.13,4.51-3.53,9.34-8.37,10.59-.63.16-1.16-.21-1.38-.79-1.27-3.38-1.04-7.19-.8-10.73.09-1.38.21-2.76.32-4.15-3.08,8.27-7.71,16.08-12.96,22.99-6.36,8.38-14.28,16.25-24.12,20.32-9.51,3.93-20.31,2.83-28.45-3.69-9.14-7.31-10.81-19.74-9.12-30.69,1.02-6.6,3.36-12.85,6.7-18.61,2.83-4.88,6.23-9.39,9.52-13.96-3.5,1.96-6.34,4.82-8.95,8-3.2,3.91-6.18,7.97-10.33,10.92-.39.28-1.05.16-1.36-.18-3.5-3.85-4.71-9.3-5.28-14.33-1.2-10.51.51-21.62,4.39-31.41.98-2.48,2.1-4.88,3.3-7.25-10.89,16.26-19.46,39.17-6.91,56.44.46.63-.6,1.4-1.17,1.23-4.99-1.48-10.19-.42-14.81,1.75-1.52.71-2.97,1.56-4.39,2.47,5.94.48,11.03,3.63,13.74,9.16,3.77,7.68,3.55,16.93,1.48,25.05-2.05,8.05-6.63,18.26-15.74,19.86-.81.14-1.64-.5-1.38-1.39,1.48-5.08,1.84-10.26,1.1-15.35-.44,3-1.26,5.94-2.53,8.74-7.13,15.65-25.6,21.66-41.82,21.67,5.14,2.65,10.94,3.39,16.8,2.54.87-.13,1.89.75,1.27,1.66-5.92,8.76-13.59,16.54-22.19,22.64-7.39,5.24-16.52,9.83-25.82,9.06-6.4-.53-13.07-3.86-13.14-11.11-.02-2.09.42-4.14,1.12-6.13-6.94,9.59-12.37,22-1.6,30.07,10.13,7.6,24.84,2.99,35.25-1.48,14.64-6.29,28.05-15.65,40.12-26.01,5.39-4.62,10.56-9.57,15.19-14.96,3.19-3.72,6.54-7.84,8.24-12.51.16-.44,1.01-1.13,1.48-.67,9.56,9.44,23.1,10.73,35.76,8.63,11.36-1.88,22.27-6.05,32.72-10.78,8.4-3.8,16.29-8.59,23.7-14.09,8.57-6.37,16.83-13.8,22.74-22.8,5.19-7.9,8.26-17.38,4.84-26.62-.33-.9,1.14-1.73,1.84-1.29,2.01,1.25,4.09,2.37,6.27,3.3,17.75,7.6,37.02,1.62,52.57-8.26,17.54-11.15,32.23-27.02,43.92-44.14,10.65-15.6,21.53-34.67,18.04-54.3Z"/><path class="l" d="M3373.06,675.82c-4.14.79-8.34,1.47-12.57,1.91-12.87,2.34-27.04,2.36-37.31-5.2.05,13.08-3.39,26.01-10.77,36.86-7.7,11.33-18.84,19.81-30.9,26.01-8.28,4.26-17.09,7.63-26.02,10.22-10.1,2.93-21.03,5.12-31.55,3.57-4.45-.66-8.85-2.14-12.45-4.92-1.94-1.5-3.53-3.33-4.8-5.36-4.74,9.42-10.4,18.34-17.42,26.21-6.72,7.54-14.54,14.02-22.82,19.74-9.23,6.38-19.07,12.14-29.71,15.77-8.67,2.95-19.43,5.23-28.19,1.37.66.7,1.38,1.38,2.24,2.02,10.13,7.6,24.84,2.99,35.25-1.48,14.64-6.29,28.05-15.65,40.12-26.01,5.39-4.62,10.56-9.57,15.19-14.96,3.19-3.72,6.54-7.84,8.24-12.51.16-.44,1.01-1.13,1.48-.67,9.56,9.44,23.1,10.73,35.76,8.63,11.36-1.88,22.27-6.05,32.72-10.78,8.4-3.8,16.29-8.59,23.7-14.09,8.57-6.37,16.83-13.8,22.74-22.8,5.19-7.9,8.26-17.38,4.84-26.62-.33-.9,1.14-1.73,1.84-1.29,2.01,1.25,4.09,2.37,6.27,3.3,17.75,7.6,37.02,1.62,52.57-8.26,5.37-3.41,10.43-7.31,15.26-11.5-10.67,5.09-22.03,8.63-33.72,10.86Z"/><path class="s" d="M3623.38,345.2c-1.42-4.69-4.41-8.84-8.53-11.51-4.29-2.77-9.43-3.78-14.46-3.19-4.91.58-9.58,2.69-13.67,5.42-3.93,2.61-7.77,6.15-9.55,10.64-.39-3.09-1.76-5.97-4.67-7.53-4.04-2.16-8.96-.77-12.72,1.32-4.41,2.45-8.2,5.93-10.79,10.29-2.43,4.1-3.72,8.78-4.15,13.51-.15,1.65-.18,3.28-.14,4.91-1.99-.33-4.11.24-6.02,1.2-3.66,1.84-6.77,4.88-9.45,7.93-2.4,2.72-4.5,5.62-6.05,8.91-2.33,4.93-3.95,10.35-4.23,15.82-.29,5.55,1.02,11.24,5.07,15.15-4.41.36-8.03,3.98-10.42,7.47-3,4.37-5.13,9.9-5.06,15.27.03,2.26.5,4.53,1.77,6.4-5.24,2.11-10.18,4.79-14.27,8.77-2.9,2.81-5.26,6.14-7.35,9.58-2.2,3.63-4.23,7.58-5.11,11.77-.71,3.35-.54,7.16,2.4,9.4,5.03,3.84,11.58,1.27,16.32-1.74,6.61-4.19,12.21-10.21,16.91-16.43,2.25-2.98,4.35-6.09,6.16-9.36,1.34-2.42,2.64-4.99,3.28-7.7.06-.24.09-.48.13-.72,10.1,5.56,22.03-1.77,30.12-7.87,3.74-2.82,7.15-5.94,10.22-9.49,3.48-4.01,6.65-8.47,8.7-13.4,1.81-4.37,2.65-9.47.45-13.76,3.91,1,8,.95,11.9-.23,4.37-1.33,8.29-3.86,11.69-6.88,7.72-6.87,13.26-16.15,17.23-25.62,1.85-4.43,3.38-9.02,4.37-13.73,1.02-4.84,1.41-9.8-.05-14.6Z"/><path class="n" d="M3619.35,370.49c-3.47,9.25-8.47,18.26-15.33,25.42-6.08,6.35-14.31,11.31-23.38,9.82-1.11-.18-2.2-.46-3.27-.81-.37-.12-.96.43-.7.81,2.63,3.88,2.27,8.61.76,12.86-1.72,4.84-4.69,9.21-7.94,13.14-2.8,3.39-5.91,6.51-9.37,9.22-4.3,3.38-8.87,6.55-13.91,8.72-5.62,2.42-12.02,3.36-17.51.09-.27-.16-.58.26-.61.48-.26,2.35-1.34,4.64-2.4,6.72-1.53,3.02-3.37,5.9-5.34,8.65-4.41,6.17-9.56,12.03-15.62,16.61-4.31,3.25-10.59,7.07-16.13,4.71-7.75-3.29-3.4-13.24-.53-18.53,1.64-3.03,3.51-5.97,5.68-8.64,3.64-4.48,8.23-7.75,13.41-10.2,1.31-.62,2.65-1.19,3.99-1.73.33-.13.54-.6.29-.88-2.92-3.48-2.25-8.92-1.07-12.95,1.38-4.74,3.98-9.54,7.86-12.68,1.89-1.53,4.18-2.62,6.65-2.5.28.01.69-.46.4-.7-8.38-7.08-6.09-20.03-2.37-28.95,1.4-3.36,3.21-6.32,5.51-9.13,2.49-3.05,5.32-5.95,8.61-8.13,2.27-1.5,5.07-2.74,7.67-2.24.06,1.44.19,2.87.37,4.3-.06-2.55.11-5.1.58-7.6.15-4.47.98-8.96,2.87-13.03,1.98-4.25,5.05-7.83,8.88-10.49,3.62-2.52,8.33-4.78,12.82-3.5,4.87,1.38,6.42,6.37,6.03,10.99-.05.71.92.31.97-.22.36-4.82,3.84-8.78,7.45-11.65,3.66-2.91,8.01-5.27,12.56-6.4,4.9-1.21,10.13-.9,14.71,1.29,4.28,2.04,7.69,5.64,9.61,9.98,3.83,8.68.95,18.74-2.21,27.16Z"/><path class="l" d="M3621.56,343.33c-1.92-4.35-5.33-7.94-9.61-9.98-4.59-2.19-9.82-2.49-14.71-1.29-4.55,1.12-8.9,3.48-12.56,6.4-1.63,1.3-3.22,2.81-4.52,4.53,3.07-1.84,6.57-3.01,10.07-3.59,4.08-.67,8.44-.64,12.4.67,3.42,1.13,6.29,3.41,8.18,6.49,1.86,3.02,2.71,6.57,2.98,10.09.53,7.1-1.46,14.1-4.56,20.42-1.72,3.5-3.8,6.86-6.37,9.8-2.31,2.64-5.13,5.03-8.5,6.13-2.17.7-7.2,1.4-7.11-2.17.04-1.43.83-2.83,1.57-4.01.18-.29.39-.56.59-.84-2.27,1.45-4.57,2.87-7.06,3.89-2.84,1.17-5.95,1.77-8.96.92-3.42-.96-6.57-3.62-8.05-6.87-2.3-5.05-.74-10.74,1.89-15.57-.77.94-1.5,1.92-2.2,2.92-1.66,2.41-3.08,5.05-5,7.26-1.3,1.51-3.07,2.79-5.16,2.31-2.12-.48-3.95-2.39-5.05-4.19-2.34-3.86-2.38-8.83-1.83-13.18.61-4.76,2.03-9.41,4.11-13.71.8-1.66,1.72-3.26,2.69-4.83-2.62,2.35-4.76,5.19-6.26,8.41-1.89,4.07-2.72,8.56-2.87,13.03-.47,2.49-.64,5.05-.58,7.6-.17-1.43-.31-2.86-.37-4.3-2.59-.5-5.4.74-7.67,2.24-1.09.72-2.12,1.52-3.11,2.38.16,0,.32,0,.48,0,5.51.47,9.79,5.36,12.2,9.99,2.01,3.86,3.32,8.66,2.5,13.05,1.74-2,3.94-3.63,6.49-4.3,3.21-.85,6.66.24,8.89,2.71,1.56,1.73,2.49,4.13,3.26,6.29.95,2.67,1.66,5.55,1.64,8.4-.01,2.21-.58,4.72-2.67,5.85-.28.15-.56.03-.73-.21-.97-1.42-1.29-3.21-1.58-4.87-.11-.65-.21-1.3-.32-1.95-.49,4.17-1.75,8.32-3.4,12.11-2,4.6-4.77,9.15-8.86,12.15-3.95,2.91-9.07,3.63-13.57,1.54-5.05-2.34-7.23-7.89-7.68-13.15-.27-3.17.1-6.32,1-9.37.76-2.58,1.82-5.05,2.82-7.54-1.4,1.31-2.39,2.95-3.23,4.72-1.04,2.17-1.96,4.39-3.54,6.23-.15.17-.47.2-.65.07-2.05-1.38-3.23-3.76-4.06-6.02-1.74-4.72-2.2-10.05-1.51-15.03.17-1.26.42-2.5.71-3.73-3.2,8.76-4.58,20.33,3.17,26.88.28.24-.12.71-.4.7-2.47-.12-4.76.97-6.65,2.5-.62.5-1.2,1.06-1.75,1.64,2.8-.46,5.51.42,7.39,2.67,2.61,3.12,3.55,7.42,3.51,11.41-.04,3.95-1,9.2-5.04,10.98-.36.16-.82-.04-.8-.49.11-2.52-.31-4.95-1.22-7.22.13,1.44.09,2.89-.18,4.33-1.53,8.05-9.39,12.94-16.89,14.79,2.68.64,5.44.32,8.05-.74.39-.16.96.13.78.62-1.75,4.73-4.42,9.2-7.71,13-2.83,3.27-6.53,6.43-10.92,7.13-3.02.48-6.48-.29-7.33-3.64-.25-.96-.27-1.96-.17-2.96-2.13,5.23-3.24,11.58,2.66,14.09,5.54,2.36,11.82-1.45,16.13-4.71,6.06-4.58,11.21-10.44,15.62-16.61,1.97-2.75,3.8-5.63,5.34-8.65,1.06-2.08,2.14-4.37,2.4-6.72.02-.22.34-.64.61-.48,5.49,3.27,11.89,2.33,17.51-.09,5.04-2.17,9.61-5.34,13.91-8.72,3.45-2.72,6.56-5.83,9.37-9.22,3.24-3.93,6.22-8.3,7.94-13.14,1.51-4.25,1.86-8.98-.76-12.86-.25-.38.33-.93.7-.81,1.07.35,2.16.63,3.27.81,9.06,1.49,17.3-3.47,23.38-9.82,6.85-7.16,11.85-16.17,15.33-25.42,3.16-8.43,6.04-18.49,2.21-27.16Z"/><path class="l" d="M3595.41,397.72c-1.83.84-3.69,1.63-5.6,2.31-5.69,2.55-12.24,4.18-17.84,1.86,1.5,6.04,1.37,12.41-.82,18.27-2.28,6.12-6.48,11.31-11.35,15.55-3.35,2.91-7.04,5.48-10.88,7.7-4.34,2.5-9.15,4.77-14.19,5.25-2.13.21-4.33.02-6.31-.85-1.07-.47-2.01-1.14-2.82-1.93-1.13,4.9-2.74,9.66-5.1,14.11-2.26,4.25-5.14,8.14-8.33,11.73-3.55,4-7.45,7.79-11.96,10.68-3.68,2.36-8.39,4.64-12.88,3.85.38.25.79.48,1.26.68,5.54,2.36,11.82-1.45,16.13-4.71,6.06-4.58,11.21-10.44,15.62-16.61,1.97-2.75,3.8-5.63,5.34-8.65,1.06-2.08,2.14-4.37,2.4-6.72.02-.22.34-.64.61-.48,5.49,3.27,11.89,2.33,17.51-.09,5.04-2.17,9.61-5.34,13.91-8.72,3.45-2.72,6.56-5.83,9.37-9.22,3.24-3.93,6.22-8.3,7.94-13.14,1.51-4.25,1.86-8.98-.76-12.86-.25-.38.33-.93.7-.81,1.07.35,2.16.63,3.27.81,9.06,1.49,17.3-3.47,23.38-9.82,2.1-2.19,4-4.57,5.76-7.06-4.36,3.57-9.21,6.5-14.36,8.87Z"/><path class="u" d="M247.23,776.88c.7,35.16,3.56,70.29,9.02,105.03,3.81,24.22,8.16,48.56,14.26,72.31,11.12,43.31,31.61,89.34,76.32,105.91,20.79,7.71,44.36,11.57,66.38,7.85,22.18-3.74,40.24-16.68,49.49-37.39,16.2,8.95,28.14,24.06,43.36,34.47,16.29,11.14,33.97,20.37,52.09,28.09,51.31,21.85,107.83,31.41,163.36,33.47,24.37.9,49.29.14,73.09-5.65,19.5-4.75,39.34-13.58,51.08-30.61,9.84,18.45,23.94,34.41,40.42,47.15,24.3,18.79,53.1,30.32,83.9,29.6,16.46-.39,38.23-4.57,46.21-19.17,5.13,5.2,11.28,9.46,17.57,13.01,8.46,4.78,17.54,8.38,26.84,11.13,17.74,5.26,36.43,7.05,54.88,6.22,9.82-.44,19.9-1.8,29.01-5.72,8.72-3.75,16.85-10.2,19.51-19.73,2.63-9.41-.55-19.53-6.09-27.25-6.14-8.55-15.18-14.82-24.56-19.3-9.7-4.63-20.21-7.51-30.8-9.15-5.76-.9-11.56-1.55-17.39-1.05-3.08.26-6.15.75-9.16,1.47-.86.21-1.75.51-2.64.79-1.36-2.56-2.9-5.03-4.59-7.37-12.15-16.86-31.39-28.72-51.21-34.12-12.46-3.4-25.82-3.85-38.46-1.21-4.73.99-9.48,2.38-13.83,4.55-2.02-13.58-8.14-26.37-14.87-38.16-6.89-12.07-14.48-23.78-23.05-34.71-17.6-22.44-38.87-41.73-61.32-59.15-22.91-17.77-46.93-33.89-73.14-46.36-26.52-12.62-54.88-21.98-83.92-26.4-24.07-3.67-48.86-3.28-72.66,1.93-.15-.37-.31-.74-.45-1.11-3.43-9.16-2.24-20.12-1.9-29.69.36-10.16,1.04-20.7-1.25-30.68-2.3-10-7.12-19.9-12.26-28.72-9.58-16.45-23.08-30.64-39.79-39.82-16.39-9-35.02-12.34-53.51-10.7,14.66-16,14.37-38.28,8.24-58.28-6.57-21.4-18.59-41.16-32.14-58.79-12.8-16.64-27.59-30.67-44.79-42.67-22.97-16.03-50.47-29.93-79.05-36.78-2.67-1.11-5.42-2.01-8.26-2.75-4.41-1.16-8.9-1.98-13.35-2.96-4.91-1.09-9.79-2.27-14.76-3.06-4.94-.78-9.94-1.28-14.95-1.31-.66,0-1.31,0-1.97,0-10.62-1.61-21.42-.98-31.01,4.28-19.29,10.58-25.1,34.49-28.97,54.44-13.25,68.47-20.29,138.36-18.91,208.14Z"/><path class="n" d="M249.32,751.66c.34-33.92,2.6-67.82,6.52-101.51,1.91-16.39,4.21-32.73,6.88-49,2.52-15.35,4.83-30.98,8.76-46.04,4.78-18.28,14.42-37.46,34.11-42.42,2.5-.63,5.03-1,7.58-1.21,2.72.45,5.63.25,8.38.25,1.04,0,2.07,0,3.11-.01,1.14.13,2.28.32,3.41.51,3.84.17,7.68.51,11.52.95-1.16-.35-2.3-.71-3.48-1.03,7.81.78,15.44,2.56,23.16,4.18.62.13,1.24.26,1.86.38-1.46-.18-2.93-.31-4.4-.45,4.88,1.12,9.74,2.33,14.66,3.37,2.64.56,5.35,1.16,7.95,2.05,4.51,1.09,8.97,2.33,13.37,3.73,44.71,14.21,85.45,41.79,113.12,80,20.63,28.5,49.92,80.51,18.24,111.58-.62.61.21,1.65.97,1.56,5.02-.58,10.05-.85,15.1-.69,42.95,1.36,75.55,33.36,89.2,72.62,6.82,19.62-.24,40.6,3.41,60.62.37,2.06.98,4.37,1.89,6.58-1.19.27-2.36.61-3.54.9,5.25-.35,10.51-.55,15.77-.62,24.37-3.99,49.21-3.1,73.57,1.76,28.19,5.62,55.47,15.56,81.04,28.69,25.32,13,48.66,29.53,70.82,47.37,21.7,17.46,42.02,36.94,58.51,59.53,8.13,11.15,15.57,23.01,21.98,35.24,4.74,9.05,8.87,18.81,10.88,28.93,1.03,2.4,1.72,4.9,2.23,7.45-.06-1.58-.18-3.15-.36-4.72,5.69-2.95,12.23-4.56,18.51-5.5,22.42-3.34,45.16,3.27,63.6,16.18,8.27,5.79,15.72,12.95,21.24,21.47.68,1.05,1.3,2.13,1.89,3.21,2.12,2.95,4.37,5.82,6.09,9.02-.78-2.29-1.66-4.54-2.74-6.72,5.76-1.1,11.52-2.14,17.41-1.96,5.29.16,10.64,1.02,15.83,2.02,10.35,1.99,20.54,5.23,29.8,10.34,8.8,4.86,17.11,11.65,21.83,20.73,4.39,8.43,5.25,18.78.02,27.05-5.13,8.1-14.34,12.67-23.28,15.13-9.28,2.56-19,3.2-28.58,3.17-17.91-.05-35.58-2.34-52.57-8.21-13.63-4.71-27.32-11.55-37.48-22.02.58-1.3,1.03-2.69,1.39-4.14-1.4,1.85-2.49,3.96-4.18,5.58-.37.35-.76.67-1.15,1-3.51,5.31-9.03,9.3-15.71,11.85-21.21,8.12-47.68,6.13-68.79-1.36-34.55-12.26-65.25-38.11-82.13-70.93-.28-.54-1.41-1.06-1.83-.4-13.48,20.78-38.55,29.45-61.75,33.6-23.85,4.26-48.39,4.31-72.51,2.87-22.33-1.33-44.71-3.93-66.74-7.86-34.67-6.18-68.76-16.44-100.48-31.9-15.55-7.57-31.17-16.16-44.61-27.15-11.91-9.75-22.62-21.58-36.32-28.89-.49-.26-1.06-.11-1.27.39-2.4,5.57-5.41,10.83-9.23,15.53-14.29,17.59-37.08,23.56-58.86,23.03-22.59-.55-47.04-6.49-65.86-19.38-37.82-25.9-51.17-74.99-59.89-117.6-12.05-58.94-18.44-118.51-17.84-178.72Z"/><path class="l" d="M525.04,718.55c5.02-.58,10.05-.85,15.1-.69,17.85.57,33.89,6.43,47.55,15.9-11.21-3.54-23.12-5.1-34.71-2.91-6.93,1.31-14.03,4.04-19.63,8.43-5.3,4.15-7.34,10.03-6.2,16.62,1.2,6.92,4.76,13.29,7.54,19.66,2.32,5.3,4.59,11.2,4.21,17.07-1.63-4.12-3.33-8.2-5.25-12.19-4.67-9.68-10.49-19.38-18.76-26.39-8.18-6.94-18.23-9.96-28.81-7.86-.67.13-1.08,1.09-.67,1.66,7.43,10.42,11.9,22.92,11.88,35.81-.02,12.34-4.41,24.07-12.18,33.5-.58-11.43-.03-22.86-.23-34.29-.18-10.21-1.16-20.47-4.33-30.22-3.49-10.72-9.47-20.17-16.79-28.65-12.59-14.58-28.77-24.58-46.75-30.89,9.09-3.95,18.77-4.5,28.51-2.21,9.88,2.32,19.16,6.63,28.64,10.18.52.19,1.3-.22,1.38-.79,1.5-10.43-1.42-20.97-5.3-30.57-4-9.89-9.23-19.23-14.76-28.33-10.88-17.9-23.41-34.28-38.59-48.73-15.12-14.4-32.18-27.06-50.65-36.77-26.19-13.77-55.94-22.64-85.71-23.25,5.67-9.46,13.68-17.09,25.07-19.96,2.5-.63,5.03-1,7.58-1.21,2.72.45,5.63.25,8.38.25,1.04,0,2.07,0,3.11-.01,1.14.13,2.28.32,3.41.51,3.84.17,7.68.51,11.52.95-1.16-.35-2.3-.71-3.48-1.03,7.81.78,15.44,2.56,23.16,4.18.62.13,1.24.26,1.86.38-1.46-.18-2.93-.31-4.4-.45,4.88,1.12,9.74,2.33,14.66,3.37,2.64.56,5.35,1.16,7.95,2.05,4.51,1.09,8.97,2.33,13.37,3.73,44.71,14.21,85.45,41.79,113.12,80,20.63,28.5,49.92,80.51,18.24,111.58-.62.61.21,1.65.97,1.56Z"/><path class="l" d="M313.01,1000.24c16.72,2.23,43.16-1.78,48.46-20.86,5.03,9.1,11.95,17.2,20.71,22.83,16.73,10.77,39.64,10.38,55.31-2.34,11.91-9.67,15.65-24.76,16.36-39.58,5.76,19.44,19.89,36.09,35.29,48.63,17.26,14.05,38.3,24.83,60.52,27.65,9.92,1.26,20.22.77,29.74-2.47,9.51-3.23,17.88-9.17,24.13-17.06,3.58-4.52,6.59-9.57,8.8-14.9,3.5-8.46,4.59-17.73,4.18-26.84-.65-14.39-4.87-28.24-9.36-41.82-1.59-4.82-3.33-10.59-6.98-14.28-3.45-3.5-8.92-2.22-12.92-.45-10.47,4.64-19.61,15.7-31.5,16.52,4.44-3.93,9.11-7.59,13.49-11.59,4.49-4.09,8.61-8.64,11.69-13.91,3.64-6.25,5.67-13.36,6.68-20.5,1.91-13.48,0-27.11-3.42-40.2,9.04,10.61,15.03,24.53,14.47,38.56-.04,1.08,1.22,1.35,1.92.8,9.13-7.14,16.7-16.14,22.24-26.34,3.94-7.26,6.85-15.02,8.82-23.02.07,4.04.36,8.06,1.09,12.05.37,2.06.98,4.37,1.89,6.58-1.19.27-2.36.61-3.54.9,5.25-.35,10.51-.55,15.77-.62,24.37-3.99,49.21-3.1,73.57,1.76,13.62,2.71,27.01,6.46,40.11,11.06-9.65-1.39-19.4-2.09-29.15-1.83-15.22.4-30.45,2.98-44.5,9.05-12.16,5.25-23.21,13.27-30.95,24.17-7.44,10.48-11.44,23.3-11.74,36.15-.28,12,2.37,24.03,6.9,35.09,4.63,11.29,11.25,21.82,19.75,30.56,8.1,8.33,18.07,15.08,29.29,18.27,10.16,2.89,20.81,2.52,30.78-.66-1.83,1.86-3.76,3.61-5.79,5.25-6.5,5.26-13.95,9.66-21.87,12.34-7.08,2.4-15.22,3.61-22.31.58-.78-.33-2.07.24-1.65,1.28.65,1.63,1.36,3.23,2.15,4.79,6.61,13.01,18.31,22.67,31.17,29.05,14,6.94,29.59,10.5,45.13,11.31,15.11.79,30.73-.97,44.91-6.5,6.31-2.46,12.62-5.66,17.82-10.07,6.95-5.9,14.1-12.81,18.12-21.15,1.7-3.52,2.79-7.45,1.91-11.35-.86-3.8-4.08-6.5-6.75-9.09-1.58-1.53-3.2-3.07-4.57-4.8-1.58-2-2.32-4.4-3.07-6.8-1.59-5.08-2.56-10.32-3.19-15.6,3.63,4.41,7.34,8.75,11.33,12.84,7.06,7.24,15.36,14.13,25.35,16.65,10.16,2.56,20.27-.24,29.22-5.16-2.11,6.06-5.14,11.89-9.61,16.52-5.27,5.46-12.2,8.38-19.76,8.43-.73,0-1.28.72-1.08,1.43.72,2.56,1.62,5.05,2.67,7.49,4.67,10.87,12.21,20.53,20.88,28.47,8.67,7.94,18.9,14.58,30.16,18.07,13.87,4.3,33.04,3.73,42.96-8.56,8.33-10.32,8.39-25.04,6.79-37.57-.67-5.24-1.68-10.43-2.92-15.57,2.01,5.07,3.66,10.29,4.72,15.62,1.03,2.4,1.72,4.9,2.23,7.45-.06-1.58-.18-3.15-.36-4.72,2.28-1.19,4.72-2.11,7.21-2.9-2.3,5.88-2.94,12.41-2.43,18.68.73,9,3.57,17.87,7.97,25.74,3.58,6.41,8.55,13.01,15.25,16.36,5.87,2.93,12.15,2.06,16.72-2.78.4-.43.45-1.18,0-1.6-7.67-7.1-14.34-19-11.59-29.75.01.01.02.03.03.04,5.16,6.97,11.08,13.39,17.23,19.48,7.75,7.67,16.03,14.85,24.87,21.22,8.45,6.09,17.56,11.59,27.43,15,8.03,2.78,17.14,4.19,25.33,1.21,7.09-2.58,12.15-8.02,15.73-14.41-1.02,8.58-3.43,17.04-10.85,22.31-.82.58-.66,1.71.27,2.07,7.11,2.74,15.26,2.93,22.73,1.98,7.19-.91,14.52-3.01,20.55-7.17,5.82-4.02,10.42-10.41,10.44-17.75.01-4.27-1.56-8.2-3.82-11.74,4.19,3.64,7.83,7.87,10.4,12.8,4.39,8.43,5.25,18.78.02,27.05-5.13,8.1-14.34,12.67-23.28,15.13-9.28,2.56-19,3.2-28.58,3.17-17.91-.05-35.58-2.34-52.57-8.21-13.63-4.71-27.32-11.55-37.48-22.02.58-1.3,1.03-2.69,1.39-4.14-1.4,1.85-2.49,3.96-4.18,5.58-.37.35-.76.67-1.15,1-3.51,5.31-9.03,9.3-15.71,11.85-21.21,8.12-47.68,6.13-68.79-1.36-34.55-12.26-65.25-38.11-82.13-70.93-.28-.54-1.41-1.06-1.83-.4-13.48,20.78-38.55,29.45-61.75,33.6-23.85,4.26-48.39,4.31-72.51,2.87-22.33-1.33-44.71-3.93-66.74-7.86-34.67-6.18-68.76-16.44-100.48-31.9-15.55-7.57-31.17-16.16-44.61-27.15-11.91-9.75-22.62-21.58-36.32-28.89-.49-.26-1.06-.11-1.27.39-2.4,5.57-5.41,10.83-9.23,15.53-14.29,17.59-37.08,23.56-58.86,23.03-22.59-.55-47.04-6.49-65.86-19.38-20.62-14.12-33.95-35.13-43.24-58.23,8.97,5.28,18.72,9.1,29.2,10.5Z"/><path class="s" d="M588.56,612.58c4.37,9.1,9.76,17.7,15.75,25.8,12.81,17.33,28.74,33.47,47.9,43.59,8.44,4.46,17.71,7.64,27.28,8.16,8.53.46,16.9-1.5,24.38-5.52-2.33,9.87,1.91,19.85,7.78,27.85,6.64,9.04,15.32,16.53,24.42,22.96,8.03,5.68,16.55,10.34,25.58,14.2,19.55,8.37,47.53,17.32,65.36.89.21.47.39.94.62,1.4,2.65,5.2,6.59,9.8,10.52,14.05,5.32,5.76,11.14,11.05,17.22,16,12.69,10.33,27.09,19.78,42.67,25,11.17,3.74,25.8,5.7,34.15-4.68,4.87-6.04,3.31-13.91.21-20.39-3.88-8.1-9.99-15.14-16.28-21.44-5.98-5.98-12.46-11.57-19.77-15.85-10.34-6.05-21.74-9.03-33.48-10.69,1.66-4.46,1.5-9.31.43-13.94-2.54-10.99-9.63-21.19-17.93-28.6-6.62-5.91-15.81-11.47-24.99-9.99,6.3-10.02,6.15-22.28,2.79-33.45-3.31-11.02-9.3-21.25-16.51-30.14-4.81-5.93-10.53-10.79-16.78-15.13-7-4.86-14.85-9.49-23.23-11.4-4.37-1-8.99-1.1-12.88.59-.73-3.35-1.61-6.67-2.74-9.95-3.23-9.43-8.19-18.35-15.19-25.48-7.46-7.6-16.92-12.78-27.13-15.56-8.7-2.37-19.43-2.73-26.6,3.71-5.17,4.65-6.52,11.22-5.78,17.71-5.88-8.26-15.47-13.55-24.78-16.9-9.71-3.5-20.27-5.45-30.58-4.17-10.57,1.32-20.55,5.97-27.92,13.79-7.08,7.51-11.1,17.47-11.67,27.76-.58,10.54,2.67,20.45,7.17,29.82Z"/><path class="n" d="M584.17,578.03c1.75-9.84,6.92-18.88,14.64-25.21,8.26-6.77,18.78-10.03,29.37-10.03,9.84,0,19.88,2.62,28.8,6.72,8.79,4.05,17.86,10.36,20.99,20.02.36,1.06,2.54,1.38,2.08-.04-3.1-9.22-2.43-20.19,6.82-25.46,8.54-4.86,19.26-2.63,27.9.69,9.14,3.51,17.19,9.27,23.34,16.93,5.88,7.34,9.81,16.1,12.33,25.13,2.2,4.85,3.82,9.97,4.96,15.21-.36-3-.79-5.99-1.39-8.96,5.04-2.33,11.38-1.22,16.76.7,7.8,2.78,15.01,7.28,21.61,12.25,6.08,4.58,11.24,9.72,15.78,15.86,12.04,16.32,23.15,41.59,9.58,60.25-.46.63.6,1.4,1.17,1.23,4.99-1.48,10.19-.42,14.81,1.75,9.47,4.45,17.16,12.93,22.34,21.91,4.4,7.63,8.48,18.39,4.26,26.97-.35.71.3,1.55,1.04,1.65,3.02.43,6.02.92,9.01,1.53,11.79,2.37,22.79,6.72,32.44,14.04,5.75,4.36,11.05,9.42,15.89,14.76,8.47,9.35,22.3,27.45,8.14,38.07-10.13,7.6-24.84,2.99-35.25-1.48-14.64-6.29-28.05-15.65-40.12-26.01-5.39-4.62-10.56-9.57-15.19-14.96-3.19-3.72-6.54-7.84-8.24-12.51-.16-.44-1.01-1.13-1.48-.67-9.56,9.44-23.1,10.73-35.76,8.63-11.36-1.88-22.26-6.05-32.72-10.78-8.4-3.8-16.29-8.59-23.7-14.09-8.57-6.37-16.83-13.8-22.74-22.8-5.18-7.9-8.26-17.38-4.84-26.62.33-.9-1.14-1.73-1.84-1.29-2.01,1.25-4.09,2.37-6.27,3.3-17.75,7.6-37.02,1.62-52.57-8.26-17.54-11.15-32.23-27.02-43.92-44.14-10.65-15.6-21.53-34.67-18.04-54.3Z"/><path class="l" d="M584.17,578.03c1.75-9.84,6.92-18.88,14.64-25.21,8.26-6.77,18.78-10.03,29.37-10.03,9.84,0,19.88,2.62,28.8,6.72,3.96,1.82,7.97,4.11,11.48,6.96-7.18-2.21-14.9-2.84-22.34-2.25-8.66.68-17.53,2.94-24.96,7.6-6.41,4.03-11.14,10.11-13.46,17.35-2.28,7.1-2.26,14.77-1.05,22.07,2.45,14.74,9.99,28.04,19.46,39.36,5.25,6.28,11.18,12.08,17.88,16.78,6.02,4.22,12.97,7.69,20.39,8.21,4.77.34,15.39-.78,13.43-8-.79-2.9-3.09-5.37-5.2-7.39-.52-.5-1.08-.95-1.62-1.42,5.35,1.82,10.74,3.55,16.34,4.38,6.38.95,13.01.61,18.74-2.63,6.5-3.67,11.6-10.69,13-18.06,2.18-11.46-3.84-22.28-11.6-30.8,2.04,1.54,4.02,3.16,5.93,4.86,4.58,4.08,8.8,8.74,13.81,12.3,3.41,2.42,7.66,4.14,11.68,2.12,4.07-2.05,6.88-6.86,8.21-11.1,2.85-9.05.46-19.22-2.83-27.8-3.6-9.39-8.82-18.16-15.21-25.9-2.47-2.99-5.14-5.78-7.88-8.5,6.51,3.47,12.28,8.19,16.96,14.01,5.88,7.34,9.81,16.1,12.33,25.13,2.2,4.85,3.82,9.97,4.96,15.21-.36-3-.79-5.99-1.39-8.96,5.04-2.33,11.38-1.22,16.76.7,2.58.92,5.08,2.04,7.53,3.29-.33.09-.66.15-.98.26-11.01,3.74-17.31,15.86-19.91,26.52-2.17,8.88-2.46,19.34,1.4,27.88-4.55-3.21-9.84-5.42-15.38-5.51-6.96-.11-13.47,3.84-16.79,10-2.32,4.31-3.03,9.68-3.53,14.48-.61,5.93-.63,12.15.83,17.97,1.13,4.51,3.53,9.34,8.37,10.59.64.16,1.17-.21,1.38-.79,1.27-3.38,1.04-7.19.8-10.73-.09-1.38-.21-2.76-.32-4.15,3.08,8.27,7.71,16.08,12.96,22.99,6.36,8.38,14.28,16.25,24.12,20.32,9.51,3.93,20.31,2.83,28.45-3.69,9.14-7.31,10.81-19.74,9.12-30.69-1.02-6.6-3.36-12.85-6.7-18.61-2.83-4.88-6.22-9.39-9.51-13.96,3.5,1.96,6.34,4.82,8.95,8,3.2,3.91,6.18,7.97,10.33,10.92.39.28,1.05.16,1.36-.18,3.5-3.85,4.71-9.3,5.28-14.33,1.2-10.51-.51-21.62-4.39-31.41-.98-2.48-2.1-4.88-3.3-7.25,10.89,16.26,19.46,39.17,6.91,56.44-.46.63.6,1.4,1.17,1.23,4.99-1.48,10.19-.42,14.81,1.75,1.52.71,2.97,1.56,4.39,2.47-5.93.48-11.03,3.63-13.74,9.16-3.76,7.68-3.55,16.93-1.48,25.05,2.05,8.05,6.63,18.26,15.74,19.86.81.14,1.64-.5,1.38-1.39-1.48-5.08-1.84-10.26-1.1-15.35.44,3,1.26,5.94,2.53,8.74,7.13,15.65,25.6,21.66,41.82,21.67-5.14,2.65-10.94,3.39-16.8,2.54-.87-.13-1.89.75-1.27,1.66,5.92,8.76,13.59,16.54,22.19,22.64,7.39,5.24,16.52,9.83,25.82,9.06,6.4-.53,13.07-3.86,13.14-11.11.02-2.09-.42-4.14-1.12-6.13,6.94,9.59,12.37,22,1.6,30.07-10.13,7.6-24.84,2.99-35.25-1.48-14.64-6.29-28.05-15.65-40.12-26.01-5.39-4.62-10.56-9.57-15.19-14.96-3.19-3.72-6.54-7.84-8.24-12.51-.16-.44-1.01-1.13-1.48-.67-9.56,9.44-23.1,10.73-35.76,8.63-11.36-1.88-22.26-6.05-32.72-10.78-8.4-3.8-16.29-8.59-23.7-14.09-8.57-6.37-16.83-13.8-22.74-22.8-5.18-7.9-8.26-17.38-4.84-26.62.33-.9-1.14-1.73-1.84-1.29-2.01,1.25-4.09,2.37-6.27,3.3-17.75,7.6-37.02,1.62-52.57-8.26-17.54-11.15-32.23-27.02-43.92-44.14-10.65-15.6-21.53-34.67-18.04-54.3Z"/><path class="l" d="M664.58,675.82c4.14.79,8.34,1.47,12.56,1.91,12.87,2.34,27.04,2.36,37.31-5.2-.05,13.08,3.39,26.01,10.77,36.86,7.7,11.33,18.84,19.81,30.9,26.01,8.28,4.26,17.09,7.63,26.02,10.22,10.1,2.93,21.03,5.12,31.55,3.57,4.45-.66,8.85-2.14,12.45-4.92,1.94-1.5,3.53-3.33,4.8-5.36,4.74,9.42,10.4,18.34,17.42,26.21,6.72,7.54,14.54,14.02,22.82,19.74,9.23,6.38,19.07,12.14,29.72,15.77,8.67,2.95,19.43,5.23,28.19,1.37-.66.7-1.38,1.38-2.24,2.02-10.13,7.6-24.84,2.99-35.25-1.48-14.64-6.29-28.05-15.65-40.12-26.01-5.39-4.62-10.56-9.57-15.19-14.96-3.19-3.72-6.54-7.84-8.24-12.51-.16-.44-1.01-1.13-1.48-.67-9.56,9.44-23.1,10.73-35.76,8.63-11.36-1.88-22.26-6.05-32.72-10.78-8.4-3.8-16.29-8.59-23.7-14.09-8.57-6.37-16.83-13.8-22.74-22.8-5.18-7.9-8.26-17.38-4.84-26.62.33-.9-1.14-1.73-1.84-1.29-2.01,1.25-4.09,2.37-6.27,3.3-17.75,7.6-37.02,1.62-52.57-8.26-5.37-3.41-10.43-7.31-15.26-11.5,10.67,5.09,22.03,8.63,33.72,10.86Z"/><path class="s" d="M414.21,359.81c.99,4.71,2.52,9.3,4.37,13.73,3.97,9.48,9.51,18.75,17.23,25.62,3.4,3.03,7.33,5.56,11.7,6.88,3.89,1.19,7.98,1.24,11.9.23-2.19,4.3-1.36,9.4.45,13.76,2.05,4.94,5.22,9.39,8.7,13.4,3.07,3.54,6.49,6.67,10.22,9.49,8.09,6.1,20.02,13.43,30.12,7.87.04.24.07.48.13.72.64,2.71,1.94,5.28,3.28,7.7,1.81,3.27,3.9,6.38,6.16,9.36,4.7,6.22,10.29,12.24,16.91,16.43,4.74,3,11.29,5.58,16.32,1.74,2.93-2.24,3.1-6.05,2.4-9.4-.88-4.19-2.91-8.14-5.11-11.77-2.09-3.45-4.46-6.77-7.35-9.58-4.1-3.98-9.03-6.65-14.27-8.77,1.27-1.87,1.74-4.13,1.77-6.4.07-5.37-2.06-10.9-5.06-15.27-2.4-3.49-6.02-7.11-10.42-7.47,4.05-3.91,5.36-9.6,5.07-15.15-.29-5.47-1.9-10.89-4.23-15.82-1.55-3.29-3.65-6.19-6.05-8.91-2.69-3.05-5.8-6.09-9.45-7.93-1.91-.96-4.03-1.53-6.02-1.2.04-1.63,0-3.27-.14-4.91-.43-4.73-1.72-9.42-4.15-13.51-2.59-4.37-6.38-7.84-10.79-10.29-3.76-2.09-8.68-3.48-12.72-1.32-2.91,1.56-4.28,4.44-4.67,7.53-1.78-4.49-5.62-8.03-9.55-10.64-4.1-2.73-8.76-4.84-13.67-5.42-5.04-.6-10.18.41-14.46,3.19-4.12,2.66-7.1,6.81-8.53,11.51-1.46,4.8-1.07,9.76-.05,14.6Z"/><path class="n" d="M416.08,343.33c1.92-4.35,5.33-7.94,9.61-9.98,4.59-2.19,9.82-2.49,14.71-1.29,4.55,1.12,8.9,3.48,12.56,6.4,3.61,2.87,7.09,6.83,7.45,11.65.05.53,1.02.93.97.22-.4-4.62,1.15-9.61,6.03-10.99,4.49-1.27,9.2.98,12.82,3.5,3.83,2.66,6.9,6.25,8.88,10.49,1.89,4.07,2.72,8.56,2.87,13.03.47,2.49.64,5.05.58,7.6.17-1.43.31-2.86.37-4.3,2.59-.5,5.4.74,7.67,2.24,3.29,2.18,6.12,5.08,8.61,8.13,2.29,2.81,4.1,5.78,5.51,9.13,3.73,8.92,6.01,21.87-2.37,28.95-.28.24.12.71.4.7,2.47-.12,4.76.97,6.65,2.5,3.87,3.14,6.48,7.94,7.86,12.68,1.17,4.03,1.84,9.47-1.08,12.95-.24.29-.03.75.29.88,1.35.54,2.68,1.11,3.99,1.73,5.18,2.44,9.78,5.71,13.41,10.2,2.17,2.67,4.04,5.61,5.68,8.64,2.86,5.29,7.21,15.24-.53,18.53-5.54,2.36-11.82-1.45-16.13-4.71-6.06-4.58-11.2-10.44-15.62-16.61-1.97-2.75-3.8-5.63-5.34-8.65-1.06-2.08-2.14-4.37-2.4-6.72-.02-.22-.34-.64-.61-.48-5.49,3.27-11.89,2.33-17.51-.09-5.04-2.17-9.61-5.34-13.91-8.72-3.46-2.72-6.56-5.83-9.37-9.22-3.25-3.93-6.22-8.3-7.94-13.14-1.51-4.25-1.86-8.98.76-12.86.25-.38-.33-.93-.7-.81-1.07.35-2.16.63-3.27.81-9.06,1.49-17.3-3.47-23.38-9.82-6.85-7.16-11.85-16.17-15.33-25.42-3.17-8.43-6.04-18.49-2.21-27.16Z"/><path class="l" d="M416.08,343.33c1.92-4.35,5.33-7.94,9.61-9.98,4.59-2.19,9.82-2.49,14.71-1.29,4.55,1.12,8.9,3.48,12.56,6.4,1.63,1.3,3.22,2.81,4.52,4.53-3.07-1.84-6.57-3.01-10.07-3.59-4.08-.67-8.44-.64-12.4.67-3.42,1.13-6.29,3.41-8.18,6.49-1.86,3.02-2.71,6.57-2.97,10.09-.53,7.1,1.46,14.1,4.56,20.42,1.72,3.5,3.8,6.86,6.37,9.8,2.31,2.64,5.13,5.03,8.5,6.13,2.17.7,7.2,1.4,7.11-2.17-.04-1.43-.83-2.83-1.57-4.01-.18-.29-.39-.56-.59-.84,2.27,1.45,4.57,2.87,7.06,3.89,2.84,1.17,5.95,1.77,8.96.92,3.42-.96,6.57-3.62,8.05-6.87,2.3-5.05.74-10.74-1.89-15.57.77.94,1.5,1.92,2.19,2.92,1.66,2.41,3.08,5.05,5,7.26,1.3,1.51,3.07,2.79,5.16,2.31,2.12-.48,3.95-2.39,5.05-4.19,2.34-3.86,2.38-8.83,1.83-13.18-.61-4.76-2.03-9.41-4.11-13.71-.8-1.66-1.72-3.26-2.69-4.83,2.62,2.35,4.76,5.19,6.26,8.41,1.89,4.07,2.72,8.56,2.87,13.03.47,2.49.64,5.05.58,7.6.17-1.43.31-2.86.37-4.3,2.59-.5,5.4.74,7.67,2.24,1.09.72,2.12,1.52,3.11,2.38-.16,0-.32,0-.48,0-5.51.47-9.79,5.36-12.2,9.99-2.01,3.86-3.32,8.66-2.5,13.05-1.74-2-3.94-3.63-6.49-4.3-3.21-.85-6.66.24-8.89,2.71-1.56,1.73-2.5,4.13-3.27,6.29-.95,2.67-1.66,5.55-1.64,8.4.01,2.21.58,4.72,2.68,5.85.28.15.56.03.73-.21.97-1.42,1.29-3.21,1.58-4.87.11-.65.21-1.3.32-1.95.49,4.17,1.75,8.32,3.4,12.11,1.99,4.6,4.77,9.15,8.86,12.15,3.95,2.91,9.07,3.63,13.57,1.54,5.05-2.34,7.23-7.89,7.68-13.15.27-3.17-.1-6.32-1-9.37-.76-2.58-1.82-5.05-2.82-7.54,1.4,1.31,2.39,2.95,3.23,4.72,1.04,2.17,1.96,4.39,3.54,6.23.15.17.47.2.65.07,2.05-1.38,3.23-3.76,4.06-6.02,1.74-4.72,2.21-10.05,1.51-15.03-.18-1.26-.42-2.5-.71-3.73,3.2,8.76,4.58,20.33-3.17,26.88-.28.24.12.71.4.7,2.47-.12,4.76.97,6.65,2.5.62.5,1.2,1.06,1.75,1.64-2.8-.46-5.51.42-7.39,2.67-2.61,3.12-3.55,7.42-3.51,11.41.04,3.95,1,9.2,5.04,10.98.36.16.82-.04.8-.49-.11-2.52.31-4.95,1.22-7.22-.13,1.44-.09,2.89.18,4.33,1.53,8.05,9.39,12.94,16.89,14.79-2.68.64-5.44.32-8.05-.74-.39-.16-.96.13-.77.62,1.75,4.73,4.42,9.2,7.7,13,2.83,3.27,6.53,6.43,10.92,7.13,3.02.48,6.48-.29,7.33-3.64.25-.96.27-1.96.17-2.96,2.13,5.23,3.24,11.58-2.66,14.09-5.54,2.36-11.82-1.45-16.13-4.71-6.06-4.58-11.2-10.44-15.62-16.61-1.97-2.75-3.8-5.63-5.34-8.65-1.06-2.08-2.14-4.37-2.4-6.72-.02-.22-.34-.64-.61-.48-5.49,3.27-11.89,2.33-17.51-.09-5.04-2.17-9.61-5.34-13.91-8.72-3.46-2.72-6.56-5.83-9.37-9.22-3.25-3.93-6.22-8.3-7.94-13.14-1.51-4.25-1.86-8.98.76-12.86.25-.38-.33-.93-.7-.81-1.07.35-2.16.63-3.27.81-9.06,1.49-17.3-3.47-23.38-9.82-6.85-7.16-11.85-16.17-15.33-25.42-3.17-8.43-6.04-18.49-2.21-27.16Z"/><path class="l" d="M442.23,397.72c1.83.84,3.69,1.63,5.59,2.31,5.69,2.55,12.24,4.18,17.84,1.86-1.5,6.04-1.37,12.41.82,18.27,2.28,6.12,6.48,11.31,11.35,15.55,3.35,2.91,7.04,5.48,10.88,7.7,4.34,2.5,9.15,4.77,14.19,5.25,2.13.21,4.33.02,6.31-.85,1.07-.47,2.01-1.14,2.82-1.93,1.13,4.9,2.74,9.66,5.1,14.11,2.26,4.25,5.14,8.14,8.33,11.73,3.55,4,7.45,7.79,11.96,10.68,3.68,2.36,8.39,4.64,12.88,3.85-.38.25-.79.48-1.26.68-5.54,2.36-11.82-1.45-16.13-4.71-6.06-4.58-11.2-10.44-15.62-16.61-1.97-2.75-3.8-5.63-5.34-8.65-1.06-2.08-2.14-4.37-2.4-6.72-.02-.22-.34-.64-.61-.48-5.49,3.27-11.89,2.33-17.51-.09-5.04-2.17-9.61-5.34-13.91-8.72-3.46-2.72-6.56-5.83-9.37-9.22-3.25-3.93-6.22-8.3-7.94-13.14-1.51-4.25-1.86-8.98.76-12.86.25-.38-.33-.93-.7-.81-1.07.35-2.16.63-3.27.81-9.06,1.49-17.3-3.47-23.38-9.82-2.1-2.19-4-4.57-5.76-7.06,4.36,3.57,9.21,6.5,14.36,8.87Z"/></g></g></g></svg>