<?xml version="1.0" encoding="utf-8"?>
<!-- Generator: Adobe Illustrator 28.4.1, SVG Export Plug-In . SVG Version: 6.00 Build 0)  -->
<svg version="1.1" id="Calque_1" xmlns="http://www.w3.org/2000/svg" xmlns:xlink="http://www.w3.org/1999/xlink" x="0px" y="0px"
	 viewBox="0 0 30 30" style="enable-background:new 0 0 30 30;" xml:space="preserve">
<style type="text/css">
	.st0{fill-rule:evenodd;clip-rule:evenodd;}
</style>
<g id="XMLID_17653_">
	<g id="XMLID_17655_">
		<path d="M21.3,7.9C20.4,7,19.2,6.5,18,6.4c-1.2-0.1-2.3,0.4-3.1,1.2l-3.4,3.6l-3.4,3.6c-1.6,1.7-1.3,4.5,0.6,6.4
			c0.8,0.8,1.9,1.3,3,1.4c0,0,0,0,0.1,0c0.1,0,0.2,0,0.3,0c0.6,0,1.2-0.1,1.7-0.3s1-0.5,1.4-0.9l6.9-7.2c0.8-0.8,1.1-1.9,1-3.1
			c0,0,0,0,0-0.1C22.8,10,22.3,8.8,21.3,7.9z M14.4,20.8c-0.6,0.7-1.5,1-2.5,0.9c-1,0-1.9-0.5-2.7-1.2c0,0-0.1-0.1-0.1-0.1
			c0,0-0.1-0.1-0.1-0.1c-1.4-1.5-1.6-3.7-0.3-5l3.2-3.3l4.8,4.6l0.9,0.9L14.4,20.8z M21.3,13.7L18.1,17l-0.9-0.9l-4.8-4.6l3.2-3.3
			c0.7-0.7,1.6-1,2.5-1c0.9,0,1.8,0.4,2.5,1c0.1,0,0.1,0.1,0.2,0.1C22.4,10,22.6,12.3,21.3,13.7z"/>
		<path d="M21.3,13.7L18.1,17l-0.9-0.9l3.1-3.2c1.1-1.2,1.2-3.1,0.4-4.6c0.1,0,0.1,0.1,0.2,0.1C22.4,10,22.6,12.3,21.3,13.7z"/>
		<path d="M17.6,17.5l-3.2,3.3c-0.6,0.7-1.5,1-2.5,0.9c-1,0-1.9-0.5-2.7-1.2c0,0-0.1-0.1-0.1-0.1c0,0,0,0,0-0.1
			c1.6,0.8,3.4,0.7,4.5-0.5l3.1-3.3L17.6,17.5z"/>
	</g>
	<g>
		<path class="st0" d="M10.6,19.8c0,0,0.1,0.1,0.1,0.1c0.1,0,0.1,0.1,0.2,0.1c0,0,0,0.1,0,0.1c0,0.1,0,0.1-0.1,0.2
			c-0.1,0-0.1,0-0.2,0c-0.1,0-0.2-0.1-0.2-0.1c-0.1,0-0.1-0.1-0.2-0.1c0,0,0,0-0.1,0c-0.1-0.1-0.1-0.1-0.1-0.2c0,0,0-0.1,0.1-0.1
			c0.1,0,0.1,0,0.2,0C10.5,19.7,10.6,19.7,10.6,19.8z"/>
		<path class="st0" d="M9.6,19.3c-0.1,0-0.2-0.1-0.3-0.1c0,0-0.1-0.1-0.1-0.1c0,0,0,0,0-0.1l0,0c0,0,0-0.1-0.1-0.1l0,0
			c0,0,0-0.1-0.1-0.1l0,0c0,0-0.1-0.1-0.1-0.1c0,0,0,0,0,0c0,0,0,0,0,0c0,0,0-0.1-0.1-0.1c0-0.1-0.1-0.2-0.1-0.3
			c0-0.1,0-0.2-0.1-0.3c0-0.1,0-0.1,0-0.2c0-0.1,0-0.1,0.1-0.1c0.1,0,0.1,0,0.2,0c0,0,0.1,0.1,0.1,0.1c0,0,0,0.1,0,0.1c0,0,0,0,0,0
			c0,0,0,0,0,0.1c0,0,0,0,0,0c0,0.1,0,0.1,0,0.2c0,0.1,0.1,0.2,0.1,0.3c0.1,0.2,0.2,0.3,0.3,0.5l0,0C9.8,19.1,9.8,19.2,9.6,19.3z"/>
		<path class="st0" d="M9.5,16.6L9.5,16.6c0,0.1-0.1,0.2-0.1,0.2c0,0-0.1,0.1-0.1,0.1c0,0,0,0-0.1,0c-0.1,0-0.2,0-0.3-0.1
			c0,0,0,0,0,0c0-0.1,0-0.1,0.1-0.2l0.2-0.3c0,0,0,0,0.1,0C9.3,16.3,9.4,16.4,9.5,16.6C9.5,16.5,9.5,16.5,9.5,16.6z"/>
	</g>
</g>
</svg>
